<svg height="100" viewBox="0 0 100 100" width="100" xmlns="http://www.w3.org/2000/svg" xmlns:xlink="http://www.w3.org/1999/xlink"><defs><linearGradient id="a" x1="20.613306%" x2="80.112413%" y1="8.718274%" y2="88.613415%"><stop offset=".00696790541" stop-color="#ba7cff"/><stop offset="1" stop-color="#7c66ff"/></linearGradient><circle id="b" cx="39.6" cy="39.6" r="31.68"/><filter id="c"><feColorMatrix in="SourceGraphic" type="matrix" values="0 0 0 0 0.142209 0 0 0 0 0.000000 0 0 0 0 1.000000 0 0 0 1.000000 0"/></filter><linearGradient id="d" x1="21.209539%" x2="89.58603%" y1="9.749188%" y2="91.865442%"><stop offset="0" stop-color="#5045d1"/><stop offset="1" stop-color="#692dc7"/></linearGradient><linearGradient id="e" x1="42.33599%" x2="25.92904%" y1="69.602064%" y2="41.623519%"><stop offset="0" stop-color="#f8ebff"/><stop offset="1" stop-color="#ff5385"/></linearGradient><linearGradient id="f" x1="36.726237%" x2="32.000255%" y1="50%" y2="33.785208%"><stop offset="0" stop-color="#fff"/><stop offset="1" stop-color="#fff" stop-opacity="0"/></linearGradient><filter id="g" height="155.3%" width="155.3%" x="-27.6%" y="-27.6%"><feOffset dx="0" dy="0" in="SourceAlpha" result="shadowOffsetOuter1"/><feGaussianBlur in="shadowOffsetOuter1" result="shadowBlurOuter1" stdDeviation="2.5"/><feColorMatrix in="shadowBlurOuter1" result="shadowMatrixOuter1" type="matrix" values="0 0 0 0 1   0 0 0 0 0.601772104   0 0 0 0 0.814157414  0 0 0 0.29649257 0"/><feMerge><feMergeNode in="shadowMatrixOuter1"/><feMergeNode in="SourceGraphic"/></feMerge></filter><circle id="h" cx="19" cy="19" r="19"/><mask id="i" fill="#fff"><use fill="#fff" fill-rule="evenodd" xlink:href="#b"/></mask><mask id="j" fill="#fff"><use fill="#fff" fill-rule="evenodd" xlink:href="#h"/></mask></defs><g fill="none" fill-rule="evenodd"><g transform="translate(10.5 10.5)"><circle cx="39.6" cy="39.6" fill="url(#a)" r="35.64" stroke="#fff" stroke-width="7.92"/><use fill="#d8d8d8" opacity="0" xlink:href="#b"/><g filter="url(#c)" opacity=".144834"><g mask="url(#i)"><g stroke="#979797" stroke-width="1.32" transform="translate(-37.195726 -40.996224)"><circle cx="95.935726" cy="107.656224" r="33.66"/><circle cx="95.935726" cy="52.216224" r="33.66"/><circle cx="57.655726" cy="107.656224" r="33.66"/><circle cx="57.655726" cy="52.216224" r="33.66"/><circle cx="79.511453" cy="113.512448" r="33.66" transform="matrix(.8660254 .5 -.5 .8660254 67.408739 -24.547942)"/><circle cx="107.231452" cy="65.5" r="33.66" transform="matrix(.8660254 .5 -.5 .8660254 47.11629 -44.84039)"/><circle cx="46.36" cy="94.372448" r="33.66" transform="matrix(.8660254 .5 -.5 .8660254 53.397286 -10.536489)"/><circle cx="74.08" cy="46.36" r="33.66" transform="matrix(.8660254 .5 -.5 .8660254 33.104838 -30.828938)"/></g></g></g><circle cx="39.6" cy="39.6" fill="url(#d)" mask="url(#i)" r="20.32" stroke="#a798ff" stroke-width="2.64"/><path d="m68.9504198 7.3958091c-23.5841286 6.404382-28.0563756 14.9899482-34.4691111 23.7605836-6.4127354 8.7706354-2.5228325 15.4713641-12.4874352 20.964658-6.6430685 3.662196-17.47435969 2.3012124-32.4938735-4.0829507l14.60079359-40.6422909 43.91270521-15.45532455c29.6806998 6.0339617 36.6596735 11.18573655 20.936921 15.45532455z" fill="url(#e)" mask="url(#i)" opacity=".1"/><g fill="url(#f)"><path d="m65.1643069 7.92c-21.3341724 1.87926667-34.695608 4.8677503-40.0843069 8.965451-8.0830483 6.146551-19.85194835 20.614549-21.07984362 31.617793-.81859685 7.335496.90277561-7.5348486 5.16411739-44.61103384l29.43531833-5.78641395z" mask="url(#i)" opacity=".1"/><path d="m73.9066215 39.3659575c-21.3341725 1.8792667-34.6956081 4.8677504-40.084307 8.965451-8.0830483 6.146551-19.8519483 20.614549-21.0798436 31.6177931-.8185969 7.335496.9027756-7.5348486 5.1641174-44.6110339l29.4353183-5.786414z" mask="url(#i)" opacity=".1" transform="matrix(-1 0 0 -1 86.451226 111.318366)"/></g></g><g filter="url(#g)" transform="translate(31.1 31.1)"><use fill="url(#d)" opacity="0" xlink:href="#h"/><rect fill="#fff" height="19.5" mask="url(#j)" rx="7.25" width="14.5" x="12" y="6"/><g stroke="#fff" stroke-linecap="round" stroke-linejoin="round" stroke-width="2"><path d="m9 22.5c2.2647734 3.9179684 5.5981067 5.8769527 10 5.8769527s7.7352266-1.9589843 10-5.8769527" mask="url(#j)"/><path d="m18.9 28.4v4" mask="url(#j)"/></g></g></g></svg>