<svg height="32" viewBox="0 0 32 32" width="32" xmlns="http://www.w3.org/2000/svg"><g fill="none" fill-rule="evenodd" stroke="#252142" stroke-width="1.92"><rect height="4.8" rx="2.4" width="20" x="6.08" y="10.349572"/><path d="m8.32 15.3095722h15.52v6.72c0 1.9440423-1.5759577 3.52-3.52 3.52h-8.48c-1.94404232 0-3.52-1.5759577-3.52-3.52z"/><g stroke-linecap="round" stroke-linejoin="round"><path d="m16.08 11.061029v14.577087"/><path d="m11.5753933 10.3495722c-2.62677041-1.95961884-3.14595908-3.33458498-1.557566-4.12489846 2.3825896-1.18547021 5.9099652.70011386 5.9821727 4.12489846"/><path d="m18.4553933 10.3495722c-2.6267704-1.95961884-3.1459591-3.33458498-1.557566-4.12489846 2.3825896-1.18547021 5.9099652.70011386 5.9821727 4.12489846" transform="matrix(-1 0 0 1 38.88 0)"/></g></g></svg>