<svg height="96" viewBox="0 0 96 96" width="96" xmlns="http://www.w3.org/2000/svg"><path d="m2488 1894h-34a12 12 0 0 1 -12-12v-42a12 12 0 0 1 12-12h34a12 12 0 0 1 12 12v42a12 12 0 0 1 -12 12zm7-55a6 6 0 0 0 -6-6h-36a6 6 0 0 0 -6 6v44a6 6 0 0 0 6 6h36a6 6 0 0 0 6-6zm-10.5 4s-6.98 4-13.97 4c-7.01 0-14.03-4-14.03-4a2.5 2.5 0 0 1 0-5s7.21 4 14.32 4c6.89 0 13.68-4 13.68-4a2.5 2.5 0 0 1 0 5zm-24.17 9.01h.99c.88 0 2.49 1.9 4.81 5.72q4.395 6.345 4.63 6.36 7.575-11.94 8.43-11.94a2.023 2.023 0 0 1 .84-.14c1.32.25 1.99.89 1.99 1.9 0 .7-1.17 2.66-3.49 5.88l-3.97 5.89v.15h6.62c1.22.19 1.83.77 1.83 1.76v.47c0 .97-.72 1.56-2.16 1.76h-8.1v1.27h8.1c1.44.19 2.16.76 2.16 1.74v.49a1.76 1.76 0 0 1 -1.83 1.74h-8.43v6.04c-.31 1.27-.92 1.91-1.83 1.91h-.49a2.14 2.14 0 0 1 -1.83-1.27v-6.37a.282.282 0 0 0 -.33-.31h-6.95c-.91 0-1.51-.64-1.81-1.91.27-1.37.93-2.06 1.99-2.06h7.1v-1.27h-7.1c-1.33-.3-1.99-.93-1.99-1.91.27-1.38.87-2.08 1.81-2.08h5.3v-.15q-7.62-10.95-7.61-11.45v-.95a2.636 2.636 0 0 1 1.32-1.27z" fill-rule="evenodd" transform="translate(-2423 -1813)"/></svg>