<?xml version="1.0" encoding="UTF-8"?>
<svg width="32px" height="32px" viewBox="0 0 32 32" version="1.1" xmlns="http://www.w3.org/2000/svg" xmlns:xlink="http://www.w3.org/1999/xlink">
    <title>通话</title>
    <g id="页面" stroke="none" stroke-width="1" fill="none" fill-rule="evenodd">
        <g id="组建" transform="translate(-944.000000, -95.000000)" fill="#252142" fill-rule="nonzero">
            <g id="更多备份-4" transform="translate(944.000000, 95.000000)">
                <g id="编组" transform="translate(7.200000, 5.280000)">
                    <path d="M4.68116989,0 C3.84579759,0 3.14061317,0.302483638 2.07958185,0.993406488 L1.77797991,1.18925863 L1.50892492,1.36117328 C0.77444824,1.81816161 0.328554712,2.58960144 0.126763481,3.54927694 C-0.150970696,4.86257436 0.0356319566,6.55887152 0.608458679,8.40205777 C1.20189849,10.30944 2.18156237,12.292987 3.44330001,14.1535823 C4.27259481,15.3801016 5.21362307,16.5267663 6.25427356,17.5788187 C7.23068275,18.5624317 8.23312951,19.3882749 9.23774609,20.0345869 C11.2350453,21.3195946 13.1488073,21.8386028 14.5483271,21.1030692 L15.3912937,20.6069104 C16.4664288,19.9616864 17.0511894,19.4209169 17.3864232,18.6135708 C17.7466097,17.7442049 17.625101,16.8726629 17.2171789,16.0555243 C16.9969444,15.6126808 16.7702005,15.3036696 16.4360516,14.9097892 C14.7316751,12.905569 13.2551274,12.4202909 11.6462221,13.1536484 C11.4845721,13.2298131 11.3337711,13.3059778 11.1883946,13.389759 L10.7349068,13.6650401 C10.5928494,13.5557343 10.4583729,13.4368604 10.3324093,13.309242 C9.80080869,12.7837054 9.13793535,11.9513338 8.43166604,10.9133175 C7.83171684,10.0287186 7.35002164,9.21049191 7.04624991,8.56526789 L6.91606202,8.28237036 L6.82493049,8.06475688 C6.81345211,8.03657459 6.80224097,8.00828356 6.79129861,7.97988762 L6.76526103,7.90807517 L6.97898617,7.77533092 C8.00747051,7.12466657 8.55208987,6.39022104 8.69638143,5.50344608 C8.84718241,4.57097228 8.54775026,3.56559795 7.87945241,2.30126356 C7.21115456,1.04345757 6.36059369,0.242639945 5.21602513,0.0446116767 C5.03929483,0.0147893549 4.86038423,0 4.68116989,0 Z M4.68116989,1.63210208 C4.76796181,1.63210208 4.85475375,1.63863048 4.94046076,1.65386344 C5.497014,1.74961339 5.98847329,2.21204205 6.44196112,3.06617499 C6.9572882,4.04108342 7.16884352,4.75267953 7.08964588,5.24230989 C7.04841972,5.4990938 6.91280732,5.84618732 6.25535847,6.2988234 L5.95809611,6.49141134 L5.55125895,6.74166685 C5.32661972,6.88721766 5.17072881,7.11820145 5.11946912,7.38145051 L5.10102584,7.49460952 L5.09234663,7.63279409 C5.08800702,7.93854104 5.17913855,8.42490719 5.57512674,9.2638072 C5.91903974,9.9928124 6.443046,10.8817635 7.08747607,11.8327345 C7.84690544,12.9490917 8.57378782,13.8608922 9.18892563,14.471298 C9.51981984,14.7977183 9.8094879,15.0294766 10.0720335,15.1785419 C10.5537287,15.4494707 10.9193397,15.4135644 11.1677816,15.3058458 L11.2730168,15.2536185 L11.8360794,14.9021728 L12.0736723,14.7639882 L12.3188595,14.6388604 L12.4631511,14.5779286 L12.6117823,14.5257014 C13.1694204,14.357051 13.8605011,14.4604174 15.033277,15.7802432 L15.2502569,16.0304987 L15.3826146,16.195885 L15.5366702,16.4047939 C15.8241685,16.8247879 16.1160063,17.4275773 15.8838379,17.9879321 C15.7286974,18.3611392 15.4162464,18.6690623 14.7577127,19.0825279 L13.8648407,19.615681 C13.1542318,20.0574364 11.7167405,19.6918457 10.1154294,18.6603577 C9.21604809,18.0815059 8.30473285,17.3307393 7.4096911,16.4298195 C6.43926448,15.4486381 5.5617913,14.3791907 4.7885749,13.2352534 C3.61362918,11.5041381 2.70556864,9.66421604 2.16311907,7.9167797 C1.6662353,6.31840862 1.50675513,4.88759991 1.71831045,3.88657786 C1.82246077,3.39585943 2.0068936,3.03788524 2.2661845,2.82244789 L2.389863,2.73540247 L2.66976697,2.55587134 L3.16014135,2.23815566 L3.51056375,2.02707056 C4.00310795,1.74743723 4.34919074,1.63210208 4.68225477,1.63210208 L4.68116989,1.63210208 Z" id="形状"></path>
                </g>
            </g>
        </g>
    </g>
</svg>