<svg height="197" viewBox="0 0 197 197" width="197" xmlns="http://www.w3.org/2000/svg"><g fill="none" fill-rule="evenodd"><path d="m0 0h197v197h-197z" fill="#f8f7fc"/><path d="m103.77125 87.8566797h-1.517227v1.5172266h1.517227zm-.758633 9.1033203c1.675899 0 3.034453-1.3585547 3.034453-3.0344922 0-1.6758594-1.358554-3.0344531-3.034453-3.0344531-1.67582 0-3.0344529 1.3585937-3.0344529 3.0344531 0 1.6759766 1.3585939 3.0344922 3.0344529 3.0344922zm0-4.5516406c.838008 0 1.517266.6792969 1.517266 1.5171875 0 .8379687-.679258 1.5172656-1.517266 1.5172656-.83789 0-1.517226-.6792969-1.517226-1.5172656 0-.8379297.679336-1.5171875 1.517226-1.5171875zm6.068906.7585937h-1.517226v1.5172657h1.517226zm-1.241132-2.9963672-1.072813-1.0728515-1.072891 1.0728515 1.072891 1.0728907zm-2.145664 7.5099219 1.07289 1.0728516 1.072813-1.0728516-1.072813-1.0728125zm-3.440704 2.3139453h1.517227v-1.5172656h-1.517227zm-4.0692183-2.3139453 1.0728906 1.0728516 1.0728517-1.0728516-1.0728517-1.0728125zm.2761328-16.6513672c-9.6362891 0-17.4481641 7.8117578-17.4481641 17.448086 0 9.6363674 7.811875 17.4481644 17.4481641 17.4481644 9.6363285 0 17.4481645-7.811797 17.4481645-17.4481644 0-9.6363282-7.811836-17.448086-17.4481645-17.448086zm0 33.3790234c-8.7983984 0-15.9308984-7.132539-15.9308984-15.9309374 0-8.7983594 7.1325-15.9308985 15.9308984-15.9308985 8.7983985 0 15.9308985 7.1325391 15.9308985 15.9308985 0 8.7983984-7.1325 15.9309374-15.9308985 15.9309374zm0-21.2412109h-1.5171875v1.5172657h1.5171875zm1.8696095-2.9963672-1.0728517-1.0728515-1.0728906 1.0728515 1.0728906 1.0728907zm5.716523 12.0997271-4.551679 4.551679-8.344766-8.3447654-8.2804688 8.2805074c.2844136.466347.5926335.917751.9234375 1.352422l7.3570704-7.357148 12.1131639 12.113203h.000117c.506228-.239808.999394-.506236 1.477422-.798203l.000039-.000039-4.108125-4.108008 3.413789-3.413789 4.401133 4.401094c.355508-.40668.691445-.829493 1.004688-1.271094z" fill="#e2dcff" fill-rule="nonzero"/></g></svg>