<svg height="26" viewBox="0 0 26 26" width="26" xmlns="http://www.w3.org/2000/svg"><g fill="none" fill-rule="evenodd" transform="translate(4.42 5.2)"><g fill-rule="nonzero"><path d="m11.0517902 6.53646945c-.3502387.17428145-.6150124.63009448-.5881999 1.02055197l.2279065 3.53590258c.023461.3904575.3301293.5664147.680368.3921332l3.1739334-1.57020882c.3519144-.17428145.6150124-.63009448.5898757-1.02055197l-.2279066-3.53590255c-.0251367-.39045748-.3301292-.56641472-.6803679-.39213327zm-7.27960222-4.20454005c-.35191447.17428146-.61333665.63009449-.58987568 1.01887619l.22790651 3.53590255c.02346097.39045749.33012929.56641472.68036798.39213327l3.17560917-1.57020886c.35191447-.17428145.61501243-.63009448.58987568-1.02055197l-.22790651-3.53422677c-.02346097-.39045748-.33012929-.56641472-.68036798-.39213327z" fill="#d59a6d"/><path d="m7.44885632 12.6530781c.07876181-.1374142.08378916-.2966136.02178519-.4658677l-.48430135-1.2870015c-.21450025-.5613874-.26644953-.83454-.11227747-1.10266534.1591994-.27315266.42229736-.31504724.67869219-.1692541.20444555.12065639.29828941.28991049.36532074.58819994.01508205.077086.06870711.1759572.18098459.239637.17763301.1022227.40553953.0435703.51111387-.1374143.04524615-.0754102.06200398-.177633.04524615-.2681253-.08546495-.45078566-.28823471-.80270013-.77923919-1.08590749-.67198906-.3887817-1.34230234-.25136748-1.69254103.35359025l-.00502735.00837892c-.31337146.54295376-.19103929.97027852.12735952 1.74616612l.29158628.7122078-1.1278021-.6518796c-.17092988-.0971955-.39045748-.038543-.48932869.1323868-.09719543.1709299-.03686723.387106.13573844.4843014l1.75789658 1.0172004c.2195276.1307111.45246146.0988712.57479363-.1139533z" fill="#e5e5e5"/><path d="m.13238687 7.9675883c-.01675783.0402188-.04357036.06367977-.06367976.09887121l3.17560917-7.7504973c.00837891-.00167578.01005469.00837892.01675783-.00502735.14579314-.25136748.46754351-.33515664.72226256-.1893635.12400795.07373446.2094729.18601194.24634013.31337146 0 .00670313.00167578-.0100547.00502735-.0100547l1.50485331 4.53969669 5.32228744-3.47892592c.216176-.11562904.4893287-.13071109.7205868.00502735.2496917.14244157.3837543.40386375.3753754.66696171l-.3485629 6.31267531 4.7743063-.98536052c.1055744-.00837891.2145003.00167579.3116957.0603282.2547191.14579314.3452114.46921929.1994182.72058677-.0083789.01675784.0016758.01508205.0050274.02178519l-5.1547092 6.6696171c.008379-.0083789.0100547-.0217852.0167579-.0301641-.3535903.4692193-.9401144.6887469-1.5065291.5965789-1.21661862-.2429886-3.21247641-1.0959623-5.36585782-2.3645301-2.20365491-1.3004078-3.95484835-2.6661711-4.74581802-3.62807067-.34185978-.44240677-.43570364-1.03898558-.21114869-1.56350573z" fill="#f2ab6c"/><path d="m8.80456493 6.28845354c1.60540027.93005967 2.15840877 2.98121831 1.22834907 4.58494286-.93005966 1.6054003-2.98121829 2.1533814-4.58494282 1.2283491-1.6054003-.9300597-2.15338141-2.98121835-1.22834908-4.58494288.92838389-1.6054003 2.97954253-2.15338141 4.58494283-1.22834908z" fill="#d59a6d"/></g><text fill="#fff" font-family="MF-YuanHeiNoncommercial-Regular, MF YuanHei(Noncommercial)" font-size="4.096" transform="matrix(.80901699 .58778525 -.58778525 .80901699 6.909317 -2.54128)"><tspan x="5.865286" y="11.361705">3</tspan></text></g></svg>