<svg height="24" viewBox="0 0 24 24" width="24" xmlns="http://www.w3.org/2000/svg"><g fill="none" fill-rule="evenodd"><path d="m9.25071381 19.4976386-1.04559824.3899238c-.74516175.2778852-1.57450521-.1009172-1.85239044-.846079-.06726644-.180378-.09768176-.3724127-.08944743-.5647488l.04773196-1.1149161c.0827145-1.9320329-.53369649-3.8291508-1.73623435-5.3435799l-.69394721-.8739299c-.49455221-.6228197-.39057089-1.52862858.23224879-2.02318079.15076318-.11971405.32400021-.20798272.50946728-.25958654l1.07509821-.29913223c1.86303264-.51836483 3.47681754-1.6908482 4.54552052-3.30251398l.6167153-.93004223c.4395117-.66280897 1.3331191-.84382719 1.9959281-.40431551.1604432.10639063.2979249.24387231.4043155.40431551l.6167153.93004223c1.068703 1.61166578 2.6824879 2.78414915 4.5455205 3.30251398l1.0750982.29913223c.7661854.21318121 1.2144838 1.00711468 1.0013026 1.77330003-.0516038.1854671-.1398725.3587041-.2595865.5094673l-.6939472.8739299c-1.2025379 1.5144291-1.8189489 3.411547-1.7362344 5.3435799l.047732 1.1149161c.0340169.7945622-.5825268 1.4662583-1.3770891 1.5002752-.1923361.0082344-.3843708-.022181-.5647488-.0894474l-1.0455982-.3899238c-1.8119123-.6756972-3.8066601-.6756972-5.61857239 0z" fill="#7c66ff"/><path d="m12.234453 8.6058425.5597723 1.5936472c.2348905.6687227.7829103 1.1796569 1.4664266 1.3671906l1.2267875.336589c.0639123.0175354.1015082.0835617.0839728.147474-.0100964.0367991-.0370929.0666027-.0727172.0802783l-1.437416.5518012c-.568118.2180916-1.0178831.6657122-1.2386873 1.2327814l-.5895503 1.514083c-.0240471.0617576-.0936055.0923281-.1553631.068281-.0316022-.0123052-.0565221-.0374077-.0685961-.069099l-.5709218-1.4985227c-.2193665-.5757804-.6741866-1.0304705-1.2500297-1.2496723l-1.44358103-.5495171c-.06193837-.0235776-.09303591-.092902-.0694583-.1548404.01364994-.0358584.04362397-.0630275.08064679-.0731001l1.23373365-.3356539c.69047369-.1878527 1.24309879-.7054662 1.47567759-1.382186l.5426002-1.57876889c.0215408-.06267583.0898118-.09602238.1524877-.0744816.0347101.01192937.0620522.0390875.0742157.07371629z" fill="#fff"/><path d="m5.03445296 5.9658425.09503651.27056475c.10198142.29033661.33991297.51216687.6366725.59358763l.12127747.03327444c.06391226.01753536.10150817.0835617.08397281.14747396-.01009644.03679914-.03709294.0666027-.07271726.08027832l-.13253302.05087732c-.30178832.11585177-.54070671.35363103-.65799946.65486222l-.07512113.19292604c-.02404705.06175763-.09360549.0923281-.15536312.06828104-.03160219-.01230519-.05652207-.03740776-.0685961-.06909898l-.07134986-.18727502c-.11580236-.30395137-.35589945-.54397983-.65988391-.6596953l-.13329872-.05074181c-.06193837-.02357761-.09303591-.09290201-.0694583-.15484038.01364994-.0358584.04362397-.06302755.08064679-.07310011l.12211023-.03322174c.29889941-.08131962.53812548-.3053895.63880662-.59833497l.09109459-.2650521c.02154078-.06267583.08981184-.09602238.15248767-.0744816.03471013.01192937.06205224.0390875.07421569.07371629z" fill="#ffcb2f"/><path d="m7.91445296 4.1658425.28548148.81275316c.19469181.55427897.64892477.97777311 1.21546568 1.13321276l.55203932.1514609c.06391226.01753536.10150816.0835617.08397276.14747396-.0100964.03679914-.0370929.0666027-.07271721.08027832l-.57589228.22107593c-.56811803.21809152-1.01788309.66571217-1.23868728 1.2327814l-.25107405.64480825c-.02404705.06175763-.09360549.0923281-.15536312.06828104-.03160219-.01230519-.05652207-.03740776-.0685961-.06909898l-.23973705-.62924802c-.21936644-.57578041-.67418658-1.03047055-1.25002968-1.24967238l-.57476576-.21879173c-.06193837-.02357761-.09303591-.09290201-.0694583-.15484038.01364994-.0358584.04362397-.06302755.08064679-.07310011l.55651785-.1514082c.57062616-.15524657 1.02733046-.58301634 1.21953991-1.14227587l.27595368-.80292474c.02154078-.06267583.08981184-.09602238.15248767-.0744816.03471013.01192937.06205224.0390875.07421569.07371629z" fill="#ff607c"/></g></svg>