<svg height="12" viewBox="0 0 11 12" width="11" xmlns="http://www.w3.org/2000/svg"><path d="m7.06640822 8.30720967v-3.97760463c0-.21120025-.14080016-.35200041-.35200041-.35200041-.21120024 0-.35200041.14080016-.35200041.35200041v3.97760463c0 .21120024.14080017.35200041.35200041.35200041.21120025 0 .35200041-.13200016.35200041-.35200041zm-2.38480277-3.97760463c0-.21120025-.14080017-.35200041-.35200041-.35200041-.21120025 0-.35200041.14080016-.35200041.35200041v3.97760463c0 .21120024.14080016.35200041.35200041.35200041.21120024 0 .35200041-.14080017.35200041-.35200041zm4.41760514-1.14400133c-.21120025 0-.35200041.14080016-.35200041.35200041v5.16560601c0 .70400082 0 .88000102-.07920009 1.1176013 0 .18480017-.10560013.27280027-.2552003.34320037-.1672002.1672002-.3432004.1672002-.89760105.1672002h-3.89840453c-.56320066 0-.73040085 0-.98560115-.2552003-.07920009-.07920007-.16720019-.16720017-.24640028-.32560035-.08800011-.1672002-.08800011-.40480048-.08800011-1.05600123v-5.16560601c0-.21120025-.14080016-.35200041-.35200041-.35200041-.21120024 0-.35200041.14080016-.35200041.35200041v5.32400619c0 .73040085.0792001 1.0296012.23760028 1.3288015.15840018.2288003.38720045.4664006.62480073.6248008.23760027.1584002.46640054.2288002 1.17040136.2288002h3.81920444c.69520081 0 .93280109-.0704 1.17040136-.2288002.30800036-.1584002.46640055-.3080004.62480073-.6160007.15840019-.31680041.23760028-.55440069.23760028-1.32880159v-5.32400619c-.02640003-.21120025-.1672002-.35200041-.37840044-.35200041zm1.58400181-1.59280186h-2.82480326v-.20240023c0-.31680037-.05280006-.56320066-.14960017-.7744009-.14960017-.22880027-.30800036-.38720045-.45760053-.45760054-.21120025-.10560012-.45760053-.15840018-.7744009-.15840018h-1.90960223c-.31680036 0-.56320065.05280006-.7744009.14960017-.22880026.14960018-.38720045.30800036-.45760053.45760054-.10560012.21120024-.15840018.45760053-.15840018.7744009v.20240023h-2.82480329c-.21120025 0-.35200041.14080017-.35200041.35200041 0 .21120025.14080016.35200041.35200041.35200041h10.34001199c.2112003 0 .3520005-.14080016.3520005-.35200041 0-.20240023-.1496002-.3432004-.3608005-.3432004zm-3.52880407 0h-3.2648038v-.20240023c0-.26400031 0-.42240049.10560012-.44000051.01760002-.02640003.03520004-.04400005.05280006-.07040009.02640003-.03520004.05280006-.0880001.11440013-.0880001.08800011-.07920009.17600021-.07920009.41360048-.07920009h1.90960223c.2640003 0 .42240049 0 .44000051.10560012.02640003.01760002.04400005.03520004.07040008.05280006.03520004.02640003.0880001.05280007.0880001.11440014.0792001.0880001.0792001.1760002.0792001.41360048v.19360022z" fill="#7c66ff"/></svg>