<svg height="12" viewBox="0 0 12 12" width="12" xmlns="http://www.w3.org/2000/svg"><path d="m.46674601 5.52134326c.22576942 0 .42308116-.1595626.45912902-.38405273.39652024-2.4489791 2.52710954-4.22634264 5.0674933-4.22634264 2.11350283 0 3.98607304 1.24118765 4.76772357 3.16141326.0948613.23376584.3661642.34693833.6052157.25417515.185928-.07235632.2959668-.24675275.2940942-.43042733v-.00185529-2.86642409c0-.25231878-.2087195-.45640113-.4667417-.45640113-.2580223 0-.4667177.20408235-.4667177.45640113v1.19851726c-.3680625-.44898026-.80252585-.84601137-1.29390765-1.17810796-1.01501638-.68460094-2.20458179-1.04823889-3.44156471-1.04823889-1.45327477 0-2.85721811.51020512-3.95571859 1.43599277-1.08521378.91651195-1.8061523 2.17996679-2.03003588 3.55844896-.03984171.2486091.13280572.48237494.3870333.52133566.02466401.00371058.04932786.00556587.07399186.00556587zm11.14050509.95917533c-.2542286-.03896102-.4932785.12987029-.5331199.37847818-.3965203 2.44897909-2.52710956 4.22634263-5.06749332 4.22634263-2.08884179 0-3.94242877-1.21150417-4.74115954-3.09461779-.03225278-.22077894-.22576943-.38961024-.46102579-.38961024-.25802221 0-.46671765.20408235-.46671765.45640113v.02597397.00742116 2.83487967c0 .2523188.20869544.4564011.46671765.4564011.2580222 0 .46671764-.2040823.46671764-.4564011v-1.15213415c.36806255.44898025.80252585.84601135 1.29390766 1.17810795 1.01501638.6846009 2.20458178 1.0482389 3.44156471 1.0482389 1.45327477 0 2.8572181-.5102051 3.95571859-1.4359928 1.08711055-.91651192 1.80805525-2.17996676 2.03192325-3.55844893.0398417-.25231878-.1328057-.48422978-.3870333-.52504686z" fill="#7c66ff"/></svg>