<svg height="14" viewBox="0 0 8 14" width="8" xmlns="http://www.w3.org/2000/svg"><g fill="#cbc8dc"><path d="m6.78584939 12.6626616c0 .2913219-.23616265.5274845-.52748452.5274845h-5.12855065-.00000002c-.29132187 0-.52748452-.2361626-.52748452-.5274845s.23616265-.5274845.52748452-.5274845h5.12855065-.00000003c.29132187 0 .52748457.2361626.52748457.5274845zm-3.00173376-5.05049254c-2.0438308 0-3.70681503-1.66298252-3.70681503-3.70681504 0-2.0438308 1.66298251-3.70681503 3.70681503-3.70681503 2.04417422 0 3.70681503 1.66298251 3.70681503 3.70681503 0 2.0438308-1.66298251 3.70681504-3.70681503 3.70681504zm0-5.30367483h-.00000009c-.88144517.0011624-1.59570935.71542492-1.59687182 1.59687181v-.00001182c.00096251.88152588.71533391 1.59590853 1.59685979 1.59688383h.00000007c.88152587-.00096907 1.59590166-.71534593 1.59687186-1.59687181v.00004287c-.00113871-.88144517-.71538199-1.59572824-1.59682888-1.59691488z"/><path d="m.53656585 5.66329234h6.50564239l-3.43744078 6.07979136z"/></g></svg>