<svg height="11" viewBox="0 0 9 11" width="9" xmlns="http://www.w3.org/2000/svg"><path d="m7.39729133 4.00684108h-.61578948v-1.23157895c0-1.53947368-1.23157895-2.77105263-2.77105263-2.77105263s-2.77105264 1.23157895-2.77105264 2.77105263v1.23157895h-.61578947c-.33868421 0-.61578948.27710527-.61578948.61578948v4.92631579c0 .33868421.27710527.61578945.61578948.61578945h6.77368421c.3386842 0 .61578947-.27710524.61578947-.61578945v-4.92631579c0-.33868422-.27710525-.61578948-.61578946-.61578948zm-2.98071238 3.16368524v.61578947c0 .24631579-.21552632.46184211-.46184211.46184211s-.46184211-.21552632-.46184211-.46184211v-.61578947c-.18473684-.15394737-.30789473-.36947369-.30789473-.61578948 0-.43105263.33868421-.76973684.76973684-.76973684.43105264 0 .76973684.33868421.76973684.76973684 0 .24631579-.12315789.46184211-.30789473.61578948zm1.4412387-3.16368524h-3.69473686v-1.23157895c0-1.01605263.83131579-1.84736842 1.84736843-1.84736842 1.01605263 0 1.84736843.83131579 1.84736843 1.84736842z" fill="#fff" transform="translate(.535 .43)"/></svg>