<svg height="16" viewBox="0 0 16 16" width="16" xmlns="http://www.w3.org/2000/svg"><g fill="none" transform="translate(2.96 1.68)"><path d="m8.40221394 2.40637021c.03477554.39846787.11974139.78410319.25489753 1.11986447.27296884.72333019 1.72880263 2.71248822 1.36484413 5.15372762-.36395841 2.6220719-3.00265711 4.3399811-5.73234543 3.8878998-2.72968832-.4520814-4.45849092-2.98373706-4.27651169-5.78664156.17190852-3.41650617 2.3737563-5.21929366 4.91805286-6.55167432.13112857-.06866855.29309614-.01803471.36176469.11309386.02406832.04596056.03427971.09791878.02939501.1495695-.0042514.04457557-.00752038.08462381-.00984242.12014136-.09472948 1.44896508.30552166 2.95335103 1.56982414 4.46076569.05343496.06370994.14839966.07203946.2121096.0186045.02887795-.02422058.04762128-.05839147.05252677-.09576136.00299998-.02315429.00620085-.04695123.00956382-.0713959.07847814-.57044005.27465709-1.61119293.71736419-2.30249193.06373975-.09466167.12773806-.18429985.19290352-.26916748.00953085-.01241241.01980993-.02547319.03083723-.03918235l.00005445.0000438c.05938098-.07382247.16736371-.08552962.24118618-.02614865.03642185.02929684.05931151.0721875.06337542.11875295z" fill="#ff607c"/><path d="m6.64105426 7.14226434c.01655978.18914614.05701971.37220088.12137978.53158124.12998515.34335294.82323933 1.28757352.64992579 2.44638972-.17331355 1.2446544-1.42983674 2.0601176-2.72968832 1.845522s-2.12309091-1.4163309-2.03643414-2.7468235c.0818612-1.62175926 1.13036014-2.47751281 2.34192994-3.10997199.06250064-.03262635.13961632-.00840845.17224267.05409219.01141151.02186045.01624732.04655815.01392294.07110808-.00194921.02095443-.00348934.03979029-.00458596.05651083-.04510928.68779989.14548651 1.40190714.74753531 2.11745207.02551935.03033017.07079432.03423011.10112449.00871076.01370968-.01153512.02260909-.02778096.02494904-.04554438.00139198-.01092789.00290688-.02215315.00449798-.03368193.03737055-.2707785.1307891-.76480677.341602-1.09295503.03035226-.04493434.06082765-.0874841.09185882-.12776937.00457908-.00594465.00952086-.0122026.01482533-.01877384l-.00004817-.00003889c.02834199-.03511038.0797803-.04059725.11489068-.01225526.01727822.01394741.02813516.03432679.03007182.0564473z" fill="#ffcb2f"/></g></svg>