<svg height="24" viewBox="0 0 24 24" width="24" xmlns="http://www.w3.org/2000/svg"><g fill="none" fill-rule="evenodd"><g transform="translate(9.419206 2.04)"><path d="m2.50872426 8.67545793c-.59054717-.80565395-1.3114826-2.56557801-.03671145-3.99918267 1.56910078-1.76308548 4.35473644-.94730848 4.39587358-.93718987.04114204.01011811 2.51979449.59064512 3.27870281 3.81200259.7380252 3.13408432-1.06969474 5.68638232-1.8608882 6.35164302-.57409082.481875-1.46845646 1.1869802-2.74006288 1.2160703-1.68809141.0379429-2.15077669-.8277883-2.29636627-2.1836144-.0550671-.5090679.03481259-1.3596205.02278639-2.0476573-.0126591-.688031-.43167591-1.75991372-.76334392-2.21207167zm-2.5084013-6.80821781.00000001-.00000072c-.01854984.98332756.76428001 1.79549999 1.74849907 1.8140268.98421907.01853303 1.79712783-.76358772 1.81567144-1.74691528.00042197-.02236882.00042198-.04474358.00000002-.06711241l-.00000001-.00000077c-.01854984-.98332756-.83145386-1.76544208-1.81567144-1.74691527-.95809038.01804096-1.73044501.78969273-1.74849907 1.74691527z" fill="#7c66ff" fill-rule="nonzero"/><path d="m4.32 1.31673803v.0000002c0 .72746505.58204267 1.31719132 1.30002951 1.31719132s1.30002951-.58972627 1.30002951-1.31719132v.00013929c0-.72729121-.58190453-1.31687752-1.29971979-1.31687752-.71770766 0-1.29956713.58941689-1.2997198 1.31659908zm3.11932635.64115254-.00000001.00000062c-.01568504.72746505.55364233 1.33007477 1.27162917 1.34596658.71798683.01589209 1.31274509-.56095102 1.32842989-1.28841606.0004135-.01918154.0004135-.03837001-.0000001-.05755169l.0000001.00000092c-.0221809-.7272912-.62206666-1.298658-1.33988192-1.27618525-.6866537.02149791-1.23833889.58046551-1.25955772 1.27618378zm2.44123405 2.12523209v-.00000018c0 .72729121.5819045 1.31687752 1.2997198 1.31687752s1.2997198-.58958631 1.2997198-1.31687752c0-.00000001 0-.00000002 0-.00000004v.00000002c0-.7272912-.5819045-1.31687752-1.2997198-1.31687752s-1.2997198.58958632-1.2997198 1.31687752z" fill="#7c66ff" fill-rule="nonzero"/><path d="m4.98292773 8.98182949c-.24019265-.31730526-.53341799-1.01044797-.01493162-1.57507041.63819878-.69438782 1.77119755-.37309562 1.78792922-.36911042.01673366.003985 1.02487346.23262444 1.33354346 1.50134989.30017625 1.23435309-.43507585 2.23957075-.75687716 2.50158245-.23349938.1897855-.59726381.4674898-1.114463.4789469-.68659571.0149437-.87478323-.3260228-.93399873-.8600124-.02239739-.2004954.01415929-.5354839.00926788-.80646585-.00514882-.27097966-.1755751-.69313862-.3104741-.87122016z" fill="#fff" opacity=".419759"/></g><g fill="#ab9eff" fill-rule="nonzero" transform="matrix(-.90630779 .42261826 .42261826 .90630779 9.9905 8.863362)"><path d="m1.75027274 6.00615505c-.41200965-.55428992-.91498786-1.76511767-.02561264-2.75143767 1.09472148-1.21300281 3.03818821-.65174823 3.06688855-.64478663.02870374.00696126 1.75799615.40636384 2.28746705 2.62265778.51490132 2.15625002-.74629864 3.91223104-1.29829407 4.36993043-.40052848.33152997-1.02450451.81664234-1.91167178.83665634-1.17773819.0261047-1.50054188-.56951836-1.602116-1.50232674-.03841891-.35023869.02428785-.93541886.01589748-1.40878822-.00883193-.47336529-.30116924-1.21082062-.53256553-1.52190529zm-1.75004742-4.68405385.00000001-.00000049c-.01294175.67652936.53321861 1.23530399 1.21988307 1.24805043.68666446.01275073 1.25381011-.52534835 1.26674751-1.2018777.0002944-.01538976.00029441-.03078359.00000002-.04617334l-.00000001-.00000054c-.01294175-.67652935-.58008408-1.21462415-1.26674751-1.2018777-.66843515.01241218-1.20728722.5433086-1.21988307 1.2018777z"/><path d="m3 .9070862v.00000014c0 .50114259.4022942.90739846.89854981.90739846s.89854981-.40625587.89854981-.90739846v.00009595c0-.50102283-.40219873-.90718229-.89833574-.90718229-.49606265 0-.89823022.40604275-.89833575.90699048zm2.15600498.44168286-.00000001.00000043c-.01084113.50114259.38266455.91627373.87892016.92722142.49625561.01094789.90733853-.38643293.91817945-.88757551.00028586-.01321395.00028585-.02643267-.00000002-.03964672l.00000002.00000064c-.01533086-.50102283-.42995781-.89463107-.92609482-.87914984-.47459888.01480967-.85591071.39987623-.87057666.87914882zm1.68732354 1.46404877v-.00000012c0 .50102283.40219872.90718229.89833574.90718229s.89833574-.40615946.89833574-.90718229c0-.00000001 0-.00000002 0-.00000003v.00000002c0-.50102283-.40219872-.90718229-.89833574-.90718229s-.89833574.40615946-.89833574.90718229z"/></g></g></svg>