<svg height="61" viewBox="0 0 60 61" width="60" xmlns="http://www.w3.org/2000/svg" xmlns:xlink="http://www.w3.org/1999/xlink"><defs><linearGradient id="a" x1="20.613306%" x2="80.112413%" y1="8.718274%" y2="88.613415%"><stop offset=".00696790541" stop-color="#ba7cff"/><stop offset="1" stop-color="#7c66ff"/></linearGradient><circle id="b" cx="23.76" cy="23.76" r="19.008"/><linearGradient id="c" x1="21.209539%" x2="89.58603%" y1="9.749188%" y2="91.865442%"><stop offset="0" stop-color="#5045d1"/><stop offset="1" stop-color="#692dc7"/></linearGradient><linearGradient id="d" x1="100%" x2="0%" y1="35.797241%" y2="78.19799%"><stop offset="0" stop-color="#fff"/><stop offset="1" stop-color="#ff9fc0" stop-opacity="0"/></linearGradient><linearGradient id="e" x1="21.209539%" x2="89.124027%" y1="9.749188%" y2="91.310602%"><stop offset="0" stop-color="#322b8b"/><stop offset="1" stop-color="#4f2296"/></linearGradient><linearGradient id="f" x1="42.33599%" x2="25.92904%" y1="69.602064%" y2="41.623519%"><stop offset="0" stop-color="#f8ebff"/><stop offset="1" stop-color="#ff5385"/></linearGradient><linearGradient id="g"><stop offset="0" stop-color="#fff"/><stop offset="1" stop-color="#fff" stop-opacity="0"/></linearGradient><linearGradient id="h" x1="36.726237%" x2="32.000255%" xlink:href="#g" y1="50%" y2="33.785208%"/><linearGradient id="i" x1="54.777854%" x2="41.472597%" y1="35.660175%" y2="64.102556%"><stop offset="0" stop-color="#6602ff"/><stop offset="1" stop-color="#e700ff" stop-opacity="0"/></linearGradient><linearGradient id="j" x1="50%" x2="50%" y1="0%" y2="100%"><stop offset="0" stop-color="#fff"/><stop offset="1" stop-color="#ff9dc2" stop-opacity="0"/></linearGradient><linearGradient id="k" x1="50%" x2="50%" xlink:href="#g" y1="0%" y2="100%"/><mask id="l" fill="#fff"><use fill="#fff" fill-rule="evenodd" xlink:href="#b"/></mask></defs><g fill="none" fill-rule="evenodd" transform="translate(0 .31444)"><g transform="translate(6.3 6.3)"><circle cx="23.76" cy="23.76" fill="url(#a)" r="21.384" stroke="#fff" stroke-width="4.752"/><use fill="#d8d8d8" opacity="0" xlink:href="#b"/><g mask="url(#l)" opacity=".144834" stroke="#979797" stroke-width=".792"><g transform="translate(-22.317436 -24.597735)"><circle cx="57.561436" cy="64.593735" r="20.196"/><circle cx="57.561436" cy="31.329735" r="20.196"/><circle cx="34.593436" cy="64.593735" r="20.196"/><circle cx="34.593436" cy="31.329735" r="20.196"/><circle cx="47.706872" cy="68.107469" r="20.196" transform="matrix(.8660254 .5 -.5 .8660254 40.445243 -14.728765)"/><circle cx="64.338871" cy="39.3" r="20.196" transform="matrix(.8660254 .5 -.5 .8660254 28.269774 -26.904234)"/><circle cx="27.816" cy="56.623469" r="20.196" transform="matrix(.8660254 .5 -.5 .8660254 32.038372 -6.321894)"/><circle cx="44.448" cy="27.816" r="20.196" transform="matrix(.8660254 .5 -.5 .8660254 19.862903 -18.497363)"/></g></g><circle cx="23.76" cy="23.76" fill="url(#c)" mask="url(#l)" r="9.504" stroke="#a798ff" stroke-width="1.584"/><path d="m29.6019607 31.2726304c-.1819539.1989649-.4481892.3742234-.7987058.5257757-.3505167.1515523-.6135223.2583624-.7890171.3204303z" style="stroke-width:1.8;opacity:.6;stroke-linecap:round;stroke-linejoin:round;stroke:url(#d);mask:url(#l)"/><circle cx="23.76" cy="23.76" fill="url(#e)" mask="url(#l)" r="3.96"/><path d="m41.3702519 4.43748546c-14.1504772 3.8426292-16.8338254 8.99396894-20.6814667 14.25635014-3.8476412 5.2623812-1.5136995 9.2828185-7.4924611 12.5787948-3.98584112 2.1973176-10.48461581 1.3807275-19.4963241-2.4497704l8.76047615-24.38537454 26.34762315-9.27319473c17.8084198 3.62037702 21.9958041 6.71144193 12.5621526 9.27319473z" fill="url(#f)" mask="url(#l)" opacity=".1"/><path d="m39.0985842 4.752c-12.8005035 1.12756-20.8173649 2.9206502-24.0505842 5.3792706-4.849829 3.6879306-11.91116901 12.3687294-12.64790617 18.9706758-.49115811 4.4012976.54166537-4.5209091 3.09847043-26.76662031l17.66119094-3.47184837z" fill="url(#h)" mask="url(#l)" opacity=".1"/><path d="m44.3439729 23.6195745c-12.8005035 1.12756-20.8173649 2.9206502-24.0505842 5.3792706-4.849829 3.6879306-11.911169 12.3687294-12.64790617 18.9706758-.49115811 4.4012977.54166537-4.5209091 3.09847047-26.7666203l17.6611909-3.4718484z" fill="url(#h)" mask="url(#l)" opacity=".1" transform="matrix(-1 0 0 -1 51.870736 66.79102)"/><path d="m18.1955164 28.9718506c.5405965 1.1618291 1.4878151 1.8790542 2.7161203 2.1307318 1.2283051.2516775 3.1979273-.0053642 3.8510084-.5289408s.6978103-2.0701587-.7250255-1.8359748c-1.4228358.2341838-2.2600245.4711113-2.8133505 0-.5533259-.4711114-1.2171078-1.8390462-2.0609583-1.7316878-.8438506.1073584-1.5083909.8040425-.9677944 1.9658716z" fill="url(#i)" mask="url(#l)" opacity=".3"/></g><circle cx="22.65" cy="23.25" fill="url(#j)" opacity=".9" r="4.35" transform="matrix(.70710678 -.70710678 .70710678 .70710678 -9.806201 22.825736)"/><circle cx="28.8" cy="28.8" fill="url(#k)" opacity=".1" r="2.1" transform="matrix(.62932039 -.77714596 .77714596 .62932039 -11.706231 33.057376)"/></g></svg>