
<svg height="32" viewBox="0 0 32 32" width="32" xmlns="http://www.w3.org/2000/svg"><g fill="none" fill-rule="evenodd"><path d="m24.352 25.28h2.6339861c.1060177.0000379.1919621.0859823.1919621.192 0 .0082857-.0005365.0165627-.001606.0247791-.106649.819289-.3931202 1.4620803-.8594137 1.9283738-.4663906.4663906-1.1126784.75621-1.9388634.8694582-.1050525.0143906-.2018867-.059097-.2162865-.1641482-.0011843-.0086406-.0017786-.0173518-.0017786-.0260731v-2.6323898c0-.1060387.0859613-.192.192-.192z" fill="#7c66ff"/><path d="m10.752 3.84h7.136c3.2871988 0 5.952 2.66480117 5.952 5.952v14.816c0 .1060387-.0859613.192-.192.192h-7.136c-3.2871988 0-5.952-2.6648012-5.952-5.952v-14.816c0-.10603867.0859613-.192.192-.192z" fill="#7c66ff"/><circle cx="16.88" cy="10.16" fill="#a999ff" r="2.96"/><circle cx="16.88" cy="10.16" fill="#fff" r="2.16"/><path d="m4.8573307 6.54904116c1.13414521-1.23724999 2.79856953-2.07244437 4.99327293-2.50558316.10410898-.02077183.20520377.04699672.22575887.15114849.0024192.01225834.0036375.02472337.0036375.03721816v7.25617535c0 .1060387-.08596133.192-.192.192h-6.65068746c-.10615387.0002086-.19220859-.0858461-.19220859-.192 0-.0022288.00003877-.0044573.00011628-.0066847.07127077-2.04803351.67530759-3.69212488 1.81211047-4.93227414z" fill="#ff607c"/><path d="m7.11257426 13.6469407c.62669237-.7018959 1.53834785-1.1819722 2.73496646-1.440229.10363701-.0223201.20577398.0435559.22813908.1471832.002872.0133072.0043202.0268821.0043202.0404956v4.0536095c0 .1060387-.08596133.192-.192.192h-3.60999651c-.10594679-.0001664-.19183363-.0860532-.19183363-.192 0-.0029654.00006876-.0059304.00020622-.0088927.053611-1.1552604.39567706-2.0859826 1.02619818-2.7921666z" fill="#ffcb2f" transform="matrix(1 0 0 -1 0 28.8)"/><path d="m17.792 13.76h6.208c2.1207734 0 3.84 1.7192266 3.84 3.84v3.648c0 .1060387-.0859613.192-.192.192h-6.208c-2.1207734 0-3.84-1.7192266-3.84-3.84v-3.648c0-.1060387.0859613-.192.192-.192z" fill="#e4dfff" transform="matrix(.94551858 -.32556815 .32556815 .94551858 -4.492182 8.355782)"/></g></svg>