<svg height="33" viewBox="0 0 32 33" width="32" xmlns="http://www.w3.org/2000/svg"><g fill="none" fill-rule="evenodd"><g transform="translate(15.2 3.99444)"><path d="m5.44 8.64c-2.08 2.885681-2.6 4.9303857-1.56 6.1341142 1.04 1.2037284 1.56 2.572357 1.56 4.1058858" stroke="#cbc8dc" stroke-linecap="round" stroke-linejoin="round" stroke-width=".96" transform="matrix(-1 0 0 1 8.8 0)"/><path d="m5.12 0c2.82769792 0 5.12 2.25648486 5.12 5.04s-2.29230208 5.04-5.12 5.04-5.12-2.25648486-5.12-5.04 2.29230208-5.04 5.12-5.04zm-4.02885246 4.79213115c-.27813422 0-.50360656.22194933-.50360656.4957377 0 .27378838.22547234.49573771.50360656.49573771s.50360656-.22194933.50360656-.49573771c0-.27378837-.22547234-.4957377-.50360656-.4957377zm3.03075049-4.01312606-.08976975.01398383c-1.50142131.37162564-2.70385052 1.49514094-3.16170057 2.9485822-.08237677.26150439.06619979.53923171.33185504.62032135.26565525.08108963.54779095-.06516542.63016772-.32666981.35389233-1.12342829 1.28510204-1.99352389 2.44529084-2.28068906.26973789-.06676441.4334213-.33613677.36559713-.60166001-.06782416-.26552323-.34147228-.42664909-.61121016-.35988467z" fill="#ebe8f6"/></g><g transform="translate(18.4 10.87444)"><path d="m5.76 9.28c-.64 2.119172-.8 3.620752-.48 4.5047401s.48 1.8890747.48 3.0152599" stroke="#cbc8dc" stroke-linecap="round" stroke-linejoin="round" stroke-width="1.28" transform="matrix(-1 0 0 1 10.88 0)"/><circle cx="5.44" cy="5.44" fill="#e0ddef" r="5.44"/><path d="m1.17439356 5.16250327c.29513742 0 .53439357.24120586.53439357.53874836 0 .29754251-.23925615.53874837-.53439357.53874837-.29513741 0-.53439356-.24120586-.53439356-.53874837 0-.2975425.23925615-.53874836.53439356-.53874836zm3.76934717-3.9550029c.07197047.28856027-.10171941.58130363-.3879472.65386058-1.23111468.31207989-2.21925208 1.25766579-2.59477892 2.47856375-.08741272.28419275-.38679624.44313703-.6686918.35501198-.28189557-.08812504-.43955507-.38994825-.35214236-.674141.48583983-1.57954316 1.7617772-2.80053569 3.35498497-3.20440391.28622779-.07255696.57660485.10254832.64857531.3911086z" fill="#fff" fill-rule="nonzero"/></g><g transform="translate(2.88 4.47444)"><path d="m9.12 15.84c-.8 2.3897045-1 4.0829756-.6 5.0798133.4.9968376.6 2.1302332.6 3.4001867" stroke="#cbc8dc" stroke-linecap="round" stroke-linejoin="round" stroke-width="1.92"/><path d="m9.12 0c5.0368369 0 9.12 4.08316308 9.12 9.12 0 5.0368369-4.0831631 9.12-9.12 9.12-5.03683692 0-9.12-4.0831631-9.12-9.12 0-5.03683692 4.08316308-9.12 9.12-9.12zm-7.17639344 8.67147541c-.49542658 0-.89704918.4016226-.89704918.89704918 0 .49542661.4016226.89704921.89704918.89704921s.89704918-.4016226.89704918-.89704921c0-.49542658-.4016226-.89704918-.89704918-.89704918zm6.32734004-6.58532319c-.1208118-.48047061-.6082475-.77203169-1.08871811-.65121989-2.6744067.67246544-4.81623373 2.70549314-5.63177914 5.33552969-.14673362.47319842.11791838.97575263.5911168 1.12248626.47319842.14673362.97575263-.11791838 1.12248626-.5911168.6303707-2.03287023 2.289088-3.60732894 4.3556743-4.12696115.48047061-.1208118.77203169-.6082475.65121989-1.08871811z" fill="#cbc8dc"/></g></g></svg>