<svg height="18" viewBox="0 0 21 18" width="21" xmlns="http://www.w3.org/2000/svg"><path d="m17.2811157.54964948-14.85023214 6.12438603s-3.57891432 1.60873253-2.05164203 4.43418679c.6007296 1.1098218 1.07418562 1.2625501 2.10255146 1.8429147l7.65166911 4.3069132s3.6145569.1934552 4.9178221-3.1512889l-5.7527489-1.2065488 2.4131063-.295273 1.8530961-.2240007c2.7847435-.3410928 4.3323723-1.0538205 5.1112892-4.02692849l-8.1658337-.18327331 4.2814756-1.81745993c1.1250951-.47854782 3.9607351-1.44582278 4.5563686-2.22473111.493819-.64654723 1.2167303-2.70327463 1.064002-3.51783417-.1527276-.7483661-.8909108-.85527463-3.1309216-.0610911z" fill="#ffcb2f" transform="matrix(-1 0 0 1 20.43282 0)"/></svg>