<svg height="16" viewBox="0 0 35 16" width="35" xmlns="http://www.w3.org/2000/svg" xmlns:xlink="http://www.w3.org/1999/xlink"><linearGradient id="a" x1="0%" x2="99.297931%" y1="41.904628%" y2="56.112333%"><stop offset="0" stop-color="#a882ff"/><stop offset="1" stop-color="#645bff"/></linearGradient><linearGradient id="b" x1="0%" x2="99.297931%" y1="41.904628%" y2="56.112333%"><stop offset="0" stop-color="#e8deff"/><stop offset="1" stop-color="#bab6ff"/></linearGradient><g fill="none" fill-rule="evenodd"><rect fill="url(#a)" height="15.2" rx="7.6" stroke="url(#b)" stroke-width=".8" width="34.2" x=".4" y=".4"/><g fill="#fff" transform="translate(4.794521 3.12)"><path d="m8.51515616 8.576h1.05230404c.04235949.00010135.07669865.03444051.07669865.0768 0 .00330653-.00021382.00660961-.00064013.00988855-.0426085.32772661-.15706719.58485082-.34337606.77137262-.18630375.18651666-.44445372.3024348-.77444993.34775441-.04205698.00586408-.08084412-.02355591-.08662159-.06562479-.0004761-.00346668-.00071498-.00696182-.00071498-.01046105v-1.05292974c0-.04241547.03438454-.0768.0768-.0768z"/><path d="m5.92970228 0c1.31487954 0 2.3808 1.06592047 2.3808 2.3808v5.9264c0 .04241547-.03438453.0768-.0768.0768h-2.84833607c-1.31487953 0-2.3808-1.06592047-2.3808-2.3808v-5.9264c0-.04241547.03438453-.0768.0768-.0768zm-.40002191 1.344c-.65315868 0-1.18264841.53009486-1.18264841 1.184s.52948973 1.184 1.18264841 1.184c.65315867 0 1.1826484-.53009486 1.1826484-1.184s-.52948973-1.184-1.1826484-1.184z"/><path d="m.72610245 1.08361646c.45304865-.49479999 1.11788119-.82884273 1.99449762-1.00212821.04178145-.00876074.08244004.01847651.09071807.06035339.00097583.00493656.00146725.00995661.00146725.01498869v2.90236967c0 .04241547-.03438453.0768-.0768.0768h-2.65687579c-.04256474.00027029-.07707029-.03423525-.07707029-.0768 0-.00089267.00001551-.00178527.00004652-.0026774.02847633-.81921176.2698152-1.47684714.72401662-1.97290614z"/><path d="m1.62717008 3.92277627c.25033876-.2807.61448535-.47270906 1.09243975-.57602719.04150675-.00912454.08245917.01726973.09143837.0588079.00115484.00534234.00173719.01079253.00173719.01625827v1.62138475c0 .04241547-.03438453.0768-.0768.0768h-1.44257468c-.04215823-.00046576-.07633424-.03464177-.07633424-.0768 0-.00117843.00002729-.0023567.00008185-.00353387.02141642-.4621149.15808701-.83441152.41001176-1.11688986z" transform="matrix(1 0 0 -1 0 8.448)"/><path d="m5.89444355 3.96887852 2.47920567-.0008721c.84761047-.00029816 1.53497622.68658419 1.53527438 1.53419466.00000013.00035975.00000013.0007195 0 .00107924l-.00051276 1.45901415c-.00006893.04239436-.03443263.07675808-.07682699.07682701l-2.47920567.0008721c-.84761047.00029816-1.53497623-.68658419-1.53527439-1.53419466-.00000012-.00035975-.00000012-.0007195 0-.00107924l.00051277-1.45901415c.00006893-.04239436.03443263-.07675808.07682699-.07682701z" transform="matrix(.94551858 -.32556815 .32556815 .94551858 -1.363539 2.859813)"/></g></g></svg>