<svg height="18" viewBox="0 0 21 18" width="21" xmlns="http://www.w3.org/2000/svg"><path d="m17.6083779.54964948-14.85023211 6.12438603s-3.57891432 1.60873253-2.05164204 4.43418679c.60072961 1.1098218 1.07418563 1.2625501 2.10255147 1.8429147l7.65166908 4.3069132s3.6145569.1934552 4.9178221-3.1512889l-5.75274887-1.2065488 2.41310637-.295273 1.8530961-.2240007c2.7847434-.3410928 4.3323722-1.0538205 5.1112891-4.02692849l-8.1658337-.18327331 4.2814757-1.81745993c1.125095-.47854782 3.960735-1.44582278 4.5563686-2.22473111.4938189-.64654723 1.2167303-2.70327463 1.064002-3.51783417-.1527277-.7483661-.8909108-.85527463-3.1309216-.0610911z" fill="#ff607c" transform="matrix(-1 0 0 1 21.087344 0)"/></svg>