<svg height="16" viewBox="0 0 35 16" width="35" xmlns="http://www.w3.org/2000/svg" xmlns:xlink="http://www.w3.org/1999/xlink"><linearGradient id="a" x1="2.066672%" x2="94.846746%" y1="42.391008%" y2="59.196944%"><stop offset="0" stop-color="#ff7380"/><stop offset="1" stop-color="#fd4ab4"/></linearGradient><linearGradient id="b" x1="9.744333%" x2="97.98475%" y1="41.519346%" y2="59.601369%"><stop offset="0" stop-color="#ffe9f5"/><stop offset="1" stop-color="#ff9fcd"/></linearGradient><g fill="none" fill-rule="evenodd"><rect fill="url(#a)" height="15.2" rx="7.6" stroke="url(#b)" stroke-width=".8" width="34.2" x=".4" y=".4"/><path d="m.17186802 8.42157153v.00000005c0 .1667145.13580257.30186371.30332303.30186371.16752045 0 .30332303-.13514921.30332303-.30186371s-.13580258-.30186372-.30332303-.30186372c-.16752046 0-.30332303.13514922-.30332303.30186372zm8.77718575-3.19909127c.01372233-.23123968-.17226322-.4226575-.30160016-.59511828-.16834428-.22451415-.33671283-.44900416-.50503285-.67350624l-.27006669-.36014756c-.03909227-.05211376-.07563663-.10392564-.10583547-.161159-.00389467-.01132593-.02407172-.05974487-.02896128-.07507955-.01073764-.03378458-.01896376-.06832987-.02642551-.10295967l-.00000007-.00000034c-.0028314-.01350151-.00535964-.02706413-.00758285-.04067794l-.00000001-.00000002c-.00010037-.00088833-.00018935-.0017779-.00026692-.00266848-.00428292-.04092064-.00532635-.08210693-.00495023-.12322077.00014559-.01531053.00467117-.06230467.00550834-.07767557l-.00000003.00000017c.0038104-.01852646.008221-.03692554.01322488-.05516861.0039068-.01433249.0088449-.02837519.01362527-.04242997.01287303-.03775711.0257218-.0755263.03860696-.11328341l.15761878-.46258803.3197874-.93844599c.01235132-.03625987.0247269-.07202469.03308648-.10954031.0224459-.10088285.02321028-.19353086.00097063-.29429297-.0255398-.11569832-.10320262-.20121028-.19452712-.27019217-.16566291-.12516477-.38815642-.08294008-.56949506-.02173419l-.97506222.32906767-.44077689.14874636-.09178555.03097122c-.03149706.0106256-.06349158.01861896-.09610487.02511506l-.00208686.00039846c-.01138068.00097804-.02280989.00176289-.03420271.00246321-.04093647.00248736-.08203068.0013765-.12293076-.00090559h-.00000002c-.01296621-.00080466-.02591435-.00187544-.03883615-.00321169h-.00000003c-.00167675-.00023748-.00335118-.00049105-.00502302-.0007607-.03530681-.00585615-.07014042-.014091-.10474351-.02317106-.03144854-.00825899-.06229042-.01863102-.09278045-.02982413-.01904869-.00885064-.03757566-.01881215-.05589637-.02903929-.03582852-.02000753-.06833261-.04469998-.10114003-.06906642l-.32026059-.23785653-.86893555-.64532425c-.10793447-.08016293-.21414606-.16700308-.35179406-.1912367-.21110069-.03716546-.43076723.04090857-.52922589.24205848-.05197743.10618358-.07233647.21828369-.07081986.33615543l.0117568.91608392c.00226886.17561224.00450132.35122447.00675804.52682463.00100703.07879851.00567821.1591667.00162581.23829122-.00217179.00933363-.00954861.06244957-.01373447.07957128-.00845664.03446076-.01971599.0681729-.03171545.1015228-.00133462.00370689-.00350642.00918873-.00579954.01482755-.00468331.00990113-.00942728.01975396-.01428045.02955849-.01875749.0380952-.04045116.07468108-.06329745.1104459-.00900263.01409099-.01866043.02777146-.02833037.04142777-.02117195.02554975-.04424876.04942113-.06815062.07244729l-.00000002.00000003c-.00816056.00775752-.01654797.01527515-.02515155.02254318-.08311051.05847704-.16618462.11695408-.249283.17544319l-.90844034.63933527c-.06960657.0490106-.13992898.09717597-.20872265.1473095-.19349583.14095828-.31362388.33529814-.26497086.57979567.03965038.19921798.2411418.32712367.42093956.38275112l.9128082.28238746c-.00783787.00782431-.01565147.01567277-.02350147.02344878l-.32908122.32749798-.00177141.00176288c-.11686429.11631413-.11685216.31060569 0 .42689567.10988787.10934711.28907899.11585529.40722937.01952454l.50116245-.4987513.00000001-.00000001c.00670828-.00657742.01388977-.01265896.0214874-.01819635.00211113-.00195607.00416159-.00396045.00629699-.00590445.01425618-.00967172.02943447-.01787033.04457635-.02600858l.00100703-.00055543c.01597906-.0053128.03233424-.00949059.04873795-.01331823h.00000001c.01256873-.00057743.02515288-.0007506.0377329-.00051921.0018078.00003622.0038704.00013282.00601793.00026564.00829891.001944.01653717.00412949.02477542.00632706.00313029.00083315.0069643.0020889.01091963.0034654.00565394.00310316.01121082.00630291.01674343.00952682.00266924.00163006.00535062.0032239.00800773.00484189l.00157728.00105049c.00399173.00377933.00794706.00763111.01181746.01147082l.00048532.00048298h.00000001c.01243685.00769894.02395936.01677216.0343483.02704699l.15442782.15369693c.01033904.01034548.01946472.02182535.02720201.03421927l.00425865.00423817c.00319096.00316353.00732829.00780015.01132002.01240056.00033972.00055543.00070371.00112293.00104343.00170251.00309389.00505923.00615139.01013054.00912396.015226.00072797.00123161.00141955.00246321.00212326.00370689.00071584.00130405.00145595.00272885.00219606.00418987.00354281.01132593.00651537.02285712.00925741.03438831.00058238.01284732.00053385.02574294.00026693.03860234v-.00000008c-.00002877.00138571-.00008945.00277057-.00018198.00415352v-.00000001c-.00222268.00965687-.00461728.01927376-.00718269.0288461-.00126182.00467285-.00285124.0092491-.00435572.01383743-.00328802.00753452-.00752241.01685607-.01078617.02289334-.00253578.00466078-.00542341.00914044-.00821398.01365632-.00717056.00932155-.02204552.02906344-.03004112.0372862-.35280108.3633111-.71847519.71501855-1.0774398 1.07225614l-.86724908.86307666c-.00021839-.00047091-.00038825-.00094181-.00059451-.00140065l-.00002427-.00007244-.6859711.68267082c-.07581862.07544178-.19872512.07544178-.27453161 0l-.15442782-.15369693c-.07581862-.07544178-.07581862-.19776903 0-.27321081l1.19481369-1.18907739c.09679644-.11758196.0902568-.29591096-.01963107-.40527015-.1168643-.11630205-.31210727-.11631413-.42895943.00001207-.19339877.19244416-.3867854.38492454-.58018416.57738077l.00007143-.00007108c-.12693947.12631547-.25387045.25263819-.38079173.37897178-.03302581.03284277-.06565124.06513011-.09768215.09784006-.00550835.00491435-.01102883.00981661-.01641584.01482755l-.00000001.00000001c-.01096058.01015323-.02168093.0205603-.03215224.03121271-.14669915.15030398-.22299096.3402004-.2483973.5450572-.04486754.36192251.1747626.74541018.50735023.89617299.34611585.15688461.74197667.10087078 1.02217435-.15630503.00633225-.00536157.01240943-.01101459.01821151-.01694059.00222033-.00216134.00429506-.00437098.00643045-.00658063.00377334-.00386385.00738895-.00783638.01088323-.01188135l.00000004-.00000004c.02251397-.02432913.04371953-.04982587.06352798-.0763836l.00000004-.00000006c-.02145101.02935951-.04459067.05745952-.06930289.08415925-.00349428.00404497-.00713415.00798127-.01087109.01186928.0018806-.00183533.00378547-.00362237.00565394-.00548185l.00353224-.00351519.69025403-.68689692c.02652256-.02639496.05357898-.05264503.08055046-.07907622l.19451499.62274485.08789089.28143357c.04756105.15223591.13420224.30188787.27982156.37990153.20951128.112245.44505981.04329933.60546917-.11822191.08019861-.08075458.14538879-.19025866.21140402-.28311194l.30566468-.43017994c.17718918-.24931528.3543541-.49865471.53153115-.74796999.00057025-.00079692.00114049-.00158176.00169861-.00239076.01071337-.0125696.02223964-.02440266.03374165-.03622364.01187813-.01220737.02449637-.02366612.03706608-.03510072.00661244-.00603727.02310108-.01922268.03326847-.02738507.05048508-.03529391.10448871-.06560103.15982697-.09256349.00425865-.00206475.01115015-.00514376.01789606-.00810202l.00000017-.00000007c.0090511-.00336932.01813096-.00666177.02723841-.00987698.03881322-.01383743.07869413-.02441474.11891476-.03341028.00624846-.00138857.01253331-.0025598.0188303-.00375518.00594513-.0007607.01202372-.00144895.01660997-.00176289.01624598-.00121953.03261329-.00141272.04889567-.0012316l-.00000628-.00000008c.05645824.00073412.11291673.0014425.16937558.00212512.36574691.00467285.73148169.00932155 1.09721646.01395818l.37231083.00475737c.08021074.00101426.16116159-.00527658.23890935-.02583954.21563841-.05708846.35446329-.23614194.36743339-.45464297zm-5.20044237-4.55048178c-.16898514-.1259-.07265658-.0736.00646878.0023-.00210938-.0007-.00431252-.0017-.00646878-.0023zm-.72894225 2.12193015c-.00998859.00957315-.0198483.01932359-.02977245.02898539.09724379-.10344328.15169773-.14767481.02977245-.02898539zm.44655241 2.43526563-.0006-.0003.0123.0016c.00034037.0002231.00067385.00045654.00099998.00069999-.0042-.0009-.0082-.0013-.0127-.002zm3.96528529-.35326556-.38946268-.00493625c-.25450223-.00325001-.50902336-.00650002-.76351615-.00973119-.18600638-.00237392-.36365155.05086029-.52481047.14251998-.14125261.08031762-.24617881.19213678-.33857735.32244802l-.46289967.65264898c-.06173129.0870343-.12345314.17407803-.18520333.26112176l-.00239027-.00766814-.1156021-.37084961-.2266504-.72705064.00000002.00000006c-.01444772-.04632611-.03217198-.09157236-.05303941-.13539822-.01553202-.03944286-.03595796-.07717123-.06236429-.11205467-.00024564-.00034855-.00053852-.00066884-.00078416-.00100797l-.00000001-.00000002c-.05370547-.0832708-.11924702-.15832915-.19457545-.22282817l-.00000004-.00000003c-.03201354-.02741906-.06573693-.05278854-.1009676-.07595602l-.00000001-.00000001c-.01551748-.01214278-.03160626-.02354175-.04821163-.03415807-.03468252-.02208122-.07184034-.03906605-.11042476-.05166101-.04598197-.0201689-.09358895-.03765301-.14302878-.05297045l-.77867971-.24134851-.2933323-.09091548.0100807-.00710292.32638036-.23015718.60793137-.42867152c.0502051-.03540155.09948432-.07233862.14284928-.1159641.10606936-.10669451.17576507-.23565865.23270638-.37280904.05172617-.12457427.06399874-.25757973.0623076-.39080185l-.01043026-.81302045-.00406252-.31760598.02930678.02179861c.10309334.07671906.20617723.15340986.30926112.23012892l.00019614.00014595c.25827187.19218388.61777588.23369922.91954497.13165835.25153566-.08503721.50306186-.17010267.75460697-.25514929l.34451995-.11648222c-.03798922.11166844-.07595954.2233463-.11396765.33501473l-.25746881.75706377c-.04557572.13400401-.06618116.27339644-.05146164.41510626.01526749.14695695.05179231.28503995.12194151.41606714.02474353.04624433.05871747.08750532.0900744.12938805l.19297879.25786233.41629415.55622261.07381491.09863072c-.00646223-.00012246-.0129528-.00020725-.01943393-.00031087z" fill="#fff" fill-rule="nonzero" transform="translate(5.273973 3.44)"/></g></svg>