<svg height="11" viewBox="0 0 8 11" width="8" xmlns="http://www.w3.org/2000/svg" xmlns:xlink="http://www.w3.org/1999/xlink"><defs><linearGradient id="a" x1="28.10671%" x2="71.315448%" y1="0%" y2="98.680321%"><stop offset="0" stop-color="#ffd24c"/><stop offset="1" stop-color="#ff9b29"/></linearGradient><path id="b" d="m13.97 15.95c.1686667 0 .253-.077.253-.231v-1.32c0-.176-.0843333-.264-.253-.264h-4.191v-2.211h4.147c.1686667 0 .253-.088.253-.264v-5.104c0-.154-.0843333-.231-.253-.231h-5.819c-.16866667 0-.253.077-.253.231v1.32c0 .176.08433333.264.253.264h4.191v2.068h-4.147c-.16866667 0-.253.0843333-.253.253v5.258c0 .154.08433333.231.253.231z"/></defs><g fill="none" transform="translate(-7 -6)"><use fill="#fff" xlink:href="#b"/><use fill="url(#a)" xlink:href="#b"/></g></svg>