<svg height="11" viewBox="0 0 8 11" width="8" xmlns="http://www.w3.org/2000/svg" xmlns:xlink="http://www.w3.org/1999/xlink"><defs><linearGradient id="a" x1="24.714199%" x2="74.618418%" y1="0%" y2="98.680321%"><stop offset="0" stop-color="#ffd24c"/><stop offset="1" stop-color="#ff9b29"/></linearGradient><path id="b" d="m13.332 16.016c.1613333 0 .242-.088.242-.264v-2.277h.781c.154 0 .231-.0843333.231-.253v-1.309c0-.1686667-.077-.253-.231-.253h-.781v-5.203c0-.176-.0806667-.264-.242-.264h-1.386c-.1686667 0-.253.088-.253.264v5.203h-2.167l.462-4.983c0-.18333333-.07333333-.275-.22-.275h-1.276c-.154 0-.242.08433333-.264.253l-.627 6.567c-.00733333.1686667.066.253.22.253h3.872v2.277c0 .176.0843333.264.253.264z"/></defs><g fill="none" transform="translate(-7 -6)"><use fill="#fff" xlink:href="#b"/><use fill="url(#a)" xlink:href="#b"/></g></svg>