<svg height="11" viewBox="0 0 8 11" width="8" xmlns="http://www.w3.org/2000/svg" xmlns:xlink="http://www.w3.org/1999/xlink"><defs><linearGradient id="a" x1="28.943328%" x2="70.500911%" y1="0%" y2="98.680321%"><stop offset="0" stop-color="#ffd24c"/><stop offset="1" stop-color="#ff9b29"/></linearGradient><path id="b" d="m13.9315 15.95c.1686667 0 .253-.077.253-.231v-5.192c0-.1613333-.0843333-.242-.253-.242h-4.114v-2.024h4.312c.1686667 0 .253-.088.253-.264v-1.309c0-.16133333-.0843333-.242-.253-.242h-4.312v-.209c0-.044-.0165-.09166667-.0495-.143s-.08983333-.077-.1705-.077h-1.43c-.154 0-.231.08066667-.231.242v5.489c0 .1613333.077.242.231.242h4.136v2.145h-4.136c-.154 0-.231.088-.231.264v1.32c0 .154.077.231.231.231z"/></defs><g fill="none" transform="translate(-7 -6)"><use fill="#fff" xlink:href="#b"/><use fill="url(#a)" xlink:href="#b"/></g></svg>