<svg height="10" viewBox="0 0 8 10" width="8" xmlns="http://www.w3.org/2000/svg"><path d="m12.6335 16.005c.2273333 0 .4436667-.0458333.649-.1375s.385-.2181667.539-.3795.2768333-.3446667.3685-.55.1375-.4253333.1375-.66v-6.303c0-.23466667-.0458333-.45833333-.1375-.671s-.2145-.39783333-.3685-.5555-.3336667-.28233333-.539-.374-.4216667-.1375-.649-.1375h-3.102c-.23466667 0-.45283333.04583333-.6545.1375s-.3795.21633333-.5335.374-.275.34283333-.363.5555-.132.43633333-.132.671v6.303c0 .2346667.044.4546667.132.66s.209.3886667.363.55.33183333.2878333.5335.3795.41983333.1375.6545.1375zm-.594-1.716h-1.914c-.1026667 0-.19433333-.0421667-.275-.1265s-.121-.1778333-.121-.2805v-5.522c0-.10266667.04033333-.19616667.121-.2805s.1723333-.1265.275-.1265h1.914c.1026667 0 .1943333.04216667.275.1265s.121.17783333.121.2805v5.522c0 .1026667-.0403333.1961667-.121.2805s-.1723333.1265-.275.1265z" fill="#fff" transform="translate(-7 -7)"/></svg>