<svg height="10" viewBox="0 0 8 10" width="8" xmlns="http://www.w3.org/2000/svg"><path d="m13.332 16.016c.1613333 0 .242-.088.242-.264v-2.277h.781c.154 0 .231-.0843333.231-.253v-1.309c0-.1686667-.077-.253-.231-.253h-.781v-5.203c0-.176-.0806667-.264-.242-.264h-1.386c-.1686667 0-.253.088-.253.264v5.203h-2.167l.462-4.983c0-.18333333-.07333333-.275-.22-.275h-1.276c-.154 0-.242.08433333-.264.253l-.627 6.567c-.00733333.1686667.066.253.22.253h3.872v2.277c0 .176.0843333.264.253.264z" fill="#fff" transform="translate(-7 -7)"/></svg>