<svg height="10" viewBox="0 0 8 10" width="8" xmlns="http://www.w3.org/2000/svg"><path d="m12.628 16.027c.2273333 0 .4436667-.0458333.649-.1375s.385-.2181667.539-.3795.2768333-.3446667.3685-.55.1375-.4253333.1375-.66v-6.336c0-.23466667-.0458333-.45833333-.1375-.671s-.2145-.39783333-.3685-.5555-.3336667-.28233333-.539-.374-.4216667-.1375-.649-.1375h-3.102c-.23466667 0-.45283333.04583333-.6545.1375s-.3795.21633333-.5335.374-.275.34283333-.363.5555-.132.43633333-.132.671v6.336c0 .2346667.044.4546667.132.66s.209.3886667.363.55.33183333.2878333.5335.3795.41983333.1375.6545.1375zm-.198-5.775h-2.706v-1.903c0-.10266667.04033333-.19433333.121-.275s.1723333-.121.275-.121h1.914c.1026667 0 .1943333.04033333.275.121s.121.17233333.121.275zm-.396 4.048h-1.914c-.1026667 0-.19433333-.0403333-.275-.121s-.121-.1723333-.121-.275v-1.936h2.706v1.936c0 .1026667-.0403333.1943333-.121.275s-.1723333.121-.275.121z" fill="#fff" transform="translate(-7 -7)"/></svg>