<svg height="24" viewBox="0 0 24 24" width="24" xmlns="http://www.w3.org/2000/svg"><g fill="none" fill-rule="evenodd"><path d="m9.73410026 19.3311025-.65417149.1678214c-1.36212578.3494402-2.74962414-.4715037-3.09906433-1.8336295-.03969857-.1547459-.06474529-.3128847-.07480883-.4723243l-.0425425-.6740137c-.09923293-1.5721772-.5936637-3.0938786-1.4374851-4.4241243l-.3617577-.5702944c-.75325739-1.1874756-.40125393-2.76075057.78622171-3.51400795.13490461-.08557472.27756361-.15826311.42608996-.21710368l.62787877-.24874201c1.46456463-.58020557 2.75900119-1.52066878 3.76338484-2.73425914l.43059291-.52028269c.8965871-1.08334049 2.5016356-1.23473402 3.5849761-.3381469.1230742.10185787.236289.21507269.3381469.3381469l.4305929.52028269c1.0043837 1.21359036 2.2988202 2.15405357 3.7633849 2.73425914l.6278787.24874201c1.3073787.5179344 1.9473498 1.99764302 1.4294154 3.30502173-.0588406.1485263-.131529.2911853-.2171037.4260899l-.3617577.5702944c-.8438214 1.3302457-1.3382522 2.8519471-1.4374851 4.4241243l-.0425425.6740137c-.0885827 1.4034415-1.2981073 2.4693453-2.7015488 2.3807626-.1594397-.0100635-.3175784-.0351102-.4723244-.0748088l-.6541715-.1678214c-1.5258939-.3914533-3.1259055-.3914533-4.65179944 0z" fill="#ff902f"/><path d="m11.145 14.7998948c-.3517632.1652166-.7708581.0139906-.9360747-.3377727-.0354526-.0754823-.0572055-.1566655-.0642438-.2397614-.0540468-.6380898-.38942144-1.2189757-.91500004-1.5848265-.31896332-.2220277-.39754521-.6605875-.17551757-.9795508.04764329-.068444.10707356-.1278743.17551757-.1755176.5255786-.3658508.86095324-.9467367.91500004-1.58482647.0327999-.38724416.3733129-.67457799.760557-.64177807.0830959.0070383.1642792.02879129.2397615.06424389.5796254.27223904 1.2503746.27223904 1.83 0 .3517632-.16521651.7708581-.01399051.9360747.33777273.0354526.0754823.0572055.15666556.0642438.23976145.0540468.63808977.3894214 1.21897567.915 1.58482647.3189634.2220277.3975453.6605875.1755176.9795508-.0476433.068444-.1070736.1278743-.1755176.1755176-.5255786.3658508-.8609532.9467367-.915 1.5848265-.0327999.3872441-.3733129.674578-.760557.641778-.0830959-.0070383-.1642792-.0287912-.2397615-.0642439-.5796254-.272239-1.2503746-.272239-1.83 0z" fill="#ffe6d0"/></g></svg>