<svg height="24" viewBox="0 0 24 24" width="24" xmlns="http://www.w3.org/2000/svg"><g fill="none" fill-rule="evenodd"><g fill="#9c8cff"><path d="m5.76 9.24c.6627417 0 1.2.5372583 1.2 1.2v8.4h-2.4v-8.4c0-.6627417.5372583-1.2 1.2-1.2z"/><path d="m9.84 9.24c.6627417 0 1.2.5372583 1.2 1.2v8.4h-2.4v-8.4c0-.6627417.5372583-1.2 1.2-1.2z"/><path d="m14.04 9.24c.6627417 0 1.2.5372583 1.2 1.2v8.4h-2.4v-8.4c0-.6627417.5372583-1.2 1.2-1.2z"/><path d="m18.12 9.24c.6627417 0 1.2.5372583 1.2 1.2v8.4h-2.4v-8.4c0-.6627417.5372583-1.2 1.2-1.2z"/></g><g fill="#7c66ff"><path d="m4.50028689 6.59417327 6.14410611-3.06830396c.8149162-.40696084 1.7731601-.40987126 2.5905333-.00786807l6.262796 3.08018898c.4054412.1994054.6622777.61194257.6622777 1.06376669 0 .40760994-.3304331.73804309-.7380431.73804309h-14.84391381c-.40760994 0-.73804309-.33043315-.73804309-.73804309 0-.45228468.25565246-.86571333.66028689-1.06778364z"/><rect height="2.4" rx="1.2" width="18.96" x="2.52" y="18.72"/></g></g></svg>