<svg height="20" viewBox="0 0 20 20" width="20" xmlns="http://www.w3.org/2000/svg" xmlns:xlink="http://www.w3.org/1999/xlink"><defs><linearGradient id="a" x1="5.108711%" x2="100%" y1="9.557205%" y2="90.621269%"><stop offset=".0240445524" stop-color="#74e7ff"/><stop offset="1" stop-color="#00b7ff"/></linearGradient><rect id="b" height="14.85" rx="7.425" width="14.85"/><mask id="c" fill="#fff"><use fill="#fff" fill-rule="evenodd" xlink:href="#b"/></mask></defs><g fill="none" fill-rule="evenodd" transform="translate(2.6 2.6)"><use fill="url(#a)" xlink:href="#b"/><g fill="#fff" fill-rule="nonzero" mask="url(#c)"><path d="m6.40143041 3.55217716c-.12901487.13711168-.25767169.21053705-.3860975.22009342-.12894558.00984181-.29212571-.06821903-.48997932-.23485614l-1.63331443-1.42359127v2.28955621c.33652438.0588225.65550413.1688635.95762069.33026002.30173541.16154494.56428126.36698983.78690987.61647167.22291738.24948185.39844459.54078566.52708986.8732835.12872612.33279469.19304876.70456841.19304876 1.11544677 0 .44030103-.07194572.84402067-.21537514 1.21086208-.14351028.36698983-.34646904.68022649-.60871458.93942455-.26217624.25934649-.58151404.46225671-.95757449.60901613-.37640696.1467594-.79690073.220219-1.26210503.220219-.43560134 0-.83887388-.0758459-1.21012948-.2275376-.3712556-.15184013-.69025845-.36190907-.95759759-.63109736-.26733915-.26905128-.47788634-.58451434-.63102942-.94658327-.15375523-.3619205-.2301824-.75338926-.2301824-1.17428069 0-.35220429.05950624-.68724821.1782184-1.00541719.11872371-.31772371.28426008-.60647002.49723279-.86597635.21296117-.25903822.47003225-.47926865.77211417-.66037162.30177006-.18095454.63102941-.31055357.98750086-.3889341v-2.28972746l-1.61853028 1.40897698c-.20783291.17621632-.37366957.25694883-.49722124.24232313-.12385197-.01477413-.25012946-.09044873-.37880938-.22756041-.13865922-.15647562-.20783291-.29592787-.20783291-.41834535 0-.12228047.10391646-.27634701.31173782-.46219962l2.99933591-2.5832691 2.96973296 2.58325768c.21752346.19572867.32384234.35725078.31903749.4843494-.00517445.12716712-.07675056.25931223-.21508639.39620699zm-1.2029453 3.80144973c0-.25441416-.04436402-.49657745-.13345012-.72666111-.08916695-.22977539-.21537514-.43283404-.37853218-.6090161-.16342268-.17618207-.36157659-.31563432-.59418452-.41834535-.23260792-.10271102-.49239329-.15407795-.77936764-.15407795-.26733915 0-.51474278.05136693-.7425112.15407795-.22775688.10271103-.42563358.23993689-.59389577.41102679-.16825065.17124974-.30208192.37192215-.40085857.60169754-.09907695.23008366-.14831513.47703084-.14831513.74129823 0 .27397219.04923818.52346545.14831513.74845694.0987882.22516276.23260792.42089143.40085857.58707184.16826219.16647727.36611579.29606488.59389577.3889341.22776842.09316607.47517205.13945225.7425112.13945225.27700659 0 .53195246-.04628618.76456038-.13945225.23260793-.09286922.43076184-.22500291.59388422-.39625266.16338804-.17110131.29211416-.36922764.38608596-.5943904.0939025-.22499149.1410039-.46968944.1410039-.73381982z" transform="matrix(.70710678 .70710678 -.70710678 .70710678 8.924092 1.400425)"/></g></g></svg>