<svg height="20" viewBox="0 0 20 20" width="20" xmlns="http://www.w3.org/2000/svg" xmlns:xlink="http://www.w3.org/1999/xlink"><linearGradient id="a" x1="7.536259%" x2="93.565248%" y1="12.763965%" y2="93.715051%"><stop offset="0" stop-color="#ffa1a5"/><stop offset="1" stop-color="#ff366c"/></linearGradient><g fill="none" fill-rule="evenodd"><rect fill="url(#a)" height="14.85" rx="7.425" transform="translate(2.6 2.6)" width="14.85"/><g fill="#fff" fill-rule="nonzero" transform="matrix(.70710678 .70710678 -.70710678 .70710678 11.405635 4.022435)"><path d="m5.19535352 7.82357997h-4.50224773c-.38058553 0-.68913362-.30854809-.68913362-.68913362 0-.38058552.30854809-.68913361.68913362-.68913361h4.50224773c.38058552 0 .68913361.30854809.68913361.68913361 0 .38058553-.30854809.68913362-.68913361.68913362zm-2.25018205-1.93377784c-1.62194488 0-2.94147495-1.31955304-2.94147495-2.94149792 0-1.62194487 1.31953007-2.94149792 2.94147495-2.94149792 1.62194487 0 2.94152089 1.31955305 2.94152089 2.94149792 0 1.62194488-1.31957602 2.94149792-2.94152089 2.94149792zm0-4.50472861c-.86194536 0-1.56320772.70126237-1.56320772 1.56323069 0 .86196833.70126236 1.5632307 1.56320772 1.5632307.86196832 0 1.56325366-.70126237 1.56325366-1.5632307 0-.86196832-.70128534-1.56323069-1.56325366-1.56323069z"/><path d="m2.90977297 10.2699584c-.38058552 0-.68913361-.30854813-.68913361-.68913366v-4.13468683c0-.38058552.30854809-.68913361.68913361-.68913361.38058553 0 .68913362.30854809.68913362.68913361v4.13468683c0 .38058553-.30854809.68913366-.68913362.68913366z"/></g></g></svg>