<svg height="24" viewBox="0 0 24 24" width="24" xmlns="http://www.w3.org/2000/svg" xmlns:xlink="http://www.w3.org/1999/xlink"><defs><path id="a" d="m9.1205786.20627069 8.635847 9.86452511c.0726076.0829379.0793837.2046713.0164296.2951551l-3.2360167 4.6511176c-.0448658.0644854-.1184505.1029315-.1970082.1029315h-10.7996606c-.07855767 0-.15214242-.0384461-.19700818-.1029315l-3.23601669-4.6511176c-.06295418-.0904838-.05617798-.2122172.01642958-.2951551l8.63584699-9.86452511c.08730882-.09973081.23893438-.10980082.33866519-.02249201.00798646.00699171.0155003.01450555.02249201.02249201z"/><mask id="b" fill="#fff"><use fill="#fff" fill-rule="evenodd" xlink:href="#a"/></mask></defs><g fill="none" fill-rule="evenodd" transform="translate(3.031145 4.44)"><path d="m9.20943346.20627069 8.63584704 9.86452511c.0726075.0829379.0793837.2046713.0164295.2951551l-3.2360167 4.6511176c-.0448657.0644854-.1184505.1029315-.1970081.1029315h-10.79966063c-.07855768 0-.15214242-.0384461-.19700818-.1029315l-3.2360167-4.6511176c-.06295417-.0904838-.05617798-.2122172.01642959-.2951551l8.63584699-9.86452511c.08730881-.09973081.23893438-.10980082.33866518-.02249201.00798647.00699171.0155003.01450555.02249201.02249201z" fill="#ffcb2f" transform="matrix(-1 0 0 -1 18.05771 15.12)"/><g stroke="#ffebaf" stroke-width=".6" transform="translate(.088855)"><use transform="matrix(-1 0 0 -1 17.88 15.12)" xlink:href="#a"/><path d="m0 4.908048h17.664615" mask="url(#b)"/><path d="m7.20816808 0-1.95765698 4.90804804 3.6294889 10.05413556" mask="url(#b)"/><path d="m10.957657 0-1.957657 4.90804804 3.3894889 10.05413556" mask="url(#b)" transform="matrix(-1 0 0 1 21.389488 0)"/></g></g></svg>