<svg height="24" viewBox="0 0 24 24" width="24" xmlns="http://www.w3.org/2000/svg"><g fill="none" fill-rule="evenodd"><path d="m7.75147414 5.16h8.52214986c1.0913979 0 2.0484314.85961328 2.1375942 1.92l.9282999 11.04c.0891628 1.0603867-.9007907 1.92-2.2111229 1.92h-10.23169228c-1.3103322 0-2.30028563-.8596133-2.21112287-1.92l.92829993-11.04c.08916276-1.06038672 1.04619626-1.92 2.13759416-1.92z" fill="#ff607c"/><rect height="2.28" rx="1.14" stroke="#ff607c" stroke-width=".72" width="4.56" x="9.72" y="4.08"/><g fill="#ffadbc"><path d="m8.47398881 13.56h7.04714279c.8160707 0 1.5450226.6984358 1.6281596 1.56l.3589631 3.72c.083137.8615642-.5983314 1.56-1.5221023 1.56h-7.97718356c-.92377095 0-1.60523938-.6984358-1.52210235-1.56l.3589631-3.72c.08313703-.8615642.81208893-1.56 1.62815962-1.56z"/><rect height="1" rx=".24" width="7.2" x="8.4" y="6.48"/></g></g></svg>