<svg height="32" viewBox="0 0 32 32" width="32" xmlns="http://www.w3.org/2000/svg" xmlns:xlink="http://www.w3.org/1999/xlink"><linearGradient id="a" x1="50%" x2="50%" y1="0%" y2="99.474768%"><stop offset="0" stop-color="#e0ddef"/><stop offset="1" stop-color="#ebe8f6"/></linearGradient><g fill="none" fill-rule="evenodd"><g transform="translate(3.04 4.32)"><path d="m5.0278124 10.624h6.9618513c4.085232 0 6.0848474 2.435571 4.4662659 5.44s-4.4579533 5.44-6.3419146 5.44h-3.21055395c-1.88396125 0-4.72333313-2.435571-6.34191461-5.44-1.61858147-3.004429.38103391-5.44 4.46626596-5.44z" fill="url(#a)"/><circle cx="8.572738" cy="6.912" fill="#d7d4e9" r="6.912"/><g stroke="#e0deef" stroke-linecap="round" stroke-linejoin="round" stroke-width="2.048"><path d="m5.692738 5.952v.64"/><path d="m11.580738 5.952v.64"/></g></g><g transform="translate(11.68 15.2)"><rect fill="#cbc8dc" height="12.432" rx="1.904" width="17.136"/><g fill="#e0deef"><rect height="1.232" rx=".616" width="3.36" x="1.904" y="2.688"/><circle cx="13.384" cy="4.088" r="1.4"/><path d="m12.32 5.936h2.128c.4948471 0 .896.40115286.896.896v2.576c0 .18556768-.1504323.336-.336.336h-3.248c-.1855677 0-.336-.15043232-.336-.336v-2.576c0-.49484714.4011529-.896.896-.896z"/><rect height="1.232" rx=".616" width="5.6" x="1.904" y="5.6"/><rect height="1.232" rx=".616" width="7.392" x="1.904" y="8.512"/></g></g></g></svg>