<svg height="24" viewBox="0 0 24 24" width="24" xmlns="http://www.w3.org/2000/svg"><g fill="none" fill-rule="evenodd"><path d="m3.79035058 5.64h16.36964942c.397645 0 .72.32235498.72.72v11.28c0 .397645-.322355.72-.72.72h-16.36964942c-.19882251 0-.36-.1611775-.36-.36 0-.0707208.02082992-.1398753.05988963-.198831l.90258471-1.362338c.07985284-.1205278.07985284-.2771342 0-.397662l-1.14109416-1.722338c-.07985284-.1205278-.07985284-.2771342 0-.397662l1.14109416-1.722338c.07985284-.1205278.07985284-.2771342 0-.397662l-1.14109416-1.722338c-.07985284-.12052781-.07985284-.27713419 0-.397662l1.14109416-1.722338c.07985284-.12052781.07985284-.27713419 0-.397662l-.90258471-1.362338c-.10981133-.16574638-.06446701-.38913004.10127937-.49894137.05895572-.03905971.12811016-.05988963.198831-.05988963z" fill="#ff607c" fill-rule="evenodd"/><circle cx="18" cy="12" fill="#ffeff2" fill-rule="evenodd" r="1.08"/><g stroke="#ffadbc" stroke-linecap="round" stroke-width="1.92"><path d="m8.52 9.12h6.36"/><path d="m8.52 14.4h4.2"/></g></g></svg>