<svg height="28" viewBox="0 0 26 28" width="26" xmlns="http://www.w3.org/2000/svg"><g fill="none" fill-rule="evenodd" transform="translate(1 2)"><path d="m13.4825701 2.46484351 6.4173821 3.70507732c.7796907.45015464 1.26 1.28207473 1.26 2.18238402v7.41015465c0 .9003093-.4803093 1.7322294-1.26 2.182384l-6.4173821 3.7050773c-.7796907.4501547-1.7403093.4501547-2.52 0l-6.4173822-3.7050773c-.77969071-.4501546-1.26-1.2820747-1.26-2.182384v-7.41015465c0-.90030929.48030929-1.73222938 1.26-2.18238402l6.4173822-3.70507732c.7796907-.45015465 1.7403093-.45015465 2.52 0z" fill="#a7a3c0" transform="matrix(.8660254 .5 -.5 .8660254 7.666205 -4.495902)"/><circle cx="11.98257" cy="12.057382" fill="#fff" opacity=".5" r="3.12"/></g></svg>