<svg height="44" viewBox="0 0 44 44" width="44" xmlns="http://www.w3.org/2000/svg"><g fill="none"><path d="m22.0000256 0c12.1515766 0 22.0000256 9.84844896 22.0000256 22.0000256 0 12.1515766-9.848449 22.0000256-22.0000256 22.0000256-12.15157664 0-22.0000256-9.848449-22.0000256-22.0000256 0-12.15157664 9.84844896-22.0000256 22.0000256-22.0000256z" fill="#ffe193"/><path d="m22.0000256 2.7500032c10.6304811 0 19.2500224 8.6195413 19.2500224 19.2500224s-8.6195413 19.2500224-19.2500224 19.2500224-19.2500224-8.6195413-19.2500224-19.2500224 8.6195413-19.2500224 19.2500224-19.2500224z" fill="#f7bc15"/><g fill="#ffe193"><path d="m33.0644916 10.9828253c-.034375-.0386719-.0902345-.107422-.1589846-.1933596-.1160157-.1460939-.2792972-.3523442-.4511724-.5757819-.0859376-.1117189-.1718752-.23632844-.2578128-.36093796s-.1718752-.24492216-.249219-.37382856-.141797-.2578128-.1976565-.38242232c-.0558594-.12460952-.0988282-.24492216-.1203126-.36093792 0 0-.0601563-.24062528-.1031251-.59296944-.0472657-.34804728-.0945314-.79921968-.0300782-1.22031392 0 0 .1117189.03867192.2921878.12460952.0902345.0429688.1976565.09882824.3179692.16328144.1203126.06875008.2449221.15468768.3824223.25351592.5457037.38242232 1.1472669 1.04414184 1.4007829 1.92500224 0 0 .0214844.33515664-.073047.7046883-.0902345.3566411-.287891.7347665-.6703133.9152355.1847659.0472656.2964847.0859376.2964847.0859376-.0171875.429688-.3437504.7605477-.6488288.9796886-.3093754.2234378-.5972664.3437504-.5972664.3437504-.4125004.0902345-.7949228.1160158-1.1214856.1031251-.3351567-.0128906-.6273445-.0558594-.8636729-.1160157-.2449222-.0558595-.4382818-.1203127-.5714851-.1761721-.1289064-.0558595-.2062502-.0945314-.2062502-.0945314.2578128-.3265629.6015632-.6144538.8808604-.8078134s.4984381-.3007816.4984381-.3007816c.2019533-.1117189.4683599-.1761721.751954-.2019534s.5843757 0 .8679697.0343751c.2406253.0300781.4554693.0816407.6316414.1246095zm2.3933622 3.2527381c-.1375002.3910161-.5242194.6230476-.8636729.7648447-.3523442.1460939-.6660164.1976565-.6660164.1976565-.4210943-.0085938-.7992197-.0644532-1.1171888-.1546877-.3179691-.0859376-.5972663-.1933596-.8121103-.3093754-.2234378-.107422-.395313-.214844-.5113288-.3007816-.0558594-.0429688-.0988282-.0773438-.1289064-.1031251-.0300781-.0257813-.0472656-.0386719-.0472656-.0386719.3351566-.2621097.7390633-.4597662 1.0570324-.5843757.3179692-.1246095.5585944-.180469.5585944-.180469.2234378-.0644532.4984381-.0644532.7820322-.0214844.2792972.0429688.5671882.1332033.8335947.2277347.2664066.0945313.4898443.214844.6574227.3050785.0945313.0515625.1718752.0945313.214844.1203126-.0214844-.0429688-.0472657-.0945314-.0773439-.1589846-.0773438-.1718752-.1804689-.4082036-.2964847-.6660164-.0558594-.1289064-.1117189-.2664065-.1589846-.4082036-.0515625-.1375001-.1031251-.2792972-.1460939-.4210942s-.0730469-.2792972-.0945313-.4167974c-.0214844-.1332032-.0343751-.2578128-.0257813-.3781254 0 0 .0042969-.249219.0472657-.6015632.0429688-.3480473.107422-.7949228.2750003-1.19453264 0 0 .0988282.0644532.2535159.18476584.0773438.0601563.1675783.1375002.2707034.2320315.0988283.0945314.2019534.2062503.3050785.3308598.4339849.4941412.8550791 1.2761733.8808604 2.1871119 0 0-.0644532.3308598-.2449221.6660164-.180469.3394535-.4855475.6746102-.9281261.7476571.0042969.0171875-.0042969.0042969-.0171875-.0257813zm1.7832052 3.5621136c-.0085938-.0472657-.0300782-.1375002-.0515626-.2621097-.0300782-.1761721-.073047-.4253911-.1203126-.7132821-.0214844-.1375002-.038672-.2835941-.0515626-.4339849-.0171875-.1460939-.0300782-.2964847-.034375-.4425786-.0042969-.1460939-.0042969-.287891.0128906-.4253911.0128906-.1332033.0300782-.2621097.0687501-.3738286 0 0 .0644532-.2406253.1976565-.571485.1289064-.3308598.3050784-.7476572.5671881-1.0957044 0 0 .0816407.0816407.2019534.2406252.0601563.0773439.1289064.1761721.2062502.287891.0687501.1160158.1417971.2449222.214844.395313.2964847.5800788.5070319 1.4351579.3050785 2.3289089 0 0-.1460939.3093754-.4082036.5929695-.2621097.2878909-.6402351.5414068-1.0871106.5113287-.2234378.3652348-.6703133.5070318-1.0441419.5671881-.3781254.0601564-.6960945.038672-.6960945.038672-.4125005-.1031252-.7605478-.2492191-1.0441419-.4082036-.2878909-.1589846-.5285162-.3265629-.7089852-.4855475-.1890627-.1546877-.3308597-.3007816-.4167973-.4082036-.0472657-.0515625-.0773439-.0988282-.0988283-.1289064-.0257813-.0300781-.034375-.0472657-.034375-.0472657.3867192-.176172.8335947-.2792972 1.1730482-.3265628.3394535-.0472657.5886726-.0472657.5886726-.0472657.2363284-.0085938.4984381.0515625.7648446.1546877.2621097.107422.5199225.2578128.751954.4125004.2363284.1546877.4210943.322266.5628913.4468756.0773438.0902344.1503908.1632814.180469.1933596zm-.0257813 7.6656339c.0042969-.0171875.0128906-.0343751.0171875-.0515626.0558594-.1761721.1332033-.4210942.2363284-.6832039s.2062502-.5542975.3480473-.8164072c.1332033-.2621097.2750003-.502735.4597661-.6703133 0 0 .0429688-.0429688.1246096-.1203126.0816407-.0773439.1933596-.180469.3265628-.2964847.2707035-.2363284.6402352-.5242194 1.0441419-.717579 0 0 .0300781.107422.0558594.3007816.0257813.1890627.0601563.464063.0386719.786329-.0085937.1589846-.0300781.3351567-.0601563.5156256-.0171875.0902345-.034375.1847659-.0558594.2750004-.0257813.0945313-.0558595.1890627-.0902345.283594-.0687501.1890628-.1546877.3824224-.2578128.5714851-.1117189.1890627-.2449222.3738285-.3996098.5457037 0 0-.0687501.0515626-.180469.1203127s-.2707034.1546877-.4597662.2234377c-.3179691.1160158-.6960945.1761721-1.035548.0558595.0042968.0128906.0042968.0214844.0042968.0214844-.3867192.2320315-.8464853.1632814-1.216017.0515625-.3652348-.1160157-.6402351-.2750003-.6402351-.2750003-.3136723-.2750003-.53711-.5542975-.7261727-.8207041-.180469-.2664065-.2964848-.5199224-.3910161-.7433602-.0945314-.2234378-.1332033-.4082036-.1675783-.5457038-.0343751-.1332032-.038672-.214844-.038672-.214844.4339849.0171876.8679698.1203127 1.1988296.2320316.3308597.107422.5500006.2191408.5500006.2191408.214844.0945314.4125005.2664066.5929694.4769537.180469.2105471.3480473.4597662.46836.6960946.1031251.2105471.1933596.4167973.2535159.5800788zm-1.1000013 3.6695355c-.4253911.1246095-.8464854-.0472657-1.1687514-.2363284-.3265628-.1976565-.5500006-.4125005-.5500006-.4125005-.2320315-.3351566-.3867192-.6617195-.4984381-.9625011-.0515625-.1503908-.0945313-.2921878-.1203126-.429688-.0300782-.1375002-.0558595-.2664066-.073047-.3824223-.0300781-.2363284-.0257813-.429688-.0257813-.5671882.0042969-.1375001.0171876-.2191409.0171876-.2191409.4167973.1160158.8121103.3179692 1.1042981.4984381.2921879.180469.4769537.3394535.4769537.3394535.1847658.1417971.3394535.3523442.4597662.5972664.1203126.2449221.2234377.5242193.2750003.786329.0601563.2621097.0945313.5070318.1117189.6917977.0085937.1289064.0128906.2234377.0128906.2664065.0171875-.0300781.0386719-.0601563.0644532-.0988282.0988282-.1589846.2363284-.3781254.4082036-.610157.1589846-.2363284.3437504-.4898443.5457038-.7089852.1890627-.2277346.3996098-.4253911.6144538-.5457037 0 0 .0558594-.0343751.1503908-.0902345s.2277346-.1332033.3867192-.214844c.322266-.1675783.7648446-.3652348 1.1902358-.4597662v.0816408c0 .0515625-.0042969.1289064-.0171876.2234377-.0214844.1933596-.06875.4640631-.1589845.7734384-.1031251.3050785-.2492191.6574227-.4769537.9968762-.2320315.3394535-.5242194.6703133-.9238292.9367198 0 0-.3136722.1417971-.7089852.1890627-.3996098.0472657-.8679698-.0042968-1.1773451-.3093753 0-.0085938.0300781-.0515626.0816407-.1332033zm-27.9082356-14.9187674c-.322266-.1289064-.55429752-.4082036-.70468832-.6832039-.18476584-.3351566-.24492216-.6660164-.24492216-.6660164.02578128-.9109385.44687552-1.6929707.8808604-2.1871119.107422-.1246095.21054712-.2363284.30507848-.3308598.09882824-.0902344.1933596-.1718752.27070344-.2320315.15468768-.1246095.25351592-.18476582.25351592-.18476582.16757832.39531292.23203152.84218852.27500032 1.19453262.0429688.3523442.04726568.6015632.04726568.6015632.00859376.1203127-.00429688.2449222-.02578128.3781255-.0214844.1332032-.05156256.2750003-.09453136.4167973-.0429688.1417971-.09453136.2792972-.14609392.4210943-.04726568.141797-.10312512.2792972-.15898456.4082036-.11171888.249219-.20625024.4769536-.28359408.644532.1503908-.0773439.33515664-.1718752.55000064-.2492191.26640656-.0988282.55000064-.1890627.83359472-.2277346s.55859438-.0386719.78203218.0214844c0 0 .2406253.0558594.5585944.1804689.3179691.1203127.7218758.322266 1.0570325.5843757 0 0-.0171876.0128907-.0472657.0386719-.0300782.0257813-.073047.0601564-.1289064.1031252-.1117189.0859376-.287891.1933596-.5070319.3007816-.214844.1160157-.4898443.2234377-.8121103.3093753-.3136722.0902345-.6917977.1503908-1.11718878.1546877 0 0-.31367224-.0515626-.6660164-.1976565-.35234416-.1546877-.74765712-.3953129-.87656352-.7992197zm-1.41367352 3.617973c-.38242232-.0300782-.70468832-.2578128-.93242296-.5113287-.26210968-.2835941-.4082036-.5929695-.4082036-.5929695-.20195336-.8894541.00859376-1.7488301.30507848-2.3289089.07304696-.1460939.14609392-.2792972.214844-.395313.07304696-.1117189.14609392-.2105471.20625024-.2878909.12031264-.1546877.20195336-.2406253.20195336-.2406253.26210968.3480473.43828176.7648446.56718816 1.0957044.1289064.3308597.19765648.571485.19765648.571485.03867192.1117189.05585944.2406253.06875008.3738286.01289064.1375001.01718752.2792972.01289064.4253911s-.0214844.2964847-.03867192.4425786c-.01289064.1503908-.03007816.2964848-.05156256.4339849-.04726568.287891-.09023448.53711-.12031264.7132821-.00429688.0300782-.00859376.0558594-.01718752.0816407.00429688-.0042969.00859376-.0042969.00859376-.0085937.14179704-.1246096.32656288-.2921879.56289128-.4468756.23203152-.1546876.48554744-.3093753.751954-.4125004.26640656-.1031252.53281312-.1675784.76484464-.1546877 0 0 .24492216 0 .58867256.0472657.33945354.0472656.78203214.1503908 1.17304824.3265628 0 0-.0128906.0171876-.034375.0472657-.0214844.0300782-.0558595.073047-.0988283.1289064-.0902345.107422-.2320315.2492191-.4167973.4082036-.180469.1589846-.42109428.3265629-.70898524.4855475-.28359408.1589845-.63164136.3050784-1.04414184.4082036 0 0-.31796912.0214844-.69609456-.038672-.3867192-.0644532-.83359472-.2062502-1.05703248-.571485zm3.39883212 14.7855641c-.23632844.2019533-.55859444.2964847-.85937604.3308597-.39531296.0472657-.73476648-.0171875-.73476648-.0171875-.4511724-.1675783-.82070408-.4210942-1.13007944-.6960945-.30507848-.2750004-.53711-.5843757-.71328208-.859376-.16757832-.2835941-.2792972-.5328132-.35234416-.7132821-.06875008-.180469-.09023448-.2964847-.09023448-.2964847.43828176-.0042969.91523544.0859376 1.27187648.176172.17617208.0429688.32656288.0859376.43398488.1203127.107422.034375.16757832.0515625.16757832.0515625.24062528.0687501.4941412.214844.73476648.3910161.25351592.1718752.4941412.3738286.7089852.5671882.1933596.1589845.36093792.3179691.48984432.4425786-.0128906-.1203126-.0214844-.2535159-.0257813-.3910161-.0128906-.2621096.0171875-.5628912.073047-.8250009.0558594-.2664066.1503908-.5070319.2964847-.6875008 0 0 .1375002-.1976565.3781254-.4382818.2363284-.2449221.5714851-.5285162.9453136-.7347665 0 0 .0343751.073047.073047.2062503.034375.1375001.0859376.322266.1160158.5585944.0171875.1160157.0214844.249219.0257812.3867192.0042969.1375001.0042969.2878909-.0085937.4468755-.0343751.322266-.0988283.6703133-.2406253 1.0484387 0 0-.1632814.2621097-.4339849.5285163-.2707034.2621096-.644532.5285162-1.1000013.4941412-.0042968-.0042969-.0128906-.0343751-.0257812-.0902345zm3.398832 2.5179717c-.1460939.3695316-.5156256.5972663-.8679697.7261727-.1890627.0687501-.3652348.1031251-.4984381.1246095s-.2191409.0257813-.2191409.0257813c-.9582042-.1203127-1.7015645-.6359383-2.17851814-1.0914075-.23203152-.2363284-.40390672-.4554693-.51992248-.6144539-.11171888-.1589845-.16328144-.2664065-.16328144-.2664065.42539112-.1031252.91093856-.1246096 1.27617336-.1203127.1847658 0 .3394535.0085938.4511724.0171875.1117189.0085938.1761721.0128907.1761721.0128907.2535159.0128906.5328131.0945313.8121103.2105471.287891.107422.571485.2535159.8292978.3867192.2277347.1160158.4339849.2277346.5886726.322266-.0687501-.1675783-.1503908-.3867192-.2191409-.6273445-.0773438-.2535159-.1246095-.5500006-.1375001-.8164072-.0128907-.2707034.0171875-.5242193.1160157-.7347665 0 0 .0859376-.2234377.2535159-.5113287.1675784-.2878909.4210943-.644532.7347665-.9281261 0 0 .0515626.0644532.1203127.1847659.06875.1246095.1675783.2921878.2535159.5156256.0429688.1117189.0859376.2406253.1246095.3695317.0386719.1332032.0773438.2792972.1031251.4339848.0472657.3179692.073047.6703133.0300782 1.07422 0 0-.0945314.2921879-.287891.610157-.1718752.2835941-.4210942.5757819-.7777353.6960946zm-.5800788-25.1324512s1.4738299.6402352 3.0164135-2.29883076c.0042932 0-3.7511799.38242232-3.0164135 2.29883076zm18.0211148 0s-1.4738299.6402352-3.0164098-2.29883076c0 0 3.7554731.38242232 3.0164098 2.29883076zm-10.170715 28.1703453c.0859376.4167974-.1332033.8121103-.4039067 1.1000013-.2621097.2792972-.5628913.4511724-.5628913.4511724-.4511724.1632814-.9066417.2019534-1.3320328.1933596-.4210942-.0128906-.8078134-.0988282-1.1343763-.1933596-.322266-.107422-.5800788-.2234378-.7605478-.3136722-.0902345-.0429688-.1589845-.0902345-.2019533-.1160158-.0429688-.0300782-.0687501-.0472657-.0687501-.0472657.3265629-.2792972.7476571-.5156256 1.07422-.6703133.1632814-.0816407.3050785-.141797.4082036-.1847658s.1632814-.0687501.1632814-.0687501c.2277347-.1031251.5199225-.1503908.8207041-.1718752.3050785-.0300781.6273445-.034375.9238292-.0214844.2964847 0 .5628913.0128907.7562509.0257813.1976565.0128906.3179691.0171875.3179691.0171875zm.2406253-.0730469s-.0214844-.0171876-.0687501-.0472657c-.0429688-.0300782-.1031251-.073047-.1761721-.1332033-.1460939-.1203126-.3394535-.287891-.5328131-.4812506-.1933596-.1890627-.3781254-.429688-.5199225-.6617195-.141797-.2320315-.2406253-.4726568-.2578128-.7003914 0 0-.0300781-.2363284-.0214844-.5671882.0085938-.3308597.0601563-.7562509.1976565-1.1472669 0 0 .0773438.034375.1976565.1117188.1203126.0816408.2878909.1890628.4769537.3437504.0945313.0773439.1890627.1718752.2878909.2750004.0988283.0988282.2019534.2105471.3007816.3394535.0988283.1246095.1976565.2707034.2921879.429688.0945313.1546877.1804689.322266.2621096.5070318 0 0 .0601564.3007816.0429688.6660164-.0214844.3695317-.1160157.8035166-.4812505 1.0656263zm-4.0562547-.9882824c-.0214844.4253911-.3351567.7562508-.6660164.9753917-.1675784.1117189-.3308598.1847659-.4554693.2363284-.1246095.0515626-.2105471.073047-.2105471.073047-.9625012.1031251-1.8132834-.2320315-2.3890653-.5628913-.2835941-.1761721-.5070319-.3523442-.6574227-.4812506-.0773438-.0644532-.1289064-.1203126-.1675783-.1589845-.034375-.0386719-.0558594-.0601563-.0558594-.0601563.3867192-.1976565.8550791-.3308598 1.2117201-.4082036.180469-.038672.3308598-.0644532.4425787-.0859376.1117189-.0171876.1761721-.0300782.1761721-.0300782.249219-.0472657.5414068-.0257813.8421884.0214844.3050785.0386719.6187508.1160158.9023448.1890627.287891.0687501.5414069.1417971.7261728.2019534.1847658.0515625.3007816.0902345.3007816.0902345zm-.2792972-.1375002s-.0773439-.0859376-.1933596-.2277346c-.1117189-.146094-.2578128-.3566411-.395313-.5886726-.1375002-.2277346-.2578128-.502735-.3394535-.7605478-.0773439-.2621096-.1117189-.5113287-.073047-.7390633 0 0 .0300782-.2363284.1203127-.5542975.0902344-.3179692.249219-.7218759.4812505-1.0699232 0 0 .0644532.0515626.1632815.1503908.0988282.107422.2363284.2449222.3738285.4425787.1375002.2019533.2921879.4382817.4210943.7304696.1246095.3007816.2406252.6359382.2964847 1.0355481 0 0-.0171875.3050784-.1246095.6574226-.1117189.3523442-.3136723.751954-.7304696.9238292zm-8.881651-7.7171965c-.30937536.3050785-.77773528.3566411-1.17734512.3093754-.39531296-.0472657-.7089852-.1890627-.7089852-.1890627-.39531296-.2664066-.69179768-.5972664-.91953232-.9367199s-.37382856-.6917977-.47695368-.9968761c-.09023448-.3136723-.13750016-.5843757-.15898456-.7734384-.01289064-.0945314-.01289064-.1718752-.01289064-.2234378v-.0816407c.42539112.0988282.86796976.2921878 1.19023576.4597661.16328144.0859376.29648472.1589846.3867192.214844.09882824.0558595.1503908.0902345.1503908.0902345.21914088.1203127.42539112.322266.61445384.5457038.20195336.2234377.38242232.4769537.54570376.7089852.16757832.2320315.30937536.4511724.4082036.6101569.09882824.1675784.15898456.2621097.15898456.2621097zm.31367224-.1289064s0-.1117189.01289064-.2921878c.0214844-.1847659.05585944-.429688.11171888-.6917977.05156256-.2578128.15898456-.5414069.27500032-.786329.12031264-.2449222.27500032-.4554693.45976616-.5972664 0 0 .18476584-.1589845.47695368-.3394535.29218784-.1804689.68750078-.3824223 1.10000128-.4984381 0 0 .0171875.0816408.0171875.2191409 0 .1375002.0042969.3351567-.0257813.5671882-.0128906.1160157-.0386719.249219-.0730469.3824223-.0300782.1332033-.0687501.2792972-.1203127.429688-.1117188.3007816-.2621096.6273445-.49843804.9625011 0 0-.22343776.2191409-.55000064.4125005-.322266.1976565-.751954.3695317-1.18593888.2320315zm-1.50820488-3.4289102c-.37812544.2234377-.84648536.1675783-1.22031392.0300781-.18906272-.06875-.34804728-.1546876-.45976616-.2234377-.11601576-.0687501-.18046896-.1203127-.18046896-.1203127-.15468768-.176172-.28789096-.356641-.39960984-.5457037-.10312512-.1890627-.18906272-.3824223-.2578128-.5714851-.03437504-.0945313-.0644532-.1890627-.09023448-.283594-.0214844-.0945314-.0429688-.1847659-.05585944-.2750004-.03007816-.1804689-.05156256-.356641-.06015632-.5156256-.01718752-.322266.01718752-.5929694.03867192-.786329.02578128-.1890627.05585944-.3007816.05585944-.3007816.40390672.1890627.7734384.4812506 1.04414184.717579.13320328.1160157.24492216.2234377.32656288.2964847.08164072.0773438.12460952.1203126.12460952.1203126.18046896.1675783.322266.4082036.45976616.6703133.14179704.2621097.24492216.5500006.34804728.8164072.10312512.2621097.18046896.5070318.24062528.6832039.05156256.1761721.0859376.287891.0859376.287891zm.09453136.107422s.03007816-.1117189.09023448-.2835941.16328144-.4039067.28359408-.644532.28359408-.4898443.46835992-.6960946c.18046896-.2105471.38242232-.3824223.59296944-.4769536 0 0 .21914088-.1117189.55000064-.2191409.32656288-.1117189.76484464-.214844 1.19882952-.2320315 0 0-.00429688.0816407-.03867192.214844-.03437504.1375001-.07304696.322266-.16757832.5457037-.09882824.2234378-.21054712.4769537-.39531296.7433603-.18906272.2707034-.4082036.5457037-.72617272.820704 0 0-.27500032.1589846-.64023512.2750004-.36953168.1160157-.82929784.1847658-1.21601704-.0472657zm-.72617272-4.2367237c-.42539112.1332033-.86367288-.0300782-1.19023576-.249219-.16328144-.107422-.3007816-.2277347-.39960984-.322266-.09453136-.0945314-.14609392-.1589846-.14609392-.1589846-.20625024-.4082036-.33085976-.8335947-.35664104-1.2332046-.01718752-.2019533-.0214844-.3953129-.00859376-.5800788.01718752-.1847658.0429688-.356641.07304696-.5156256.05585944-.3179691.15468768-.5757819.23203152-.7562508.07734384-.180469.13320328-.2792972.13320328-.2792972.3437504.2750003.6230476.644532.82929784.9324229.21054712.2921879.33515664.5113287.33515664.5113287.0644532.1031252.11601576.2191409.15898456.3480473s.0859376.2664066.12031264.4082036c.03007816.1417971.05585944.287891.07734384.4382818.01718752.1460939.0429688.2921878.06015632.4339849.03007816.2792972.0429688.5328131.0644532.7175789.01718752.1890627.01718752.3050785.01718752.3050785zm.25351592-.0429688s.06015632-.1031251.15898456-.2535159c.05156256-.0773439.11171888-.1675783.18476584-.2621097s.15898456-.1976565.24921904-.3007816c.35664104-.4125005.86796976-.8121103 1.32773592-.9023448 0 0 .2363284-.0601563.5800788-.0902345.34804728-.034375.79921968-.034375 1.22461082.0472657 0 0-.0085938.0171875-.0214844.0558594-.01718754.0343751-.03867194.0816408-.0687501.146094-.06015632.1246095-.15468768.2964847-.3007816.4941412-.14179704.1976564-.31796912.4167973-.56718816.6359382-.24062528.2191409-.53281312.4425786-.90664168.6359382 0 0-.30937536.0945314-.69179768.1203127-.39101608.0257813-.85507912-.0128907-1.16875136-.3265629zm4.32695818-10.5015747c-.4125005-.1718752-.6230476-.5671882-.71757898-.9367199-.09453136-.36953164-.07304696-.70468828-.07304696-.70468828.25351594-.87656352.85507914-1.54257992 1.40078284-1.92500224.1332033-.09882824.2621097-.18476584.3824224-.25351592.1203126-.06875008.2277346-.12031264.3179691-.16328144.1804689-.0859376.2921878-.12460952.2921878-.12460952.0644532.42539112.0171875.87226664-.0300781 1.22031392-.0472657.35234416-.1031252.59296944-.1031252.59296944-.0214844.11601576-.0644532.2363284-.1203126.36093792-.0515626.12460952-.1203126.25351592-.1976565.38242232-.0773438.1289064-.1589845.25351592-.249219.37382856-.0816407.12460952-.1718752.24921904-.2578128.36093794-.1761721.2234377-.3351567.429688-.4511724.5757819-.1160158.1503908-.1933596.2406253-.1933596.2406253zm.3910161.0644532s.1160157-.0386719.2964847-.0859376c.1847658-.0472657.429688-.1117189.7132821-.1460939.283594-.0343751.5800788-.0601564.8679697-.0343751.287891.0257813.5500007.0859376.751954.2019534 0 0 .2191409.107422.4984381.3007816s.6230476.4769537.8808604.8078134c0 0-.0773438.0386719-.2062502.0945314-.1332033.0558594-.3265629.1203126-.5714851.1761721-.2363284.0601563-.5328131.107422-.8679697.1160157-.3265629.0171875-.7089852-.0128906-1.1214857-.1031251 0 0-.2921879-.1203126-.5972663-.3437504-.3007816-.2234378-.6273445-.5500006-.644532-.9839855zm11.9367326 27.0832346s.1203126-.0085937.3136722-.0171875c.1933596-.0128906.4597662-.0257813.7562509-.0257813.2921879-.0085937.6144539-.0085937.9238292.0214844.3050785.0171875.5929695.0687501.8207041.1718752 0 0 .0601563.0257813.1632814.0687501.1031252.0429688.2449222.1031251.4082036.1847658.3265629.1589846.7476572.3910161 1.07422.6703133 0 0-.0257812.0171875-.06875.0472657-.0472657.0300782-.1117189.073047-.2019534.1160158-.1761721.0902344-.4382818.2062502-.7605478.3136722-.3265628.0945314-.7089852.1761721-1.1343763.1933596-.4253911.0085938-.8765635-.0300782-1.3320328-.1933596 0 0-.3007816-.1718752-.5628913-.4511724-.2664065-.287891-.4855474-.6832039-.3996098-1.1000013zm.3394535-.0730469c-.3652348-.2621097-.4597661-.7003915-.4769537-1.0656263-.0171875-.3695317.0429688-.6660164.0429688-.6660164.0773439-.1890627.1675784-.356641.2621097-.5070318.0945314-.1589846.1890627-.3007816.287891-.429688.0988282-.1289064.2019533-.2406253.3007816-.3394535.0988282-.1031252.1976565-.1976565.2878909-.2750004.1847659-.1546876.3566411-.2621096.4769537-.3437504.1203127-.0773438.1976565-.1117188.1976565-.1117188.1375002.391016.1890627.8164072.1933596 1.1472669.0085938.3308598-.0214844.5671882-.0214844.5671882-.0171875.2277346-.1117189.4683599-.2578128.7003914-.141797.2320315-.3265629.4726568-.5199225.6617195-.1933596.1933596-.3867192.360938-.5328131.4812506-.073047.0601563-.1332033.1031251-.1761721.1332033-.0429688.034375-.0644532.0472657-.0644532.0472657zm3.7640669-.9882824s.1160158-.038672.3050785-.0859376c.1847658-.0601564.4382817-.1332033.7261727-.2019534.2835941-.073047.5929694-.1503908.9023448-.1890627.3007816-.0472657.5929694-.0687501.8421885-.0214844 0 0 .0644532.0128906.1761721.0300781.107422.0171876.2621096.0429688.4425786.0859376.356641.0773439.825001.2105472 1.2117202.4082036 0 0-.0214844.0214844-.0558595.0601564-.0386719.0386719-.0902345.0945313-.1675783.1589845-.1503908.1289064-.3738286.3007816-.6574226.4812506-.5800788.3308597-1.4265642.6660164-2.3890653.5628913 0 0-.0859376-.0214844-.2105471-.073047-.1246096-.0515626-.287891-.1246095-.4554693-.2363284-.3351567-.2234378-.6488289-.5542975-.6703133-.9796886zm-.0859376-.1375002c-.4210942-.1718752-.6230476-.571485-.7304696-.9238292s-.1289064-.6574226-.1289064-.6574226c.0601563-.3996099.1718752-.7347665.2964847-1.0355481.1289064-.2921879.2792972-.5285163.4210943-.7304696.141797-.1976565.2792972-.3351567.3738285-.4425787.0988283-.1031251.1632815-.1503908.1632815-.1503908.2320315.3480473.3867192.7476572.4812505 1.0699232.0945314.3179691.1203127.5542975.1203127.5542975.0429688.2234377.0042968.4769537-.073047.7390633-.0773438.2578128-.1976565.5328132-.3394535.7605478-.1375002.2320315-.2835941.4425786-.395313.5886726-.107422.141797-.1890627.2277346-.1890627.2277346zm3.8585982-1.9078147s.1031252-.0601563.2707035-.1546877c.1632814-.0988282.3953129-.2277346.6574226-.3609379.2578128-.1375002.5414069-.2792972.8292979-.3867192.2792972-.1160158.5585944-.2019534.8121103-.2105471 0 0 .0644532-.0042969.1761721-.0128907.1117188-.0085937.2664065-.0171875.4511724-.0171875.3652348-.0042969.8507822.0171875 1.2761733.1203126 0 0-.0472657.1031252-.1632814.2664066-.1117189.1589846-.287891.3781254-.5199225.6144538-.4769537.4554693-1.2203139.966798-2.1785182 1.0914076 0 0-.0859376-.0042969-.2191408-.0257813-.1332033-.0214844-.3093754-.0558595-.4984381-.1246095-.3738286-.1417971-.7648447-.3910161-.8937511-.7992197zm-.1589845.107422c-.4511724-.0687501-.7476571-.4125005-.9453136-.7304696-.1933596-.3179691-.287891-.610157-.287891-.610157-.0429688-.4039067-.0171875-.7562509.0300782-1.07422.0257813-.1589845.0601563-.3007816.0988282-.4339849.0386719-.1332032.0773439-.2621096.1246095-.3695316.0859376-.2234378.1847659-.3910161.253516-.5156256.06875-.1203127.1246095-.1847659.1246095-.1847659.3136722.2835941.5628913.6402351.7347665.9281261.1675783.287891.2535159.5113287.2535159.5113287.0945313.2105471.1289064.4640631.1160157.7347665-.0128906.2707034-.0601563.5628913-.1375001.8164072-.073047.2578128-.1632815.4941412-.2363284.6617195-.073047.1675783-.1289064.2664066-.1289064.2664066zm2.9906285-2.7972689s.0859376-.0816407.2234377-.2105471c.1375002-.1332033.3265629-.3136723.5457038-.4984381.214844-.1933596.4554693-.395313.7089852-.5671882.2406253-.176172.4941412-.322266.7347665-.391016 0 0 .0601563-.0171876.1675783-.0515626.1031251-.034375.2535159-.0773438.4339849-.1203126.356641-.0859376.8292978-.1761721 1.2718764-.1761721 0 0-.0214844.1117189-.0902344.2964847-.073047.180469-.1847659.4339849-.3523442.7132821-.1761721.2750003-.4082036.5800788-.7132821.859376-.3093753.2750003-.678907.5285162-1.1300794.6960945 0 0-.3394535.0644532-.7347665.0171876-.3996098-.0429688-.8421885-.1976565-1.0656262-.5671882zm-.0988283.3265629c-.4554693.034375-.8292978-.2320315-1.1000013-.4941412-.2664065-.2664066-.4339848-.5285163-.4339848-.5285163-.1417971-.3781254-.2062503-.7304696-.2406253-1.0484387-.0128907-.1589845-.0171875-.3093753-.0085938-.4468755.0042969-.1375002.0128907-.2707034.0257813-.3867192.0300782-.2363284.0816407-.4210942.1160158-.5585944.0386719-.1332033.0730469-.2062502.0730469-.2062502.3738286.2062502.7089852.4941412.9453136.7347664.2363284.2406253.3781255.4382818.3781255.4382818.1460939.180469.2406252.4210942.2964847.6875008.0558594.2621097.0859376.5628913.0730469.825001-.0085937.2664065-.0386719.5156256-.0644532.6960945-.034375.1761721-.0601563.287891-.0601563.287891zm4.3441457-11.1332161s.0042969-.1160158.0171875-.3007816c.0214844-.1847658.0300782-.4382818.0601563-.717579.0128907-.141797.038672-.2878909.0601564-.4339848.0171875-.146094.0429688-.2921879.0773438-.4382818.0300782-.141797.073047-.2835941.1203126-.4082036.0429688-.1289064.0945314-.2449222.1589846-.3480473 0 0 .1246095-.2191409.3351566-.5113287.2062503-.287891.4855475-.6574226.8292979-.932423 0 0 .0558594.0988283.1332033.2792972.0773438.180469.176172.4382818.2320315.7562509.0300781.1589846.0601563.3308598.0730469.5156256.0128907.1847659.0042969.3781255-.0085937.5800788-.0257813.3996099-.1503908.825001-.3566411 1.2332046 0 0-.0515625.0644532-.1460939.1589845-.0945313.0945314-.2320315.2105472-.3996098.322266-.322266.214844-.7605478.3781255-1.1859389.2449222zm-.0515626-.0429688c-.3136722.3136722-.7777352.3523442-1.1644544.3265629-.3867192-.0300782-.6917977-.1203127-.6917977-.1203127-.3781255-.1933596-.6703133-.4167973-.9066417-.6359382-.249219-.2191409-.4253911-.4382818-.5671882-.6359382-.1460939-.1933596-.2449221-.3695317-.3007816-.4941412-.0300781-.0644532-.0515625-.1160158-.06875-.146094-.0171876-.034375-.0214844-.0558594-.0214844-.0558594.4210942-.0816407.8765635-.0773438 1.2246108-.0472657.3437504.0343751.5800788.0902345.5800788.0902345.4554692.0859376.966798.4855474 1.3277359.9023448.0902345.1031251.1761721.2019534.249219.3007816.073047.0945314.1332033.1847658.1847659.2621097.0988282.1546877.1546876.2535159.1546876.2535159z"/><path d="m28.110189 13.6640784-4.4859428 7.592587h3.5363323v1.6757832h-4.1164111v2.3117214h4.1164111v1.6972676h-4.1164111v3.364457h-2.1183618v-3.364457h-4.2710987v-1.6972676h4.2710987v-2.3117214h-4.2710987v-1.6757832h3.6437542l-4.4429739-7.592587h2.3890653c2.075393 3.7726606 3.3343789 6.1617259 3.7812544 7.1714927h.0429688c.1503908-.4167973.5671881-1.2546889 1.2417983-2.5179717l2.543753-4.653521z"/></g></g></svg>