<svg height="24" viewBox="0 0 24 24" width="24" xmlns="http://www.w3.org/2000/svg"><g fill="none" fill-rule="evenodd"><path d="m12 3.83885358c4.7717402 0 8.64 3.86825976 8.64 8.64000002h-17.28c0-4.77174026 3.86825976-8.64000002 8.64-8.64000002z" fill="#6ce5a3" fill-rule="evenodd"/><path d="m4.32 12.3588536h15.36c.5301934 0 .96.4298066.96.96h-17.28c0-.5301934.42980664-.96.96-.96z" fill="#6ce5a3" fill-rule="evenodd" transform="matrix(1 0 0 -1 0 25.677708)"/><path d="m11.4 11.0388536v7.56c0 .8615642.6984358 1.56 1.56 1.56s1.56-.6984358 1.56-1.56v-.7267752" stroke="#6ce5a3" stroke-linecap="round" stroke-linejoin="round" stroke-width="1.92"/><path d="m10.6997784 5.30465345s-2.87825255.59328428-4.56491064 3.18826459" opacity=".5" stroke="#fff" stroke-linecap="round" stroke-linejoin="round" stroke-width="1.44"/><circle cx="5.4" cy="10.32" fill="#fff" fill-opacity=".5" fill-rule="evenodd" r="1"/></g></svg>