<svg height="32" viewBox="0 0 32 32" width="32" xmlns="http://www.w3.org/2000/svg"><path d="m12.856414 13.2670319-.0000001-.0000001c-1.8018339-.1572542-3.58106267.4885425-4.85913409 1.7636921-.04817838.0480011-.09361447.0973951-.13765252.1467623v-2.8444132c2.43644971-.411438 4.32642951-1.5963847 5.36844841-3.38887205 1.1425159-1.97217005 1.1356333-4.46410197-.0192767-7.01774959v.00000004c-.145802-.32330828-.4830125-.51727074-.8369381-.48140385l.0000004-.00000004c-.9555774.09155138-1.892448.32259844-2.78055412.68572995l-.00000005-.00000006c-.58967706-.756778-1.28822598-1.4227075-2.07306851-1.97626836l-.00000003-.00000003c-.28791155-.20601202-.67565612-.20601202-.96356767.00000006l.00000075-.00000053c-.78171308.55335996-1.47742829 1.21833051-2.06478785 1.97353615l-.00000021-.00000009c-.88960363-.3643985-1.82848256-.59548146-2.78606556-.68572995h-.00000002c-.35392023-.03587037-.69112858.15807977-.83693809.48137707-1.15076972 2.55364762-1.1562812 5.04560633-.01376525 7.01501739 1.0379054 1.79248739 2.92785841 2.97880019 5.3684484 3.39163109v2.8471186c-.04678035-.0507333-.09221643-.1014666-.13765252-.1494677l.00000024.0000002c-1.27754447-1.2750961-3.05634307-1.9209198-4.85776292-1.7636921h-.00000001c-.39986445.0345011-.71694919.3504188-.7515774.7488118l-.00000006.0000006c-.29191745 3.3565142 2.20247263 6.3132692 5.57137834 6.6041152.17559058.015159.35175596.0227732.52800496.0227732.1156335 0 .23263814 0 .34827164-.0109824h-.00000006c.04276638.0071198.08603955.0109824.12939848.0109824.04289812 0 .08571155-.0038046.12800071-.0109824.11700465.0068841.23263815.0109824.34690049.0109824h-.00000008c3.3815203-.0003079 6.122553-2.7317499 6.1222304-6.1008269-.0000161-.1755999-.0076424-.3511178-.0228574-.526062v.0000001c-.0371207-.4035387-.3635935-.7200834-.769483-.7460795zm-9.46086872 4.4257171.00000013.0000001c-.75058265-.7465215-1.20978555-1.734969-1.29530487-2.7881886 2.18123357.176066 3.91349917 1.9002086 4.09242069 4.0732359-1.05592659-.0839202-2.04743073-.5394364-2.79711541-1.2850472zm7.27493582 0-.0000001.0000001c-.7497626.7469206-1.74168345 1.2038659-2.79848651 1.2891724.17699991-2.1746372 1.90975132-3.9009999 4.09242031-4.0773616-.0856212 1.0529142-.5442544 2.041185-1.2939337 2.7881887z" transform="translate(8.96 5.76)"/></svg>