<svg height="32" viewBox="0 0 32 32" width="32" xmlns="http://www.w3.org/2000/svg"><path d="m12.8689168 6.86160649 1.8825124-1.00449343c.0470739-.02511825.1035711-.02511825.150645 0l1.8824623 1.00446668c.0779612.04159949.1748843.01212246.2164838-.06583877.0166587-.03121992.0224977-.0670816.0166035-.10197362l-.3604683-2.13384177c-.008676-.0513584.0081904-.10372554.0452091-.14036666l1.5298409-1.51423588c.0628034-.06216276.0633227-.16346782.0011599-.2262712-.0243868-.02463815-.056116-.04068943-.0904127-.04573833l-2.1090293-.31047528c-.0522795-.0076962-.0973874-.04070889-.1205328-.08821326l-.9447289-1.93898871c-.0387045-.07943824-.1344781-.11245946-.2139163-.07375495-.032189.01568336-.058187.04171073-.073834.07391742l-.9408338 1.93654516c-.0231197.04758798-.0682691.08067023-.1206119.08837573l-2.108915.31045846c-.0874233.0128698-.1478609.09417345-.1349911.18159679.0050489.03429672.0211002.06602591.0457383.09041274l1.5298509 1.51424575c.0370131.03663562.0538803.08899296.0452128.14034486l-.3605358 2.13603767c-.0147069.08713311.0440061.16969078.1311392.18439773.0348854.00588821.0707386.00004801.1019518-.01660713zm1.348049 6.86282631c-4.68213209 0-8.47730293-3.82456189-8.47730293-8.53959963 0-1.66777377.48185877-3.21809868 1.30059226-4.53139044-4.05315718 1.10188382-7.04025513 4.8260803-7.04025513 9.26137622 0 5.30441745 4.26636902 9.60518105 9.52843736 9.60518105 4.40495674 0 8.09991804-3.0173679 9.19156264-7.1109944-1.3048565.8285483-2.8463781 1.3154272-4.5030342 1.3154272z" transform="translate(6.72 6.24)"/></svg>