<svg height="12" viewBox="0 0 12 12" width="12" xmlns="http://www.w3.org/2000/svg"><path d="m9.24 1.5c.39764502 0 .72.32235498.72.72v7.25594692c0 .39764502-.32235498.71999998-.72.71999998-.08305543 0-.16548463-.0143704-.2436403-.0424755l-2.7527194-.98988806c-.15749016-.05663405-.32979044-.05663405-.4872806 0l-2.7527194.98988806c-.37418643.1345588-.78660595-.0596977-.92116477-.43388418-.02810507-.07815567-.04247553-.16058487-.04247553-.2436403v-7.25594692c0-.39764502.32235498-.72.72-.72zm-4.972 1.74h-.62066667c-.05366666 0-.08720833.01932224-.100625.05796672l-.00670833.04508523v3.9338961c0 .05152598.020125.08372971.060375.0966112l.04695833.00644075h.62066667c.056 0 .091-.01932224.105-.05796672l.007-.04508523v-3.9338961c0-.05152598-.021-.08372971-.063-.0966112zm3.71549669.06h-2.53668874c-.05340398 0-.08678146.01914581-.10013245.05743743l-.0066755.04467356v3.87133841c0 .0532753.02002649.08657236.06007947.09989119l.04672848.00665941h2.53668874c.09790728 0 .19062252-.01997824.27814569-.05993471.08752318-.03995648.16317881-.09323178.22696689-.1598259s.11496689-.14428727.15353643-.23307943c.02571302-.05919478.04285504-.12036272.05142604-.18350381l.00642826-.09619151v-2.61492928c0-.10063112-.01928477-.19534276-.0578543-.28413492-.03856954-.08879217-.08974835-.16648531-.15353643-.23307944-.06378808-.06659412-.13944371-.11912949-.22696689-.15760609-.05834878-.02565107-.11900515-.04275179-.18196909-.05130214zm-.23046639.72c.0439394 0 .08275253.01709459.1164394.05128378.02245791.0227928.03742985.0478979.04491582.07531532l.00561448.04286036v2.29662162c0 .04756757-.01684343.08844595-.0505303.12263514s-.0725.05128378-.1164394.05128378h-1.5730303v-2.64z" fill="#fff" fill-rule="evenodd"/></svg>