<svg height="32" viewBox="0 0 32 32" width="32" xmlns="http://www.w3.org/2000/svg"><g fill="#fff" fill-rule="evenodd"><g fill="none" stroke="#fff" stroke-width="1.92"><path d="m11.1693968 6.08h9.6c1.2371178 0 2.24 1.00288216 2.24 2.24v4.24c0 3.5788052-2.9011948 6.48-6.48 6.48h-1.12c-3.5788052 0-6.48000002-2.9011948-6.48000002-6.48v-4.24c0-1.23711784 1.00288217-2.24 2.24000002-2.24z"/><path d="m8.92939678 9.34315247c-2.0211488-2.58956146-3.6816066-3.16239586-4.98137341-1.7185032s.360691 3.41339313 4.98137341 5.90850133"/><path d="m28.4187936 9.34315247c-2.0211488-2.58956146-3.6816066-3.16239586-4.9813734-1.7185032-1.2997669 1.44389266.360691 3.41339313 4.9813734 5.90850133" transform="matrix(-1 0 0 1 51.42819 0)"/><path d="m16.049397 19.44.08 3.6" stroke-linecap="square"/><rect height="3.04" rx="1.52" width="11.68" x="10.209397" y="23.04"/></g><path d="m15.9650992 14.3338846-1.5527291.4240122c-.1704887.0465563-.3464385-.0539108-.3929948-.2243995-.0061597-.0225567-.0098285-.0457206-.0109407-.0690767l-.07656-1.6077602c-.0027212-.057144-.0207119-.1125136-.0520988-.1603436l-.8830793-1.3457061c-.0969616-.1477577-.0557832-.3461419.0919746-.4431035.0195492-.0128286.0404457-.0234759.062315-.0317511l1.5054124-.5696381c.0535063-.0202465.1006065-.0544668.1363964-.0990978l1.0069561-1.25570439c.1105631-.13787558.3119625-.16001667.4498381-.0494535.0182418.01462819.0348253.03121171.0494535.0494535l1.0069561 1.25570439c.0357898.044631.0828901.0788513.1363964.0990978l1.5054124.5696381c.1652933.062546.2485866.2472462.1860407.4125396-.0082752.0218693-.0189225.0427657-.0317511.062315l-.8830793 1.3457061c-.031387.04783-.0493777.1031996-.0520988.1603436l-.0765601 1.6077602c-.0084062.176531-.1583276.3128231-.3348586.3044169-.0233562-.0011122-.0465201-.004781-.0690768-.0109407l-1.5527291-.4240122c-.0551881-.0150705-.1134072-.0150705-.1685952 0z"/></g></svg>