<svg height="16" viewBox="0 0 35 16" width="35" xmlns="http://www.w3.org/2000/svg" xmlns:xlink="http://www.w3.org/1999/xlink"><linearGradient id="a" x1="2.066672%" x2="93.061572%" y1="42.391008%" y2="58.873582%"><stop offset="0" stop-color="#ffcb2f"/><stop offset="1" stop-color="#ff822f"/></linearGradient><linearGradient id="b" x1="9.744333%" x2="97.98475%" y1="41.519346%" y2="59.601369%"><stop offset="0" stop-color="#ffe599"/><stop offset="1" stop-color="#ffcb2f"/></linearGradient><g fill="none" fill-rule="evenodd"><rect fill="url(#a)" height="15.2" rx="7.6" stroke="url(#b)" stroke-width=".8" width="34.2" x=".4" y=".4"/><g fill="#fff" fill-rule="nonzero"><path d="m7.13101576 4.46819247c-.12811234 0-.25239873-.01876877-.37231262-.05144912.10099043-.16770207.19226647-.34762447.27352907-.53847813.03273191.00323813.06561851.00603282.09908261.00603282.66589953 0 1.01401899-1.03652089 1.01401899-1.84209308 0-.67197359-.3760045-1.02213494-.88699978-1.02213494.00046406-.20717836.00076313-.42169924.00064969-.59970351.77955372 0 1.36883128.62578386 1.36883128 1.62165283 0 1.1281785-.56425941 2.42617313-1.49678893 2.42617313zm-2.7668676 1.31180309c-1.46902764 0-2.77055947-1.79501646-2.77055947-4.00931904 0-.110117.00514594-1.63404846.01094157-1.74195859h5.47502606c.00575438.10791013-.00015468 1.63183128-.00015468 1.74195859 0 2.21430258-1.24619489 4.00931904-2.71525348 4.00931904zm-1.37697816-5.2203792-.68258517-.00316594s-.06950633 4.58203471 2.09826619 4.73687708c-1.65901505-1.21659798-1.41568102-4.73371114-1.41568102-4.73371114zm-1.45655982 3.324692c.03343316 0 .0663507-.00279469.09910324-.00603282.08126259.19084334.17249739.37077605.27350844.53847812-.11993451.03269067-.24420028.05144913-.37230231.05144913-.93256046 0-1.49679924-1.29800495-1.49679924-2.42617314 0-.99586897.58925694-1.62165282 1.36882097-1.62165282-.00010312.17800427.00019594.39253545.00063938.59970351-.51098497 0-.88698947.35016134-.88698947 1.02213494 0 .80557218.34809884 1.84209308 1.0140293 1.84209308zm2.31922207 2.62287399c0-.2580603.20922025-.46730117.46727023-.46730117.25812218 0 .4673218.20924087.4673218.46730117 0 .25810155-.20919962.46728054-.4673218.46728054-.25804998 0-.46725992-.20917899-.46725992-.46728054zm1.82495369 1.04240933c0 .24433435-.19808273.44238614-.44238614.44238614h-1.78072332c-.24433435 0-.44238614-.19805179-.44238614-.44238614 0-.24435497.19805179-.44240676.44238614-.44240676h1.78071301c.24431372 0 .44239645.19805179.44239645.44240676zm-3.10790237.61936947h3.36226048c.39917671 0 .44240676.46352679.44240676.70785083h-4.247074c0-.24431372.03215441-.70785083.44240676-.70785083z" transform="translate(6 4)"/><path d="m13.4324329 8.51569238c-.1341694 0-.264332-.019091-.3899154-.05233241.1057652-.17058122.2013568-.35359256.2864614-.54772283.0342795.00329372.0687209.00613639.1037672.00613639.6973829 0 1.0619613-1.05431611 1.0619613-1.87371853 0-.68351018-.3937818-1.03968317-.9289367-1.03968317.000486-.21073524.0007992-.42893906.0006804-.60999934.8164106 0 1.4335489.63652744 1.4335489 1.6494937 0 1.14754731-.5909373 2.46782619-1.5675563 2.46782619zm-2.8976836 1.3343244c-1.53848253 0-2.90155009-1.82583368-2.90155009-4.07815188 0-.11200751.00538924-1.66210215.01145889-1.7718649h5.7338824c.0060264.10976275-.000162 1.6598469-.000162 1.7718649 0 2.2523182-1.3051143 4.07815188-2.8436292 4.07815188zm-1.442081-5.31000377-.71485743-.0032203s-.07279255 4.66070005 2.19747113 4.81820079c-1.73745243-1.23748479-1.4826137-4.81498049-1.4826137-4.81498049zm-1.52542519 3.38177101c.03501387 0 .06948773-.00284267.10378879-.00613639.08510465.19411978.18065297.37714161.28643978.54772283-.12560496.0332519-.25574595.05233241-.38990457.05233241-.97665142 0-1.56756711-1.32028937-1.56756711-2.46782619 0-1.01296626.61711669-1.6494937 1.43353809-1.6494937-.000108.18106028.00020521.39927458.00066961.60999934-.53514407 0-.92892586.35617299-.92892586 1.03968317 0 .81940242.36455677 1.87371853 1.06197207 1.87371853zm2.42887366 2.66790408c0-.2624908.21911203-.4753239.48936253-.4753239.270326 0 .4894165.2128331.4894165.4753239 0 .2625327-.2190905.4753029-.4894165.4753029-.2702505 0-.48935173-.2127702-.48935173-.4753029zm1.91123653 1.0603056c0 .2485291-.207448.4499811-.4633019.4499811h-1.864915c-.25588634 0-.46330192-.201452-.46330192-.4499811 0-.2485501.20741558-.4500021.46330192-.4500021h1.8649042c.2558647 0 .4633127.201452.4633127.4500021zm-3.25484234.6300029h3.52122634c.4180496 0 .4633235.4714848.4633235.7200034h-4.44787336c0-.2485082.03367465-.7200034.46332352-.7200034z"/></g></g></svg>