<svg height="112" viewBox="0 0 343 112" width="343" xmlns="http://www.w3.org/2000/svg" xmlns:xlink="http://www.w3.org/1999/xlink"><defs><linearGradient id="a" x1="-2.776346%" x2="100%" y1="45.603438%" y2="55.142415%"><stop offset="0" stop-color="#ff9e99"/><stop offset="1" stop-color="#ff607c"/></linearGradient><rect id="b" height="110" rx="12" width="343" y=".008913"/><linearGradient id="c" x1="0%" x2="100%" y1="50%" y2="50%"><stop offset="0" stop-color="#fff"/><stop offset="1" stop-color="#fff" stop-opacity="0"/></linearGradient><linearGradient id="d" x1="0%" x2="100%" y1="47.58996%" y2="52.976098%"><stop offset=".00417018581" stop-color="#ffebe0"/><stop offset="1" stop-color="#ffd7e3"/></linearGradient><mask id="e" fill="#fff"><use fill="#fff" fill-rule="evenodd" xlink:href="#b"/></mask></defs><g fill="none" fill-rule="evenodd"><g transform="translate(0 .991087)"><use fill="url(#a)" xlink:href="#b"/><g fill="url(#c)"><path d="m324.660443-40h93v233h-93z" mask="url(#e)" opacity=".1" transform="matrix(.8660254 .5 -.5 .8660254 87.97607 -175.331165)"/><path d="m285.794398-40h93v233h-93z" mask="url(#e)" opacity=".1" transform="matrix(.8660254 .5 -.5 .8660254 82.769008 -155.898142)"/><path d="m246.928354-40h93v233h-93z" mask="url(#e)" opacity=".1" transform="matrix(.8660254 .5 -.5 .8660254 77.561945 -136.46512)"/><path d="m208.06231-40h93v233h-93z" mask="url(#e)" opacity=".1" transform="matrix(.8660254 .5 -.5 .8660254 72.354883 -117.032098)"/><path d="m169.196266-40h93v233h-93z" mask="url(#e)" opacity=".1" transform="matrix(.8660254 .5 -.5 .8660254 67.14782 -97.599076)"/><path d="m130.330221-40h93v233h-93z" mask="url(#e)" opacity=".1" transform="matrix(.8660254 .5 -.5 .8660254 61.940757 -78.166054)"/><path d="m91.464177-40h93v233h-93z" mask="url(#e)" opacity=".1" transform="matrix(.8660254 .5 -.5 .8660254 56.733695 -58.733032)"/><path d="m52.598133-40h93v233h-93z" mask="url(#e)" opacity=".1" transform="matrix(.8660254 .5 -.5 .8660254 51.526632 -39.30001)"/><path d="m13.732089-40h93v233h-93z" mask="url(#e)" opacity=".1" transform="matrix(.8660254 .5 -.5 .8660254 46.31957 -19.866988)"/><path d="m-25.133956-40h93v233h-93z" mask="url(#e)" opacity=".1" transform="matrix(.8660254 .5 -.5 .8660254 41.112507 -.433965)"/><path d="m-64-40h93v233h-93z" mask="url(#e)" opacity=".1" transform="matrix(.8660254 .5 -.5 .8660254 35.905445 18.999057)"/></g></g><rect height="108" rx="12" stroke="url(#d)" stroke-width="2" width="341" x="1" y="2"/></g></svg>