<svg height="16" viewBox="0 0 16 16" width="16" xmlns="http://www.w3.org/2000/svg" xmlns:xlink="http://www.w3.org/1999/xlink"><linearGradient id="a" x1="50%" x2="50%" y1="0%" y2="100%"><stop offset="0" stop-color="#e7e6f0"/><stop offset="1" stop-color="#cbc8dc"/></linearGradient><g fill="none" fill-rule="evenodd"><path d="m9.90040856 3.00081711 3.87448934 7.74897859c.5137376 1.0274753.097271 2.2768752-.9302043 2.7906129-.2888193.1444096-.6072945.2195914-.9302043.2195914h-7.7489786c-1.14875228 0-2.08-.9312477-2.08-2.08 0-.3229098.07518179-.641385.21959144-.9302043l3.8744893-7.74897859c.51373764-1.02747527 1.76313756-1.44394191 2.79061284-.93020427.402537.20126849.72893578.52766728.93020428.93020427z" fill="url(#a)"/><g fill="#fff"><rect height="1.76" rx=".88" transform="matrix(0 1 -1 0 15.12 -.88)" width="5.92" x="5.04" y="6.24"/><rect height="1.76" rx=".88" transform="matrix(0 1 -1 0 19.88 3.88)" width="1.84" x="7.08" y="11"/></g></g></svg>