<svg height="16" viewBox="0 0 16 16" width="16" xmlns="http://www.w3.org/2000/svg" xmlns:xlink="http://www.w3.org/1999/xlink"><linearGradient id="a" x1="50%" x2="50%" y1="0%" y2="100%"><stop offset="0" stop-color="#e7e6f0"/><stop offset="1" stop-color="#cbc8dc"/></linearGradient><path d="m10.9333125 8.23921875c-.8501625 0-1.5451875.45503437-1.86890625 1.16150625l-4.10916094-1.74787031c.23969532-.37130625.37139063-.826425.37139063-1.31717813 0-.20332968-.02399063-.40701093-.072-.59868281l2.62366875-2.035575c.347625.26337656.79105781.41903438 1.28217656.41903438 1.18612965 0 2.07253125-.88610625 2.07253125-2.0592 0-1.17351563-.8866969-2.05962188-2.07253125-2.05962188-1.1862 0-2.06064844.88609219-2.06064844 2.05962188 0 .29939062.05997657.57470625.15567188.81410625l-2.42029688 1.85572968c-.47908125-.71841093-1.26985781-1.2214125-2.16835312-1.2214125-1.4652-.00365625-2.65592813 1.18109532-2.65958224 2.64628125v.0120375c-.00275839 1.4652 1.18279474 2.65521094 2.64799474 2.65802344h.01167187c.55108125 0 1.06609219-.14335312 1.48549219-.4068l4.72054219 2.01138755c.06004687 1.1134125.92252812 1.9395421 2.06028286 1.9395421 1.1864812 0 2.0609156-.885825 2.0609156-2.0592703 0-1.17344529-.8867531-2.07158904-2.0605641-2.07158904h-.0002812z" fill="url(#a)" transform="translate(1.52 1.84)"/></svg>