<svg height="16" viewBox="0 0 18 16" width="18" xmlns="http://www.w3.org/2000/svg"><g fill="none" fill-rule="evenodd" transform="translate(-4 -5)"><rect fill="#7c66ff" height="10.27" rx="1.024" width="4.94" x="4.29" y="7.916439"/><path d="m8.32 7.32430233 2.86-1.62837698c.5743761-.32702828 1.04.12852816 1.04 1.01751378v12.67600057c0 .8889856-.4656239 1.3445421-1.04 1.0175138l-2.86-1.628377c-.57437614-.3270283-1.04-1.0577609-1.04-1.6321371v-8.18999998c0-.57437614.46562386-1.3051088 1.04-1.63213709z" fill="#7c66ff"/><path d="m16.7029682 5.96643942c2.9091677.97795111 5.0070318 3.751374 5.0070318 7.01999998 0 3.268626-2.0978641 6.0420489-5.0070318 7.02l-.0003756-.0127932c-.106366 0-.1925926-.0871453-.1925926-.1946446v-13.62512435c0-.09982075.0743485-.18209145.1701322-.19333512l.022653-.00145081z" fill="#c0b6ff"/><path d="m14.8202535 8.30643942c1.9636882.65315772 3.3797465 2.50548198 3.3797465 4.68854438s-1.4160583 4.0353866-3.3797465 4.6885444l-.0002535-.0085444c-.071797 0-.13-.058203-.13-.13v-9.10000001c0-.06666866.0501852-.12161593.1148393-.1291254l.0152907-.00096897z" fill="#9a89ff"/><path d="m13.5827147 10.6464394c.9454795.3259837 1.6272853 1.250458 1.6272853 2.34s-.6818058 2.0140163-1.6272853 2.34l-.0001221-.0042644c-.0345689 0-.0625926-.0290484-.0625926-.0648815v-4.5417081c0-.0332736.0241633-.0606972.055293-.0644451l.0073622-.0004836z" fill="#7c66ff"/></g></svg>