<svg height="30" viewBox="0 0 72 30" width="72" xmlns="http://www.w3.org/2000/svg"><g fill="none" fill-rule="evenodd"><rect fill="#ff607c" height="28" rx="14" stroke="#ffcb2f" stroke-width="2" width="70" x="1" y="1"/><text fill="#f1eeff" font-family="PingFangSC-Regular, PingFang SC" font-size="12"><tspan x="27" y="19">房间榜</tspan></text><g fill-rule="nonzero" transform="translate(5 3)"><path d="m14.1238446 1.74238484.2449221-1.4931658.2449222 1.4931658 1.4931658.24492216-1.4910174.2470706-.2449221 1.4931658-.2470706-1.4931658-1.4931658-.24492216zm-12.40938948 14.80704846.24062528-1.450197.24062528 1.450197 1.450197.2406253-1.450197.2406253-.24062528 1.450197-.24062528-1.450197-1.450197-.2406253zm15.76095588-11.77345118.161133-.98183708.161133.98183708.981837.161133-.981837.161133-.161133.98183708-.161133-.98183708-.9818371-.161133zm-11.27286472 8.64532258c.00859376.0171875.01718752.034375.02578128.0472657.06660164.122461.13750016.2406252.21269556.356641.00859376.0107422.01718752.0257813.02578128.0386719.07734384.1181642.15898456.23418.24492216.3480473.00214844.0021484.00214844.0064453.00859376.0085938.17832052.2320315.375977.4490239.59511788.6466804l.0107422.0107422c.10527356.0966798.214844.1890627.32656288.2771488.00644532.0021484.0107422.0085937.01718752.0107422.46406304.3609379.99043084.6337898 1.55117368.805665.00214844 0 .00214844.0021484.00644532.0021484.14179704.0408204.28359408.0773438.429688.1095704.1503908.0300782.30507848.0558595.4576177.0687501.0021485 0 .0085938 0 .0107422.0021485.1568361.0171875.3093754.0257812.4662115.0257812s.3093754-.0085937.464063-.0257812c.0021485 0 .0085938 0 .0107422-.0021485-1.86484588-.7390633-3.5470744-1.8111349-4.93926352-2.8832065.0214844.053711.04726568.1052736.0751954.1525393zm7.06621912 6.0586008c-.0666016-.2449222-.2900394-.4167974-.5435553-.4167974h-1.2031264v-2.0517602c-.3050785.0494141-.6166023.0773439-.9345714.0773439s-.63164134-.0279298-.93457138-.0773439v2.0453149c1.22031388.7820322 2.58672178 1.4910174 4.04980938 1.9765648-.0064453-.0279297-.0171875-.0558594-.0279297-.0816407zm-5.78789732 1.5404315c-.04726568.1697267-.0107422.3544926.09453136.4941412s.27285188.2234377.44902396.2234377h1.50175956c-.67461016-.3738285-1.31699372-.7820321-1.91426004-1.2009779zm12.46310042-1.4523455.2406253-1.450197.2406253 1.450197 1.450197.2406253-1.450197.2406253-.2406253 1.450197-.2406253-1.450197-1.450197-.2406253zm-19.20920202-5.7105535.10527356-.6423836.10527356.6423836.64238356.1052736-.64238356.1052735-.10527356.6423836-.10527356-.6423836-.64238356-.1052735z" fill="#ffc800"/><path d="m9.65079248 19.067405h-1.20097796-.00000002c-.25459444.0000211-.4774779.170928-.54355532.4167974l-.29218784 1.054884c.59941476.4189458 1.23964988.825001 1.91426004 1.200978h3.62441832c.3115238 0 .5671881-.253516.5671881-.5671882 0-.0472657-.0064453-.0945314-.0171875-.1396486-1.4630876-.4855474-2.827347-1.1923842-4.0498094-1.9765648l-.00214844.0107422z" fill="#ffdf00"/><path d="m5.06816996 8.17266576c.07734384-.01933596.15898456-.03007816.24062528-.03007816.07304696 0 .14609392.0107422.21699244.02578128v1.53828304c.88515728.81425878 2.00449452 1.74453328 3.2978554 2.59746398l.49628964-1.6349629-1.503908-1.13222784c-.05800788-.04511724-.08378916-.12031264-.06230476-.18906272s.0859376-.1181642.15683612-.1181642l1.89277564-.03867192.31582068-.89804792c-1.52968928-1.15800916-2.72422192-2.33320584-3.44609776-3.10019892h-.61015696c-.29648472 0-.53281312.24062528-.53281312.53496156v1.51894708c-.07304696-.00859376-.14609392-.0107422-.21699244-.0107422-.15898456 0-.32011756.0214844-.47480524.06230476-.41035204.10957044-.75625088.3544926-1.020509.69179768.20625024.22988308.4189458.4511724.6337898.67246172.15468768-.25136748.36308636-.42324268.61660228-.48984432z" fill="#ffc800"/><path d="m9.03633864 12.6478663c-.05800788.0408203-.1396486.0408203-.19765648-.0021485-.05800788-.0408203-.08378916-.1203126-.06230476-.1869142l.04726568-.1568362c-1.29121244-.8572275-2.41484656-1.7832052-3.2978554-2.59746392v.98828242c0 .1525392.00859376.3072269.01933596.4576177.00214844.019336.00214844.0386719.00214844.0623048.0107422.141797.03007816.283594.053711.4232426.00214844.0257813.00859376.0472657.0107422.0751954.02578128.1396486.053711.2771488.0859376.4103521.00214844.0193359.0107422.0408203.01718752.0623047.00644532.0257813.0107422.0472657.01933596.0687501-.64238356-.1052735-1.2675796-.7906259-1.503908-1.6800801-.1933596-.72617268-.09023448-1.44804852.214844-1.91426-.214844-.22128932-.42753956-.44472708-.6337898-.67246172-.53925844.68320392-.74336024 1.74453328-.45761772 2.81875332.00214844.0128906.00859376.0257812.0107422.0386719.66386796.6660164 1.55332212 1.4931658 2.62324524 2.3310574.02792972-.0021485.053711-.0064453.08164072-.0064453.01718752.0365234.03437504.0730469.053711.1095704 1.39218912 1.0720716 3.07441764 2.1441431 4.9392636 2.8832065.1525392-.0171875.3050784-.0386719.4554692-.0687501h.0064454c.1460939-.0300782.2878909-.0666016.4275395-.1095704.0021485 0 .0021485-.0021485.0064453-.0021485.5628913-.1697267 1.0849622-.4490239 1.5511737-.805665.0064453-.0021484.0107422-.0085937.0171875-.0107422.1138674-.0859376.2234378-.1804689.3287114-.2771487.0021484-.0021485.0085937-.0064454.0107422-.0107422.053711-.0494142.1052735-.0966798.1568361-.1503908-1.7552755-.4597662-3.3902383-1.2675796-4.82969314-2.1763698z" fill="#ffdf00"/><path d="m15.4386898 12.2482564c.0064454-.0214844.0107422-.0472656.019336-.06875.0064453-.019336.0107422-.0408204.0171875-.0623048.0343751-.1375002.0644532-.2707034.0859376-.4125005.0021485-.0257813.0085938-.0472657.0107422-.0751954.0171875-.1031251.0300782-.2083987.0408204-.3158207-1.0162121-.3458988-1.9851586-.8013681-2.8875034-1.3083999l-.8765635.6617195.5478522 1.791799c.0214844.06875-.0021484.1460939-.0623048.1869142-.0300781.0214844-.0644532.0343751-.0966798.0343751-.034375 0-.06875-.0107422-.0966798-.0300782l-1.5511736-1.0720715-1.3943376.9625011c1.4373064.913087 3.0722692 1.7166035 4.8296931 2.1763697.1568361-.1568361.3050785-.3244144.4404302-.5005865.0021485-.0021485.0021485-.0064453.0064453-.0085938.0859376-.1117189.1697268-.2298831.2449222-.3480473.0085938-.0107422.0171875-.0257812.0257813-.0386719.0751954-.1181642.1460939-.2341799.2126955-.356641.0085938-.0128907.0171876-.0300782.0257813-.0472657.0451173-.0837892.0902345-.1740236.1289064-.2599612.0558595.0064453.1117189.0107422.1654299.0107422.8099619 0 1.6091816-.5263678 2.1226587-1.3707048-.3179691-.0623047-.6337898-.1375001-.9453136-.2234377-.2878909.3673832-.6488289.6166023-1.0140637.6746101z" fill="#ffc800"/><path d="m11.4588023 9.25739348-.1-.08.025.08z" fill="#272636"/><path d="m17.9437709 9.64005028c-.3179691-.08164072-.6337898-.17402364-.9431652-.27714876.0666017.36738324.0558595.78632908-.0558594 1.20742328-.1031251.3824223-.2771488.7283212-.4941412 1.0076184.3115238.0859376.6273445.161133.9453136.2234377.1890627-.3115238.3330082-.6466804.4275395-1.001173.1009767-.395313.1417971-.7884775.1203127-1.16015762z" fill="#ffdf00"/><path d="m3.36660548 10.8388798c.38242232 1.3814469 1.450197 2.3332058 2.53730764 2.3332058.02792972 0 .05585944-.0021484.0859376-.0021484-1.06777468-.8335947-1.95937728-1.6628926-2.62324524-2.3310574zm12.27833462-2.6748078c.0730469-.01289064.1460939-.02578128.2169924-.02578128.0816407 0 .161133.0107422.2406253.03007816.464063.12246108.7841806.590821.8958995 1.1923842.3093753.10312512.625196.19550804.9431651.27714876-.0623047-1.14082164-.6660164-2.094729-1.6048846-2.34609648-.1525393-.04082036-.3158207-.0644532-.4748053-.06230476-.0730469 0-.1460939.00214844-.2169924.0107422v-1.51894708c0-.29648472-.2363284-.53496156-.5328131-.53496156h-5.087506c1.4630877 1.26328272 3.3988321 2.67910468 5.6224675 3.652348z" fill="#ffc800"/><path d="m10.117004 8.28868152.3072269-.87441508c.0257813-.06875008.0859376-.11386732.1589845-.11386732.073047 0 .1332033.04726568.1589846.11386732l.6144538 1.75527548.0257813.01718752 1.8669944.03867192c.0730469.00214844.1375001.04726568.1589845.1181642.0257813.06875008.0021485.14609392-.0558594.18906272l-.6316414.47480522c.9044933.5070319 1.8734397.9625011 2.8875034 1.3084.0021484-.0365235.0085938-.073047.0107422-.1095705.0021484-.0193359.0021484-.0386719.0021484-.0623047.0107422-.1525393.0171876-.3072269.0171876-.4576241v-1.84765204c-2.2236354-.97109488-4.1615283-2.38691684-5.6224675-3.652348h-3.34297266c.72402428.76914152 1.91855692 1.9443382 3.44394936 3.10234736z" fill="#ffdf00"/></g></g></svg>