<svg height="16" viewBox="0 0 16 16" width="16" xmlns="http://www.w3.org/2000/svg"><path d="m9.6046875 11.998125c-.135 0-.2925-.045-.4275-.1125l-2.925-1.4625-2.9475 1.4625c-.2925.1575-.675.135-.945-.0675s-.4275-.5625-.36-.9l.6075-3.15-2.3175-2.16c-.2475-.2475-.3375-.63-.2475-.945.1125-.3375.3825-.585.7425-.63l3.2175-.585 1.44-2.925c.1575-.315.4725-.5175.81-.5175s.675.2025.81.5175l1.44 2.925 3.2175.5625c.3375.045.63.2925.72.63.1125.3375.0225.6975-.225.945l-2.3175 2.1825.585 3.15c.0675.36-.09.6975-.36.9-.135.1125-.315.18-.5175.18z" fill="#ffcb2f" transform="translate(1.76 2)"/></svg>