<svg height="18" viewBox="0 0 17 18" width="17" xmlns="http://www.w3.org/2000/svg"><g fill="none" fill-rule="evenodd" transform="translate(-5 -4)"><path d="m6.99 4.42h12.15c1.0603867 0 1.92.85961328 1.92 1.92v14.0645585c0 .3534622-.2865378.64-.64.64-.1419061 0-.2797879-.0471627-.3919663-.1340727l-2.5735674-1.9938672c-.2307377-.1787636-.5531949-.1787636-.7839326 0l-3.2135674 2.4897061c-.2307377.1787637-.5531949.1787637-.7839326 0l-3.21356737-2.4897061c-.23073768-.1787636-.55319498-.1787636-.78393266 0l-2.57356734 1.9938672c-.27941591.216477-.68141657.1654549-.89789359-.113961-.08691002-.1121784-.13407274-.2500602-.13407274-.3919663v-14.0645585c0-1.06038672.85961328-1.92 1.92-1.92z" fill="#7c66ff"/><path d="m9.62 6.63c1.4215809 0 2.5766916 1.13308052 2.5996517 2.53949052l.0003483.04270126v2.67528062c0 .1235399-.1001489.2236888-.2236888.2236888-.0934507 0-.1770534-.0580935-.2096445-.145677-.0890558-.2393234-.3552596-.3611394-.594583-.2720836-.125918.0468559-.2252278.1461656-.2720837.2720836l-.0383993.1031921c-.0857193.2303574-.3419502.3476097-.5723077.2618904-.1159046-.0431299-.2086364-.132543-.2559597-.2467996-.09912398-.2393234-.37348981-.3529774-.61281321-.2538534-.11493462.0476041-.2062493.1389188-.25385342.2538534l-.08242677.1990099c-.09181242.2216703-.34594044.326941-.56761083.2351286-.09268278-.0383878-.16922415-.1076683-.21662907-.1960792-.12832244-.2393234-.42635827-.3293074-.66568166-.200985-.08532037.0457478-.15523721.1156647-.20098501.200985-.0601132.1121121-.19972938.1542655-.31184147.0941523-.07480744-.0401109-.12149186-.1181144-.12149186-.2029969v-3.00079002l.00034833-.04270126c.02296005-1.40641 1.17807072-2.53949052 2.59965167-2.53949052z" fill="#ffcb2f"/><g fill="#f1eeff"><rect height="1.69" rx=".832" width="5.59" x="13.78" y="9.23"/><rect height="1.69" rx=".832" width="7.93" x="11.44" y="14.04"/></g></g></svg>