<svg height="50" viewBox="0 0 50 50" width="50" xmlns="http://www.w3.org/2000/svg"><g fill="none" fill-rule="evenodd" transform="translate(-7.398403 -7.398403)"><circle cx="32.5" cy="32.5" fill="#7c66ff" r="23.5" stroke="#f1eeff" stroke-width="2" transform="matrix(-.5 .8660254 -.8660254 -.5 76.895826 20.604174)"/><g fill="#fff"><text font-family="MF-YuanHeiNoncommercial-Regular, MF YuanHei(Noncommercial)" font-size="8"><tspan x="25" y="48">随机</tspan></text><path d="m32.993135 39c-.3493694 0-.6918205-.1045944-.9893033-.2960553l-9.2150488-5.9867001c-.4951282-.3210918-.7933598-.8815176-.7887298-1.4820495l.0035135-9.7166429c-.0001995-.6103067.3089351-1.1768996.8163482-1.4962318l9.2236965-5.7473738c.5918263-.3672316 1.333809-.3665482 1.9249905.0017728l9.2167784 5.7562377c.5067739.3205861.8151167.8875987.8146192 1.4980046l-.0051893 9.7130973c.0042233.6013628-.2937469 1.1626369-.7886753 1.4855951l-9.2236966 5.9742906c-.2957532.1914609-.6399339.2960553-.9893032.2960553zm-9.2738536-7.7949423 9.1925646 5.970745c.0497998.0338199.1145077.0338199.1643074 0l9.1960237-5.9583355.0103774-9.6616864-9.1977533-5.7402828c-.0490325-.029886-.1100863-.029886-.1591187 0l-9.2012124 5.7331916-.0051887 9.6616865zm9.2600171 4.8113426h-.0034591c-.2302673-.0023299-.4501183-.0987-.6108258-.267751-.1607076-.1690511-.2489977-.3968199-.245302-.6328245l.015566-6.2579364c-.0023039-.235394.0868395-.4620593.2477704-.6300062.1609308-.1679469.3804295-.2633796.610087-.265251h.0017295c.4781661.0068102.8609371.408661.8561278.8988028l-.0121068 6.2579363c.0038392.49082-.3807455.892157-.859587.89703zm-.9529827-9.0855308c-.1738614.0019852-.3451323-.0432792-.4963812-.1311862l-6.5013829-3.6962599c-.454872-.2570541-.5984247-.8083907-.3234261-1.2303139.2994164-.4298306.8661547-.5603626 1.3161885-.3031464l6.5013829 3.6962598c.4531424.2570541.5984247.8083907.3234261 1.2338594-.1863616.2744148-.4936461.4358847-.8198073.4307872zm2.9419666.2464173c-.3029664-.0004034-.5831635-.1649038-.7367888-.4325599-.2456128-.4230267-.117475-.969625.2888351-1.2320867l5.8320466-3.694487c.1944919-.1245124.4299084-.1629253.6525061-.1064693.2225976.0564559.4133744.2029613.5287774.4060702.2490527.4226444.1212405.9719278-.2871055 1.2338594l-5.8337762 3.6962599c-.1337561.0841655-.2875456.1289409-.4444947.1294134zm-5.9894358-6.1338413c0 .6062929.4704379 1.0973548 1.0515671 1.0973548s1.0515672-.4910619 1.0515672-1.0973548c0-.606293-.4687084-1.0991277-1.0515672-1.0991277-.5857007.0077843-1.0554199.4987481-1.0515671 1.0991277zm-2.1169707 8.6777899c0 .6045202.4687084 1.0973549 1.0515672 1.0973549.5793996 0 1.0498376-.4928347 1.0498376-1.0973549s-.4687084-1.0973548-1.0498376-1.0973548c-.5858262.0058479-1.0563657.4968758-1.0515672 1.0973548zm7.9248036-8.6777899c0 .6062929.470438 1.095582 1.0515672 1.095582.2810331-.0023395.5496215-.1191413.746556-.3246569.1969346-.2055155.3060461-.4828712.3032816-.7709251.0057628-.6004836-.4640082-1.0923105-1.0498376-1.0991277-.5861034.0068182-1.0563703.4983544-1.0515672 1.0991277zm.3130488 11.5851598c0 .6098385.4704379 1.0973548 1.0515671 1.0973548.2811808-.0023337.5498596-.1194362.7465699-.3253891.1967102-.205953.3052291-.4837714.3015382-.7719657.0027657-.2877495-.106109-.5648382-.3026703-.7703028-.1965613-.2054645-.4647057-.322472-.7454378-.3252793-.585146.0058484-1.0554071.4957929-1.0515671 1.0955821zm2.2103664-2.9038243c0 .606293.4687084 1.0973548 1.0498376 1.0973548.5858262-.0058479 1.0563657-.4968758 1.0515672-1.0973548.0027657-.2886898-.1064735-.5666804-.3036835-.7728098s-.4662342-.3235106-.7478837-.3263178c-.2814936.0028052-.5503424.1202435-.7472779.3264251-.1969354.2061815-.3057876.4841774-.3025597.7727025zm2.2069074-2.9091427c0 .606293.4687084 1.0973549 1.0498376 1.0973549s1.0515671-.4910619 1.0515671-1.0973549-.4687084-1.0991276-1.0515671-1.0991276c-.5828588 0-1.0498376.4928346-1.0498376 1.0991276z" fill-rule="nonzero"/></g></g></svg>