<svg height="16" viewBox="0 0 16 16" width="16" xmlns="http://www.w3.org/2000/svg"><path d="m12.4160922 0-8.23293312.01131037c-.4860897.08536668-.80181002.5316995-.80181002 1.02275005v1.07327184h-.00024747v6.8163865c-.3867437-.38590984-.76856534-.5406095-1.25578418-.5406095-1.17186358 0-2.12531741.94868759-2.12531741 2.11483294 0 1.1657062.95345518 2.0620578 2.12531741 2.0620578 1.117337 0 2.00430686-.7892301 2.09721632-2.0068655v-6.36771718l8.46709987.0075356v3.79290792c-.3476156-.38588298-.7178343-.45664599-1.2013395-.45664599-1.1635594 0-2.17574628.94159182-2.17574628 2.09929583 0 1.15770402 1.01218818 2.09981952 2.17574628 2.09981952 1.1094182 0 2.0437666-.9213492 2.0315882-2.08706217v-5.9780943-1.82616767-.84065835c0-.66236162-.6179479-.99351558-1.1037905-.99634771zm.2735772 3.35984039-8.45431454-.00990472v-1.58038055c0-.04295842.03063153-.07926128.07311424-.08635678l8.2774545-.01886651c.0051694-.00096258.0103663-.00143011.0150958-.00143011.0207877 0 .0415478.00709555.0570561.02076413.0202652.01652882.0315939.04103328.0315939.06702282v.31511998z" fill="#f1eeff" transform="translate(1.28 1.76)"/></svg>