<svg height="39" viewBox="0 0 39 39" width="39" xmlns="http://www.w3.org/2000/svg" xmlns:xlink="http://www.w3.org/1999/xlink"><linearGradient id="a" x1="50%" x2="50%" y1="0%" y2="100%"><stop offset="0" stop-color="#e7e6f0"/><stop offset="1" stop-color="#cbc8dc"/></linearGradient><g fill="none" fill-rule="evenodd"><path d="m24.0624805 7.17496107 9.5702744 19.14054863c1.2329703 2.4659407.2334504 5.4645005-2.2324903 6.6974708-.6931663.3465832-1.4575068.5270195-2.2324903.5270195h-19.1405486c-2.7570055 0-4.99200003-2.2349945-4.99200003-4.992 0-.7749835.1804363-1.5393239.52701946-2.2324903l9.57027437-19.14054863c1.2329703-2.46594065 4.2315301-3.46546059 6.6974708-2.23249026.9660888.48304439 1.7494458 1.26640147 2.2324902 2.23249026z" fill="url(#a)"/><g fill="#fff"><path d="m14.397 15.21h10.206c1.1664254 0 2.112.9455746 2.112 2.112v.066c0 1.1664254-.9455746 2.112-2.112 2.112h-10.206c-1.1664254 0-2.112-.9455746-2.112-2.112v-.066c0-1.1664254.9455746-2.112 2.112-2.112z" transform="matrix(0 1 -1 0 36.855 -2.145)"/><path d="m19.3695 26.8125h.261c1.1664254 0 2.112.9455746 2.112 2.112v.066c0 1.1664254-.9455746 2.112-2.112 2.112h-.261c-1.1664254 0-2.112-.9455746-2.112-2.112v-.066c0-1.1664254.9455746-2.112 2.112-2.112z" transform="matrix(0 1 -1 0 48.4575 9.4575)"/></g></g></svg>