<svg height="39" viewBox="0 0 39 39" width="39" xmlns="http://www.w3.org/2000/svg" xmlns:xlink="http://www.w3.org/1999/xlink"><linearGradient id="a" x1="50%" x2="50%" y1="0%" y2="100%"><stop offset="0" stop-color="#e7e6f0"/><stop offset="1" stop-color="#cbc8dc"/></linearGradient><path d="m31.2004762 8.24683223c-.016421-.44336842-.3612632-.82105262-.8210526-.82105262l-7.3073684.03284209c-.3776842 0-.6404211-.312-.6568422-.65684209-.016421-.36126315.312-.65684211.6568422-.65684211h4.1545263c.4269473 0 .8374737-.3776842.8210526-.82105262-.016421-.44336842-.3612631-.82105262-.8210526-.82105265h-2.9065263c-2.1511579-2.74231577-5.4846316-4.48294735-9.2286316-4.48294735-6.48631583 0-11.74105264 5.25473685-11.74105264 11.74105262 0 1.0345263.13136842 2.0526316.39410524 3.0050526h-1.28084209c-.42694738 0-.83747369.3776842-.82105265.8210527.01642105.4433684.36126316.8210526.82105265.8210526h2.98863158c.2463158 0 .45978946.2134737.45978946.4597895s-.21347369.4597894-.45978946.4597894h-4.63073684c-.42694739 0-.8374737.3776842-.82105265.8210527.01642104.4433684.36126315.8210526.82105265.8210526h5.00842104v.0164211h1.33010526c.26273685 0 .49263158.2298947.49263158.4926315 0 .2627369-.22989473.4926316-.49263158.4926316h-1.16589473c-.37768419.0656842-.68968419.4105263-.67326315.8046316.01642104.4433684.36126315.8210526.82105262.8210526h2.51242107c1.85557894 1.2151579 4.05600004 1.9212632 6.43705264 1.9212632 6.4206316 0 11.6425263-5.1562105 11.7410526-11.5768421h1.1002105c.4269474 0 .8374737-.3776842.8210527-.8210526-.0164211-.4433685-.3612632-.8210527-.8210527-.8210527l-3.3498947-.016421c-.3448421 0-.5911579-.2791579-.5911579-.59115792-.016421-.32842104.2791579-.59115789.5911579-.59115792l5.7966316-.01642104c.4269474-.01642104.8374737-.39410527.8210526-.83747369zm-2.4795789-2.16757893h.9852631c.4269474 0 .8374737-.37768419.8210526-.82105265-.016421-.44336845-.3612631-.82105261-.8210526-.82105261h-.9852631c-.4269474 0-.8374737.37768419-.8210527.82105261.0328421.44336843.3612632.82105265.8210527.82105265zm-27.2261053 13.9414737c-.42694738 0-.83747369.3776842-.82105262.8210526.01642107.4433685.36126316.8210526.82105262.8210526.42694738 0 .83747369-.3776842.82105262-.8210526s-.36126316-.8210526-.82105262-.8210526z" fill="url(#a)" transform="translate(3.9 7.8)"/></svg>