<svg height="39" viewBox="0 0 39 39" width="39" xmlns="http://www.w3.org/2000/svg" xmlns:xlink="http://www.w3.org/1999/xlink"><linearGradient id="a" x1="50%" x2="50%" y1="0%" y2="100%"><stop offset="0" stop-color="#e7e6f0"/><stop offset="1" stop-color="#cbc8dc"/></linearGradient><g fill="none" fill-rule="evenodd"><path d="m21.4119 5.53254433 9.4590089 5.46116137c1.1227546.6482227 1.8144 1.8461876 1.8144 3.142633v10.9223226c0 1.2964454-.6916454 2.4944103-1.8144 3.142633l-9.4590089 5.4611614c-1.1227546.6482227-2.5060454.6482227-3.6288 0l-9.45900891-5.4611614c-1.12275463-.6482227-1.8144-1.8461876-1.8144-3.142633v-10.9223226c0-1.2964454.69164537-2.4944103 1.8144-3.142633l9.45900891-5.46116137c1.1227546-.64822269 2.5060454-.64822269 3.6288 0z" fill="url(#a)" transform="matrix(.8660254 .5 -.5 .8660254 12.424317 -7.173183)"/><circle cx="19.2075" cy="19.5975" fill="#fff" r="4.5825"/></g></svg>