<svg height="39" viewBox="0 0 39 39" width="39" xmlns="http://www.w3.org/2000/svg" xmlns:xlink="http://www.w3.org/1999/xlink"><linearGradient id="a" x1="50%" x2="50%" y1="0%" y2="100%"><stop offset="0" stop-color="#ce7eff"/><stop offset="1" stop-color="#7c66ff"/></linearGradient><g fill="none" transform="translate(3.9 3.9)"><path d="m30.7195668 18.3066c-.1451709.1427419-.3161704.2565651-.50388.3354v.01716l-6.24 2.27136 4.87656 4.87032c.3812172.3537728.538465.8876846.4098574 1.3916111-.1286075.5039264-.5224796.8971864-1.0266054 1.0250101-.5041259.1278236-1.0377925-.0302543-1.390972-.4120212l-4.94988-4.94208c-.1603431-.1667595-.2762111-.3711377-.33696-.59436l-2.847 7.839h-.01404c-.0758213.2276096-.2022253.4350829-.36972.60684-.6316626.6311981-1.6552974.6311981-2.28696 0-.03588-.03588-.04836-.08268-.07956-.12012-.0056699.0110693-.0124658.0215245-.02028.0312l-5.48496-7.06992-8.78748-.26832c-.63431099.0305194-1.22603347-.3190443-1.50541364-.8893324-.27938017-.5702882-.19291666-1.2520905.21997364-1.7345876-.00936 0-.01872-.01404-.02808-.01872l4.93428-7.27116-2.40084-8.36784h.00936c-.26658228-.60627809-.13426422-1.31398344.33336129-1.78298837.4676255-.46900492 1.17493803-.60340696 1.78199871-.33861163v-.02496l8.3772 2.40708 7.34604-4.992c.00624.01092.0156.02184.0156.03744.6318881-.45963 1.5037671-.39357857 2.0592.156.2701646.27717187.4303896.64308356.45084 1.0296h.02964l.26832 8.9388 7.0434 5.4756-.0156.02184c.0440835.0263868.08678.0550247.12792.0858.6316343.6307273.6337276 1.6536529.00468 2.28696z" fill="url(#a)"/><path d="m30.473829 10.7581865c-.0435653.0428483-.0948816.0770158-.1512125.1006805v.005151l-1.8726007.6818175c-.4033662.1340749-.6452438.2680033-.7256328.4017852l-.8543741 2.353113h-.0042134c-.0227536.0683239-.060687.1306033-.1109515.1821614-.1895596.1894732-.4967486.1894732-.6863082 0-.0107675-.0107705-.0145127-.0248189-.0238757-.0360577-.0017015.0033228-.0037409.0064613-.0060859.0093657l-1.646016-2.1222504-2.63709-.0805444c-.1903544.0091614-.3679281-.0957708-.451769-.26696-.083841-.1711892-.0578936-.3758528.0660132-.5206889-.0028089 0-.0056178-.0042146-.0084267-.0056194l1.4807591-2.18265863-.7204832-2.51186031h.0028089c-.0800003-.18199271-.0402922-.39443188.1000405-.5352179s.3525945-.18113085.5347712-.10164453v-.00749249l2.5139664.72255787 2.2045192-1.49849981c.0018726.00327797.0046815.00655594.0046815.01123875.1896273-.13797185.4512749-.11814451.6179583.04682812.0810754.08320152.1291583.19304098.1352954.30906559h.0088948l.0805219 2.68325122 2.113698 1.64366702-.0046815.0065559c.0132293.0079208.0260424.0165173.0383883.0257555.1895511.1893318.1901793.4963939.0014045.6865002z" fill="#ffbadd"/></g></svg>