<svg height="39" viewBox="0 0 39 39" width="39" xmlns="http://www.w3.org/2000/svg" xmlns:xlink="http://www.w3.org/1999/xlink"><linearGradient id="a" x1="50%" x2="50%" y1="0%" y2="100%"><stop offset="0" stop-color="#e7e6f0"/><stop offset="1" stop-color="#cbc8dc"/></linearGradient><path d="m15.6 31.2c-8.6156421 0-15.6-6.9843579-15.6-15.6s6.9843579-15.6 15.6-15.6 15.6 6.9843579 15.6 15.6-6.9843579 15.6-15.6 15.6zm0-9.6135c1.5743376.0303181 3.0895585-.5994133 4.1786508-1.7366626 1.0890922-1.1372494 1.6527149-2.6782833 1.5543492-4.2498374.0324236-1.5284289-.5618198-3.0035922-1.6446654-4.0827547s-2.560025-1.66837632-4.0883346-1.6307453c-1.5727642-.07301064-3.1035337.5198465-4.2168436 1.6331564s-1.70616704 2.6440794-1.6331564 4.2168436c-.09811197 1.5795561.4866491 3.1252162 1.6057165 4.2442835 1.1190673 1.1190674 2.6647274 1.7038285 4.2442835 1.6057165z" fill="url(#a)" transform="translate(3.9 3.9)"/></svg>