<svg height="39" viewBox="0 0 39 39" width="39" xmlns="http://www.w3.org/2000/svg" xmlns:xlink="http://www.w3.org/1999/xlink"><linearGradient id="a" x1="50%" x2="50%" y1="0%" y2="100%"><stop offset="0" stop-color="#e7e6f0"/><stop offset="1" stop-color="#cbc8dc"/></linearGradient><g fill="none" transform="translate(6.435 5.655)"><path d="m21.0024052 16.7544h-15.79681044c-.58412197 0-1.11493971.3396217-1.35973874.8699725l-3.44766652 7.46928c-.85087203 1.8433921.45404531 3.5479475 2.44889783 3.5479475h20.51382537c1.9948525 0 3.2997698-1.7045554 2.4488978-3.5479475l-3.4476665-7.46928c-.2447991-.5303508-.7756168-.8699725-1.3597388-.8699725z" fill="#f3f1ff"/><path d="m13.104.1404c2.8948557 0 5.2416 2.34674426 5.2416 5.2416l-.0002 4.8194 3.2294.001c2.4104105 0 4.3774739 1.8981945 4.4879098 4.2813032l.0048902.2114968v3.5568c0 .8271016-.6704984 1.4976-1.4976 1.4976h-22.932c-.82710164 0-1.4976-.6704984-1.4976-1.4976v-3.5568c0-2.4813049 2.01149508-4.4928 4.4928-4.4928l3.2282-.001.001-4.8194c0-2.82248435 2.2308738-5.12392022 5.0255416-5.23722796z" fill="url(#a)"/></g></svg>