<svg height="39" viewBox="0 0 39 39" width="39" xmlns="http://www.w3.org/2000/svg" xmlns:xlink="http://www.w3.org/1999/xlink"><linearGradient id="a" x1="50%" x2="50%" y1="0%" y2="100%"><stop offset="0" stop-color="#e7e6f0"/><stop offset="1" stop-color="#cbc8dc"/></linearGradient><path d="m28.9911375 10.6360313h.00936c-.79248 11.87784-14.31456 16.848-14.31456 16.848s-13.78416-5.4132-14.62344-16.848h.00624c-.03130699-.3110163-.04680077-.6234121-.04680077-.93600005-.00098121-3.45582928 1.84248796-6.64945566 4.83551319-8.37704269 2.99302524-1.72758704 6.68052128-1.72645756 9.67248758.00296269 2.9919663-1.72942025 6.6794623-1.73054973 9.6724876-.00296269 2.9930252 1.72758703 4.8364944 4.92121341 4.8355132 8.37704269 0 .31258795-.0154938.62498375-.0468008.93600005zm-19.7808-7.09800005c-.39378266-.36745795-.97033414-.46108597-1.46016-.23712-1.47662445.81319056-2.75265632 1.94637509-3.73464 3.31656-.28070093.45859066-.25729956 1.04116158.05928 1.47576.15290795.17809607.38226117.27160523.61610361.25119042.23384243-.02041482.44352254-.15225229.56325639-.35415042 1.04713781-1.30906736 2.31017917-2.42966045 3.73464-3.31344.20941548-.09560148.35978043-.28644025.40373621-.51241011.04395578-.22596985-.02390767-.45925853-.18221621-.62638989z" fill="url(#a)" transform="translate(5.07 5.85)"/></svg>