<svg height="39" viewBox="0 0 39 39" width="39" xmlns="http://www.w3.org/2000/svg" xmlns:xlink="http://www.w3.org/1999/xlink"><linearGradient id="a" x1="50%" x2="50%" y1="0%" y2="100%"><stop offset="0" stop-color="#e7e6f0"/><stop offset="1" stop-color="#cbc8dc"/></linearGradient><path d="m13.1829412 2.49459874c-.6876329-.40471836-2.9193369-1.57293917-4.25364269-2.31657812-1.1655006-.64556303-1.51676436.74488043-1.62847367 1.68467122-.11170931.9397908-.11170931 2.17629231 1.10964592 2.17629234h4.46837294c1.2176316.01489761 1.2176316-.96834456.3040975-1.54438544zm-13.1829412 4.8305496v2.78088696c0 1.025452.35126376 1.559283 1.72652963 1.559283h10.17796047v-5.74426958h-10.2052672c-1.4038138 0-1.6992229.44941119-1.6992229 1.40409962zm1.16550061 17.38054336c.01365335 2.14898 1.26355656 3.3705839 3.9458215 3.3705839h6.72490119v-14.2917725h-10.67072269s-.01365335 8.7771744 0 10.9261544zm26.91449939-17.26756983c0-.94103227-.4071184-1.51707315-1.7972789-1.51707315h-10.0389444v5.74302808h10.1084524c1.3765071 0 1.7265297-.4779649 1.7265297-1.5021755zm-7.0339637-5.58660323c-.1117093-.9546884-.4629731-2.33147573-1.6284736-1.68467123-1.3343058.74488043-3.5660099 1.90937684-4.2399894 2.31657813-.9271874.56114327-.9271874 1.54438543.2954091 1.54438543h4.4683729c1.2163903-.00248292 1.2163903-1.22408683 1.104681-2.17877526zm-4.8022596 11.93298446v14.2954969h6.5151359c2.6810238 0 3.8750723-1.3482336 3.9036202-3.4972136.0285479-2.1489801 0-10.8007662 0-10.8007662z" fill="url(#a)" transform="translate(5.46 5.46)"/></svg>