<svg height="39" viewBox="0 0 39 39" width="39" xmlns="http://www.w3.org/2000/svg" xmlns:xlink="http://www.w3.org/1999/xlink"><linearGradient id="a" x1="50%" x2="50%" y1="0%" y2="100%"><stop offset="0" stop-color="#e7e6f0"/><stop offset="1" stop-color="#cbc8dc"/></linearGradient><path d="m.11060156 26.0785078c-.31169531.53625.16422656 1.1864531.77421094 1.0590938l2.49021094-.5261953c.36196875-.077086.72058593.1307109.83453906.4792734l.78761719 2.413125c.19103906.589875.99541406.6736641 1.30710937.1374141l3.08678906-5.3256329c-2.45669531-.405539-4.6921875-1.4679843-6.5154375-3.0063515zm23.41736714-.0268125-2.9192109-4.9804219c-1.7930859 1.5953438-4.0118203 2.7181172-6.4651641 3.1839844l3.1437657 5.3692031c.3116953.5328985 1.1127187.4491094 1.3071093-.137414l.8010235-2.4231797c.1139531-.3452109.4725703-.5530078.8311875-.4759219l2.5304297.5261953c.6099843.1273594 1.0859062-.5261953.7708593-1.0624453zm-.9887109-15.1121953c0-6.03616406-4.8932812-10.92944531-10.9294453-10.92944531-6.03616406 0-10.92944531 4.89328125-10.92944531 10.92944531 0 6.0361641 4.89328125 10.9294453 10.92944531 10.9294453 6.0361641 0 10.9294453-4.8932812 10.9294453-10.9294453zm-10.9327969 8.3051719c-4.58828903 0-8.3085234-3.7202344-8.3085234-8.3085235 0-4.58828902 3.72023437-8.3085234 8.3085234-8.3085234 4.5882891 0 8.3085235 3.72023438 8.3085235 8.3085234 0 4.5882891-3.7202344 8.3085235-8.3085235 8.3085235zm0-13.9894219c-3.14041403 0-5.68424996 2.54383594-5.68424996 5.68425 0 3.1404141 2.5471875 5.68425 5.68424996 5.68425 3.1370625 0 5.68425-2.5438359 5.68425-5.68425 0-3.14041406-2.5438359-5.68425-5.68425-5.68425z" fill="url(#a)" transform="translate(7.605 4.68)"/></svg>