<svg height="39" viewBox="0 0 39 39" width="39" xmlns="http://www.w3.org/2000/svg" xmlns:xlink="http://www.w3.org/1999/xlink"><linearGradient id="a" x1="50%" x2="50%" y1="0%" y2="100%"><stop offset="0" stop-color="#e7e6f0"/><stop offset="1" stop-color="#cbc8dc"/></linearGradient><g fill="none" fill-rule="evenodd"><rect fill="url(#a)" height="15.405" rx="1.536" width="7.41" x="6.435" y="11.874659"/><path d="m12.48 10.9864535 4.29-2.44256547c.8615642-.49054243 1.56.19279223 1.56 1.52627067v19.0140009c0 1.3334784-.6984358 2.016813-1.56 1.5262706l-4.29-2.4425654c-.8615642-.4905425-1.56-1.5866415-1.56-2.4482057v-12.285c0-.8615642.6984358-1.9576632 1.56-2.4482056z" fill="url(#a)"/><g fill="#cbc8dc"><path d="m25.0544523 8.94965913c4.3637515 1.46692667 7.5105477 5.62706097 7.5105477 10.52999997s-3.1467962 9.0630734-7.5105477 10.53l-.0005634-.0191898c-.1595489 0-.2888889-.130718-.2888889-.2919669v-20.43768653c0-.14973111.1115227-.27313717.2551983-.29000267l.0339795-.00217622z" fill-opacity=".6"/><path d="m22.2303803 12.4596591c2.9455323.9797366 5.0696197 3.758223 5.0696197 7.0328166s-2.1240874 6.05308-5.0696197 7.0328165l-.0003803-.0128165c-.1076955 0-.195-.0873045-.195-.195v-13.65c0-.100003.0752778-.1824239.1722589-.1936881l.0229361-.0014535z" opacity=".8"/><path d="m20.374072 15.9696591c1.4182192.4889756 2.440928 1.875687 2.440928 3.51s-1.0227088 3.0210245-2.440928 3.51l-.0001831-.0063966c-.0518534 0-.0938889-.0435727-.0938889-.0973223v-6.8125622c0-.0499103.0362449-.0910457.0829395-.0966675l.0110433-.0007254z"/></g></g></svg>