<svg height="39" viewBox="0 0 39 39" width="39" xmlns="http://www.w3.org/2000/svg" xmlns:xlink="http://www.w3.org/1999/xlink"><linearGradient id="a" x1="50%" x2="50%" y1="0%" y2="100%"><stop offset="0" stop-color="#e7e6f0"/><stop offset="1" stop-color="#cbc8dc"/></linearGradient><path d="m21.823133 14.095825c.8373758 0 1.6282307.158171 2.3725647.474513.744334.3163419 1.3956262.7536381 1.9538767 1.3118886s1.0001988 1.2095428 1.3258449 1.9538768c.3256462.744334.4884692 1.5351888.4884692 2.3725646 0 .8373757-.1628231 1.6282306-.4884692 2.3725646s-.7675944 1.3956262-1.3258449 1.9538767-1.2095428 1.0001988-1.9538767 1.325845c-.744334.3256461-1.5351889.4884692-2.3725647.4884692-.8559841 0-1.6561431-.1628231-2.4004771-.4884692s-1.3956262-.7675945-1.9538767-1.325845-.9955468-1.2095427-1.3118887-1.9538767-.4745129-1.5351889-.4745129-2.3725646c0-.8373758.1581709-1.6282307.4745129-2.3725646.316342-.744334.7536382-1.3956263 1.3118887-1.9538768.5582504-.5582505 1.2095427-.9955467 1.9538767-1.3118886.744334-.316342 1.5444931-.474513 2.4004771-.474513zm3.0424652 7.0618688c.2791253 0 .5163818-.0837375.7117694-.2512127.1953877-.1674752.2930815-.3907753.2930815-.6699006 0-.2791252-.0976938-.5163817-.2930815-.7117694-.1953877-.1953876-.4326441-.2930815-.7117694-.2930815h-6.0291053c-.2791253 0-.5163817.0976939-.7117694.2930815-.1953877.1953877-.2930815.4326442-.2930815.7117694 0 .2791253.0976938.5024254.2930815.6699006s.4326442.2512127.7117694.2512127zm-11.1650099 1.591014c.0744334.372167.1953877.7629423.3628628 1.172326.1674752.4093837.4140358.8234195.7396819 1.2421074.3256462.4186878.7350299.8327236 1.2281511 1.2421073.4931213.4093837 1.1211531.7908549 1.8840954 1.1444135-.5024254.1116501-1.0885884.2046919-1.758489.2791253-.5768589.0744334-1.274672.1349105-2.0934394.1814314-.8187674.0465208-1.7584891.0697813-2.819165.0697813-.5396422 0-1.1630219-.0186083-1.87013916-.055825-.70711729-.0372167-1.44214711-.0883897-2.20508947-.1535189-.76294236-.0651293-1.51658053-.1442148-2.26091451-.2372565s-1.42353875-.1860835-2.03761431-.2791252c-.61407556-.0930418-1.13510936-.1860835-1.56310139-.2791253-.42799203-.0930417-.69781311-.1860834-.80946323-.2791252-.18608349-.1488668-.3302982-.6047714-.43264414-1.3677137-.10234593-.7629424-.06047714-1.7491849.12560637-2.9587277.1116501-.6885089.39077535-1.2141948.83737573-1.5770576.44660039-.3628628.97228627-.6512922 1.57705765-.8652883.60477137-.213996 1.22815109-.4047316 1.87013916-.5722067.64198807-.1674752 1.21419483-.4093837 1.71662029-.7257257.39077535-.2419085.69316104-.479165.90715706-.7117693.21399601-.2326044.36286281-.4605567.44660039-.6838569.08373757-.2233002.12560636-.4559046.12560636-.6978131 0-.2419086-.00930418-.5117296-.02791253-.8094633-.0372167-.427992-.18608349-.7675944-.44660039-1.0188071-.2605169-.2512128-.53964215-.5070776-.83737574-.7675945-.1488668-.1302584-.28377733-.3116898-.4047316-.5442942s-.22795228-.4698608-.32099403-.7117694c-.09304174-.2791252-.18608349-.5768588-.27912523-.8932008-.13025846-.0372167-.26051691-.1023459-.39077535-.1953877-.1116501-.0930417-.22795229-.2233002-.34890656-.3907753-.12095427-.1674752-.22795228-.4093837-.32099402-.7257257-.1116501-.3163419-.15351889-.60477136-.12560637-.86528826.02791253-.26051689.07908549-.49312127.1535189-.69781311.07443341-.20469185.19538768-.40007953.36286281-.58616304 0-.70711729.03721671-1.41423458.11165012-2.12135189.0744334-.5954672.20469185-1.23745527.39077534-1.9259642s.47451292-1.30258448.86528827-1.84222666c.35355865-.52103379.74898608-.94902584 1.1862823-1.28397615.43729622-.3349503.87924453-.5954672 1.32584494-.78155069s.89785289-.31168986 1.35375745-.3768191c.45590459-.06512924.89785289-.09769383 1.32584499-.09769383.5396421 0 1.0606759.06512923 1.5631013.19538769.5024255.13025846.9676342.29773361 1.3956263.50242546.427992.20469185.8094632.43729622 1.1444135.69781312s.6047713.52103379.8094632.78155069c.4838171.59546721.8373758 1.25141154 1.0606759 1.96783299.2233002.71642146.3814712 1.40027831.474513 2.05157057.0930417.744334.1395626 1.49797217.1395626 2.26091451.1302584.09304174.2326044.21399601.3070378.36286281.0744334.13025846.1349105.29773361.1814314.50242546.0465208.20469185.0511729.46520874.0139562.78155073-.0372167.3907753-.1163022.7024652-.2372564.9350696-.1209543.2326043-.2558648.4140357-.4047316.5442942-.1674752.1488668-.3442545.2512127-.530338.3070378-.0930417.3163419-.1860835.6140755-.2791252.8932008-.0930418.2419085-.2000398.479165-.3209941.7117694-.1209542.2326043-.2558648.4140357-.4047316.5442942-.1674751.1488668-.2977336.2977336-.3907753.4466004-.0930418.1488668-.1674751.2977336-.2233002.4466004s-.1163022.3116898-.1814314.4884692c-.0651292.1767793-.1628231.3582107-.2930815.5442942-.8745925 1.3398012-1.38167 2.5493439-1.5212326 3.6286282-.1395627 1.0792843-.0883897 2.1306561.1535189 3.1541154z" fill="url(#a)" transform="translate(5.46 5.46)"/></svg>