<?xml version="1.0" encoding="UTF-8"?>
<svg width="28px" height="24px" viewBox="0 0 28 24" version="1.1" xmlns="http://www.w3.org/2000/svg" xmlns:xlink="http://www.w3.org/1999/xlink">
    <title>编组</title>
    <g id="页面" stroke="none" stroke-width="1" fill="none" fill-rule="evenodd">
        <g id="组建" transform="translate(-728.000000, -195.000000)">
            <g id="编组" transform="translate(728.000000, 195.000000)">
                <path d="M15.809375,22.703125 C15.403125,22.703125 14.99375,22.59375 14.625,22.371875 L8.3875,18.653125 C8.359375,18.634375 8.328125,18.615625 8.303125,18.596875 C8.053125,18.46875 7.790625,18.403125 7.521875,18.403125 L3.184375,18.403125 C1.434375,18.403125 0.009375,16.821875 0.009375,14.88125 L0.009375,7.853125 C0.009375,5.909375 1.434375,4.33125 3.184375,4.33125 L7.521875,4.33125 C7.825,4.33125 8.13125,4.24375 8.40625,4.078125 L14.64375,0.359375 C15.365625,-0.071875 16.234375,-0.08125 16.965625,0.33125 C17.784375,0.796875 18.290625,1.7125 18.290625,2.721875 L18.28125,6.803125 L18.271875,20.009375 C18.271875,21.01875 17.7625,21.934375 16.946875,22.4 C16.5875,22.603125 16.2,22.703125 15.809375,22.703125 Z M24.23125,18.70625 C23.95,18.70625 23.66875,18.6 23.453125,18.384375 C23.025,17.95625 23.025,17.259375 23.453125,16.83125 C24.9125,15.371875 25.715625,13.43125 25.715625,11.365625 C25.715625,9.3 24.9125,7.359375 23.453125,5.9 C23.025,5.471875 23.025,4.775 23.453125,4.346875 C23.88125,3.91875 24.578125,3.91875 25.00625,4.346875 C26.88125,6.221875 27.9125,8.7125 27.9125,11.365625 C27.9125,14.01875 26.88125,16.509375 25.00625,18.384375 C24.79375,18.6 24.5125,18.70625 24.23125,18.70625 L24.23125,18.70625 Z" id="形状" fill="#908DA8" fill-rule="nonzero"></path>
                <path d="M20.528125,16.16875 C20.246875,16.16875 19.965625,16.0625 19.75,15.846875 C19.321875,15.41875 19.321875,14.721875 19.75,14.29375 C21.365625,12.678125 21.365625,10.05 19.75,8.434375 C19.321875,8.00625 19.321875,7.309375 19.75,6.88125 C20.178125,6.453125 20.875,6.453125 21.303125,6.88125 C23.775,9.353125 23.775,13.375 21.303125,15.846875 C21.090625,16.0625 20.809375,16.16875 20.528125,16.16875 L20.528125,16.16875 Z" id="路径" fill="#908DA8" fill-rule="nonzero"></path>
                <line x1="5.25" y1="2.25" x2="21.75" y2="21.75" id="直线" stroke="#CBC8DC" stroke-width="3" stroke-linecap="round" stroke-linejoin="round"></line>
            </g>
        </g>
    </g>
</svg>