<?xml version="1.0" encoding="UTF-8"?>
<svg width="22px" height="22px" viewBox="0 0 22 22" version="1.1" xmlns="http://www.w3.org/2000/svg" xmlns:xlink="http://www.w3.org/1999/xlink">
    <title>语聊</title>
    <g id="页面" stroke="none" stroke-width="1" fill="none" fill-rule="evenodd">
        <g id="组建" transform="translate(-944.000000, -58.000000)" fill="#FFFFFF" fill-rule="nonzero">
            <g id="编组" transform="translate(944.000000, 58.000000)">
                <path d="M8.33517222,13.4147833 C10.2811278,15.3465167 12.5335722,17.19185 13.4178389,16.3008278 C14.6839722,15.02545 15.46335,13.9157611 18.27295,16.1564722 C21.08255,18.39825 18.9367722,19.9068722 17.7104611,21.1427833 C16.29535,22.5685611 10.9950833,21.2426945 5.74139447,16.0288278 C0.488061125,10.8138944 -0.878338875,5.52393888 0.537838875,4.09745 C1.76450553,2.86153888 3.25712775,0.705094438 5.51846109,3.49833888 C7.78086109,6.29016109 6.67721666,7.07807222 5.41108331,8.35380553 C4.52717222,9.24447222 6.38886112,11.4826944 8.33517222,13.4147833 Z M11.1568611,4.19913888 C11.1568611,4.19913888 10.5698389,4.10740553 10.1588167,4.51878331 C9.73570556,4.94189444 9.71721669,5.67078331 10.1630833,6.11629444 C10.42655,6.37976109 10.7981056,6.43593888 10.7981056,6.43593888 C11.5223722,6.57176109 12.6139278,6.80180553 13.7755278,7.96305 C14.9367722,9.12429444 15.1668167,10.21585 15.3026389,10.9404722 C15.3026389,10.9404722 15.3588167,11.3120278 15.6222833,11.5754944 C16.0677945,12.0210056 16.7966833,12.0028722 17.2197945,11.5797611 C17.6308167,11.1687389 17.5394389,10.5817167 17.5394389,10.5817167 C17.3093945,9.11469444 16.5982833,7.58225 15.3773056,6.36127222 C14.1559722,5.14029444 12.6235278,4.42953888 11.1568611,4.19913888 Z M16.66335,5.07522778 C18.7924167,7.20429444 19.70015,9.62065 19.4046833,11.5786944 C19.4046833,11.5786944 19.3015722,12.1987833 19.70655,12.6037611 C20.1623722,13.0595833 20.8848611,13.0332722 21.3115278,12.6069611 C21.5856611,12.3328278 21.6453944,11.8866055 21.6453944,11.8866055 C21.8896611,10.1945167 21.5824611,6.79042775 18.2651278,3.47344997 C14.9477945,0.156472188 11.5440611,-0.150727781 9.85197222,0.0931833438 C9.85197222,0.0931833438 9.40610556,0.152561125 9.13161666,0.42705 C8.70495,0.853716656 8.67899444,1.57620556 9.13481666,2.03202778 C9.53979444,2.43700556 10.1598833,2.33389444 10.1598833,2.33389444 C12.1179278,2.03842778 14.5342833,2.94616113 16.66335,5.07522778 Z" id="形状"></path>
            </g>
        </g>
    </g>
</svg>