<?xml version="1.0" encoding="UTF-8"?>
<svg width="19px" height="28px" viewBox="0 0 19 28" version="1.1" xmlns="http://www.w3.org/2000/svg" xmlns:xlink="http://www.w3.org/1999/xlink">
    <title>编组</title>
    <g id="页面" stroke="none" stroke-width="1" fill="none" fill-rule="evenodd">
        <g id="组建" transform="translate(-788.000000, -192.000000)" fill="#CBC8DC" fill-rule="nonzero">
            <g id="编组" transform="translate(788.000000, 192.000000)">
                <path d="M9.3985,0.015625 C6.69209375,0.015625 4.49740625,2.1948125 4.49740625,4.88271875 L4.49740625,13.4393438 C4.49740625,16.12725 6.69209375,18.3064688 9.3985,18.3064688 C12.1048125,18.3064688 14.2995,16.12725 14.2995,13.4393438 L14.2995,4.88271875 C14.2995,2.1948125 12.1048125,0.015625 9.3985,0.015625 L9.3985,0.015625 L9.3985,0.015625 Z M1.0266875,12.2219375 C0.46259375,12.2219375 0.00640625,12.6749375 0.00640625,13.2360312 C0.00640625,13.3069375 0.0125625,13.3746562 0.0279375,13.4393437 L0.00640625,13.4393437 C0.00640625,18.177 3.56646875,22.0824062 8.17471875,22.680375 L8.17471875,25.2018437 L6.541125,25.2018437 C5.8629375,25.2018437 5.31434375,25.7474062 5.31434375,26.4194688 C5.31434375,27.0913125 5.8629375,27.636875 6.541125,27.636875 L12.2589063,27.636875 C12.9370625,27.636875 13.4856563,27.0913125 13.4856563,26.4194688 C13.4856563,25.7474063 12.9370625,25.2018438 12.2589063,25.2018438 L10.6253125,25.2018437 L10.6253125,22.680375 C15.0977813,22.1009062 18.5747813,18.3990625 18.7719063,13.846375 C18.7842813,13.781625 18.793625,13.7137812 18.793625,13.642875 C18.793625,13.6181875 18.7874688,13.5966562 18.7874688,13.5751562 C18.7874688,13.5288125 18.793625,13.4857812 18.793625,13.439375 L18.7719063,13.439375 C18.6763438,12.9770312 18.2665313,12.62875 17.770125,12.62875 C17.2769375,12.62875 16.8639063,12.9770312 16.7683438,13.439375 L16.7468438,13.439375 C16.7468438,17.4712187 13.4548438,20.7385 9.3953125,20.7385 C5.33584375,20.7385 2.04378125,17.4711875 2.04378125,13.439375 L2.02225,13.439375 C2.034625,13.3746875 2.04378125,13.3069687 2.04378125,13.2360625 C2.04696875,12.6749375 1.5908125,12.2219375 1.0266875,12.2219375 L1.0266875,12.2219375 L1.0266875,12.2219375 Z" id="形状"></path>
            </g>
        </g>
    </g>
</svg>