<?xml version="1.0" encoding="UTF-8"?>
<svg width="21px" height="28px" viewBox="0 0 21 28" version="1.1" xmlns="http://www.w3.org/2000/svg" xmlns:xlink="http://www.w3.org/1999/xlink">
    <title>编组</title>
    <g id="页面" stroke="none" stroke-width="1" fill="none" fill-rule="evenodd">
        <g id="组建" transform="translate(-674.000000, -192.000000)">
            <g id="编组" transform="translate(674.000000, 192.000000)">
                <path d="M10.3985,0.015625 C7.69209375,0.015625 5.49740625,2.1948125 5.49740625,4.88271875 L5.49740625,13.4393438 C5.49740625,16.12725 7.69209375,18.3064688 10.3985,18.3064688 C13.1048125,18.3064688 15.2995,16.12725 15.2995,13.4393438 L15.2995,4.88271875 C15.2995,2.1948125 13.1048125,0.015625 10.3985,0.015625 L10.3985,0.015625 L10.3985,0.015625 Z M2.0266875,12.2219375 C1.46259375,12.2219375 1.00640625,12.6749375 1.00640625,13.2360312 C1.00640625,13.3069375 1.0125625,13.3746562 1.0279375,13.4393437 L1.00640625,13.4393437 C1.00640625,18.177 4.56646875,22.0824062 9.17471875,22.680375 L9.17471875,25.2018437 L7.541125,25.2018437 C6.8629375,25.2018437 6.31434375,25.7474062 6.31434375,26.4194688 C6.31434375,27.0913125 6.8629375,27.636875 7.541125,27.636875 L13.2589063,27.636875 C13.9370625,27.636875 14.4856563,27.0913125 14.4856563,26.4194688 C14.4856563,25.7474063 13.9370625,25.2018438 13.2589063,25.2018438 L11.6253125,25.2018437 L11.6253125,22.680375 C16.0977813,22.1009062 19.5747813,18.3990625 19.7719063,13.846375 C19.7842813,13.781625 19.793625,13.7137812 19.793625,13.642875 C19.793625,13.6181875 19.7874688,13.5966562 19.7874688,13.5751562 C19.7874688,13.5288125 19.793625,13.4857812 19.793625,13.439375 L19.7719063,13.439375 C19.6763438,12.9770312 19.2665313,12.62875 18.770125,12.62875 C18.2769375,12.62875 17.8639063,12.9770312 17.7683438,13.439375 L17.7468438,13.439375 C17.7468438,17.4712187 14.4548438,20.7385 10.3953125,20.7385 C6.33584375,20.7385 3.04378125,17.4711875 3.04378125,13.439375 L3.02225,13.439375 C3.034625,13.3746875 3.04378125,13.3069687 3.04378125,13.2360625 C3.04696875,12.6749375 2.5908125,12.2219375 2.0266875,12.2219375 L2.0266875,12.2219375 L2.0266875,12.2219375 Z" id="形状" fill="#908DA8" fill-rule="nonzero"></path>
                <line x1="2.25" y1="5.25" x2="18.75" y2="24.75" id="直线" stroke="#CBC8DC" stroke-width="3" stroke-linecap="round" stroke-linejoin="round"></line>
            </g>
        </g>
    </g>
</svg>