<svg height="20" viewBox="0 0 20 20" width="20" xmlns="http://www.w3.org/2000/svg"><g fill="none" fill-rule="evenodd"><rect fill="#ff607c" height="9.2" rx="1.4" width="11.7" x="4.2" y="8.00705"/><path d="m7.7 9.60705h4.6v7.6h-4.6z" fill="#ffcb2f"/><rect fill="#a00" height="4.6" opacity=".137179" rx=".2" width="11.7" x="4.2" y="8.00705"/><rect fill="#ff748d" height="4.3" rx=".6" width="14.9" x="2.6" y="5.30705"/><path d="m6.8 5.30705h6.4v4.3h-6.4z" fill="#ffd65a"/><path d="m5.4 4.00352487c0-.47658384.38634753-.86293137.86293137-.86293137.11581123 0 .2304376.02331163.3370495.06854596l4.94452383 2.09791028h-4.84097983c-.71991691 0-1.30352487-.58360797-1.30352487-1.30352487z" fill="#ff4365"/><path d="m8.5 4.00352487c0-.47658384.38634753-.86293137.86293137-.86293137.11581123 0 .2304376.02331163.3370495.06854596l4.94452383 2.09791028h-4.84097983c-.71991691 0-1.30352487-.58360797-1.30352487-1.30352487z" fill="#ff607c" transform="matrix(-1 0 0 1 23.144504 0)"/></g></svg>