<svg height="24" viewBox="0 0 24 24" width="24" xmlns="http://www.w3.org/2000/svg"><g fill="none" transform="translate(4.44 2.52)"><path d="m12.6033209 3.60955531c.0521633.5977018.1796121 1.17615479.3823463 1.67979671.4094533 1.08499529 2.5932039 4.06873233 2.0472662 7.73059138-.5459376 3.933108-4.5039857 6.5099718-8.59851814 5.8318497-4.09453248-.678122-6.68773638-4.4756055-6.41476755-8.6799623.25786279-5.12475925 3.56063445-7.82894048 7.3770793-9.82751147.19669285-.10300283.4396442-.02705206.54264704.16964079.03610248.06894083.05141957.14687817.04409251.22435424-.0063771.06686336-.01128056.12693572-.01476363.18021204-.14209423 2.17344763.4582825 4.43002656 2.35473617 6.69114854.0801423.09555283.2225714.10804554.3181242.02790323.0433115-.03632634.071423-.08757631.0787803-.14362417.0045482-.03473169.0093504-.07043395.0143958-.1071082.1177172-.85566006.4119857-2.41678938 1.0760463-3.45373788.0956096-.14199252.1916071-.27644979.2893553-.40375123.0142921-.0186132.0297059-.03819839.0462414-.05875557l.00004.00003213c.0890815-.11074761.2510751-.12831141.3618227-.03922983.0546401.04395058.0889792.10829476.0950758.17815189z" fill="#7c66ff"/><path d="m9.96158139 10.7133965c.02483967.2837192.08552951.5583013.18206971.7973719.1949777.5150294 1.234859 1.9313602.9748886 3.6695845-.2599703 1.8669816-2.14475507 3.0901765-4.09453244 2.7682831-1.94977736-.3218934-3.18463636-2.1244963-3.05465121-4.1202353.12279181-2.4326389 1.69554022-3.7162692 3.51289491-4.66495798.09375097-.04893953.20942448-.01261269.25836401.08113829.01711727.03279067.02437097.06983722.02088442.10666211-.00292383.03143165-.00523402.05968543-.00687895.08476625-.06766391 1.03169983.21822976 2.10286073 1.12130296 3.17617813.03826936.0454837.10616469.0513322.15164846.0130628.0205594-.0172984.03390516-.0416611.03741414-.0682996.00213385-.0163921.00440707-.0332365.00679468-.0505366.05605581-.4061677.19618364-1.1472101.51240299-1.6394325.04552839-.0674015.09124147-.1312262.13778823-.1916541.00687259-.0089221.01428986-.0183147.0222518-.0281778l-.00003261-.0000263c.04250332-.0526524.11964224-.0608798.17229459-.0183765.02591044.0209161.04219147.0514774.04509571.0846496z" fill="#fff"/></g></svg>