<svg height="20" viewBox="0 0 20 20" width="20" xmlns="http://www.w3.org/2000/svg"><g fill="none" fill-rule="evenodd"><path d="m6.89660254 3.35h1.49c1.27025492 0 2.29999996 1.02974508 2.29999996 2.3v5.39c0 .4473506-.3626493.81-.80999996.81h-2.98c-.44735065 0-.81-.3626494-.81-.81v-6.88c0-.44735065.36264935-.81.81-.81z" fill="#8e7cff" transform="matrix(.8660254 .5 -.5 .8660254 4.923592 -3.175095)"/><path d="m7.9 7.4h6c1.049341 0 1.9.85065898 1.9 1.9v3.3c0 2.8718807-2.3281193 5.2-5.2 5.2h-4.6c-1.60162577 0-2.9-1.2983742-2.9-2.9v-2.7c0-2.6509668 2.1490332-4.8 4.8-4.8z" fill="#7c66ff"/><path d="m14.1953775 2.57153542.2379012.6772943c.1622432.46189914.5407706.81481092 1.0128881.94434396l.4600327.12621742c.0532603.0146128.0845902.06963475.0699774.12289496-.0084137.03066595-.0309108.05550226-.0605977.0668986l-.4799103.18422995c-.4734317.18174293-.8482359.55476014-1.0322394 1.02731783l-.2092284.53734021c-.0200392.05146469-.0780045.07694008-.1294692.05690087-.0263352-.01025432-.0471017-.03117314-.0571634-.05758248l-.1997809-.52437336c-.1828054-.47981701-.5618222-.85872546-1.0416914-1.04139365l-.4789715-.18232644c-.0516153-.01964801-.0775299-.07741834-.0578819-.12903365.011375-.029882.0363533-.05252296.0672057-.06091675l.4637648-.12617351c.4755218-.12937213.8561088-.48584694 1.0162833-.95189656l.2299614-.66910394c.0179506-.05222987.0748432-.08001866.1270731-.062068.0289251.00994114.0517102.03257291.0618464.06143024z" fill="#ff607c" transform="matrix(-1 0 0 1 28.2 0)"/><path d="m16.2953775 4.67153542.0791971.22547062c.0849845.24194717.2832608.42680572.5305604.49465636l.1010645.0277287c.0532603.0146128.0845902.06963475.0699774.12289496-.0084137.03066595-.0309108.05550226-.0605977.0668986l-.1104442.04239778c-.2514903.09654313-.450589.29469252-.5483329.54571851l-.062601.1607717c-.0200392.05146469-.0780045.07694008-.1294692.05690087-.0263352-.01025432-.0471017-.03117314-.0571634-.05758248l-.0594583-.15606252c-.0965019-.25329281-.2965828-.45331653-.5499032-.54974608l-.1110823-.04228485c-.0516153-.01964801-.0775299-.07741834-.0578819-.12903365.011375-.029882.0363533-.05252296.0672057-.06091675l.1017585-.02768479c.2490828-.06776635.4484379-.25449125.5323388-.49861248l.0759122-.22087674c.0179506-.05222987.0748432-.08001866.1270731-.062068.0289251.00994114.0517102.03257291.0618464.06143024z" fill="#ffcb2f" transform="matrix(-1 0 0 1 32.4 0)"/></g></svg>