<svg height="24" viewBox="0 0 24 24" width="24" xmlns="http://www.w3.org/2000/svg"><path d="m6.40470505 10.5787487c-1.00557099.6074119-1.15471731-.3408526-1.15471731-.3408526l-1.26018371-3.18527256c-.48495888-1.51367647.41962569-.68245173.41962569-.68245174 0-.00000002.77615819.63597184 1.3652768 1.02349094.58874529.38770576 1.2598104.1138664 1.2598104.11386641l8.23888748-4.11916373c-1.5202098-2.04884854-4.0310573-3.38836542-6.87379733-3.38836542-4.63921584 0-8.39960707 3.56495168-8.39960707 7.96280809 0 2.52988741 1.24506377 4.78108221 3.18471257 6.24025211l-.34981252 2.1780216s-.17061294.6357852.42037236.3408525c.40263905-.2008528 1.42911666-.9217578 2.04026191-1.3598635.99229098.3738075 2.04408185.5648008 3.10444607.563732 4.63884251 0 8.39998041-3.5649516 8.39998041-7.96280804 0-1.27381036-.3169593-2.47687422-.8782646-3.54479173-2.6250872 1.71060933-8.73037965 5.68622677-9.51699115 6.16054567z" fill="#24af41" transform="translate(3.6 3.6)"/></svg>