<svg height="24" viewBox="0 0 24 24" width="24" xmlns="http://www.w3.org/2000/svg"><path d="m13.5236161.02381698h-10.93714287c-1.44571428 0-2.57714287 1.13142856-2.57714287 2.57714283v10.87428569c0 1.4457143 1.13142857 2.5771429 2.57714287 2.5771429h10.93714287c1.4457142 0 2.5771428-1.1314286 2.5771428-2.5771429v-.1257142s-4.2114285-1.7600001-6.28571425-2.7657143c-1.44571428 1.76-3.26857142 2.8285714-5.15428573 2.8285714-3.20571428 0-4.27428571-2.8285714-2.76571427-4.65142857.3142857-.37714284.87999999-.75428572 1.76-1.00571429 1.38285714-.37714285 3.58285716.18857144 5.59428571.87999999.37714285-.69142858.69142858-1.44571427.88000004-2.19999999h-6.28571434v-.62857144h3.26857145v-1.06857143h-3.89714286v-.62857142h3.89714286v-1.63428571s0-.31428571.31428571-.31428571h1.57142857v1.88571428h3.89714291v.62857142h-3.89714291v1.13142857h3.20571431c-.3142857 1.19428572-.7542857 2.38857142-1.32 3.39428571.9428571.37714285 1.8228571.69142859 2.4514285.87999999 2.3257143.7542857 2.8285715.8171429 2.8285715.8171429v-8.29714289c-.0628572-1.38285713-1.2571429-2.57714283-2.64-2.57714283zm-9.61714287 8.73714285c-.44000001.06285714-1.13142857.25142857-1.57142858.56571428-1.25714286 1.06857139-.50285714 3.07999999 2.01142856 3.07999999 1.44571427 0 2.89142857-.9428572 4.0857143-2.3885714-1.63428571-.88000002-3.01714285-1.4457143-4.52571428-1.25714287z" fill="#3988ff" transform="translate(3.96 3.96)"/></svg>