<svg height="24" viewBox="0 0 24 24" width="24" xmlns="http://www.w3.org/2000/svg"><g fill="none" transform="translate(1.8 5.52)"><path d="m3.84665625.0394875c-.594.0756-1.188.5724-1.3824 1.1448-.1296.3564-2.4516 10.4652-2.4624 10.6488-.0216.5292.2808.918.7776 1.0152.1836.0432 6.0804.0432 6.2748 0 .5616-.108 1.0908-.5508 1.2852-1.0908.0756-.2052 2.47319995-10.5084 2.47319995-10.6812.0324-.486-.2592-.8856-.7235999-1.026-.10800005-.0216-5.99400005-.0432-6.24240005-.0108z" fill="#e60012"/><path d="m9.34385625.0394875c-.594.0756-1.188.5724-1.3824 1.1448-.1188.3564-2.4516 10.4652-2.4516 10.6488-.0216.5292.2808.918.7776 1.0152.1836.0432 6.08039995.0432 6.27479995 0 .5616-.108 1.0908-.5508 1.2852-1.0908.0756-.2052 2.4732-10.5084 2.4732-10.6812.0324-.486-.2592-.8856-.7236-1.026-.1187999-.0216-6.00479995-.0432-6.25319995-.0108z" fill="#00508e"/><path d="m15.0786562.0394875c-.594.0756-1.188.5724-1.3824 1.1448-.1187999.3564-2.4516 10.4652-2.4516 10.6488-.0216.5292.2808.918.7776 1.0152.1836.0432 4.5684001.0432 4.7628001 0 .5616-.108 1.0907999-.5508 1.2851999-1.0908.0756-.2052 2.4732-10.5084 2.4732-10.6812.0324001-.486-.2592-.8856-.7235999-1.026-.108-.0324-5.0328-.054-5.2812-.0216h.54z" fill="#00908c"/><path d="m3.66305625 3.3226875c0 .0108-.0108.0756-.0324.1404-.2484.8424-.4968 1.9764-.4644 2.1168.0864.4212.702.3888.918-.054.0648-.1188.5292-2.0952.5292-2.2356 0-.0108.7344 0 .7344.0108 0 0 0 .0324-.0108.0648s-.1296.486-.2592 1.026c-.2916 1.1448-.324 1.2636-.4752 1.4904-.4968.7344-2.16.7128-2.2896-.0324-.0324-.162.324-2.0304.486-2.538 0-.0324.864-.0108.864.0108zm11.03759995 0c.4968.108.648.5076.4212 1.1016s-.7128.8532-1.566.8532c-.2592 0-.2376-.0432-.3996.7668-.0324.1512-.0648.2916-.0648.3132-.0108.054-.7776.054-.7668 0 .648-2.7756.702-3.0132.702-3.0348l.0108-.0324h.7776c.6156.0108.7884.0108.8856.0324zm-6.66359995 1.0692c.108.0216.1836.108.1836.1836 0 .27-.5508.4536-.756.2484-.1944-.2052.216-.5184.5724-.432zm-1.9116.2052c0 .0216-.0108.0648-.0108.0972l-.0108.0432.1296-.0648c.3456-.1728.6804-.1404.7884.0756.0648.1296.054.2052-.1188 1.0044-.0324.1404-.0756.3348-.0864.432-.0432.216-.0108.2052-.3996.2052-.3348 0-.3348 0-.324-.0324 0-.0216.0432-.1944.0864-.3996.1728-.7668.1836-.8748.0324-.8748-.0864 0-.2052.054-.216.0864-.0216.0756-.216 1.0152-.2268 1.1016l-.0216.0972-.3348.0216c-.4104.0108-.378.0432-.2916-.324.1188-.4752.1836-.81.2268-1.1124.054-.324.0216-.2916.324-.3348.1404-.0216.2808-.0432.324-.054.108-.0324.1296-.0216.1296.0324zm5.12999995-.0108c0 .0216-.0108.0648-.0108.0972l-.0108.054.1296-.0648c.6696-.3456.9288-.0648.7344.8208-.0432.1944-.0972.4752-.1296.6048-.0216.1404-.054.2592-.0648.27-.0432.0432-.6804.0324-.6696 0 0-.0216.0432-.1944.0864-.3888.1836-.7884.1836-.8856.0216-.8856-.1296 0-.1944.0432-.216.1404-.0324.1188-.1944.8964-.216 1.0368l-.0216.1188-.3348.0108c-.4104.0108-.378.054-.2808-.3456.108-.432.1836-.8316.2376-1.1232.0432-.2808.0108-.2484.2808-.2916.1188-.0216.27-.0432.324-.054.108-.054.1404-.0432.1404 0zm6.5556-.0108c.0432.6588.054.8532.054.864s.0972-.162.2052-.378c.216-.432.1728-.3888.4104-.4212.0648-.0108.1944-.0324.2916-.054.2376-.0432.2376-.0648-.0324.4104-.3672.6372-.8748 1.5336-1.0584 1.8576-.5508 1.0044-.5508 1.0044-1.0152 1.0152l-.2808.0108.0216-.0756c.0108-.0432.0432-.1296.054-.1944l.0324-.1188h.0864c.0972 0 .1188-.0216.2052-.1728.0324-.054.0864-.1404.108-.1944.0324-.054.1404-.2268.2268-.3996l.1728-.3024-.0432-.3996c-.054-.4644-.1188-1.0152-.1512-1.1772-.0216-.1512-.0216-.1512.1728-.1728.0864-.0108.2268-.0432.3024-.054.2052-.0648.2268-.0648.2376-.0432zm-8.14319995.0108c.83159995.1512.53999995 1.5984-.3672 1.8036-.6156.1404-1.0368-.0972-1.0368-.5724.0108-.8316.6264-1.3716 1.404-1.2312zm6.22079995.0432c.0432.0216.108.0648.1404.0972.054.054.054.054.054.0216.0108-.0432 0-.0432.432-.108.3456-.054.3348-.054.3132.0432-.1404.6048-.2592 1.134-.3132 1.3932-.0756.3888-.0216.3456-.4428.3348h-.3564v-.0432c0-.0432-.0216-.0648-.0432-.0324-.1188.1944-.702.1188-.864-.1188-.3996-.6048.4536-1.8792 1.08-1.5876zm-7.75439995.3132s0 .054-.0108.0972c-.0864.3456-.2376 1.0476-.27 1.1772l-.0324.162-.3564.0108c-.4212.0108-.3996.0324-.3132-.2268.0756-.2484.1512-.5508.1944-.8748.0432-.2808 0-.2376.3132-.2808.1404-.0216.2916-.0432.324-.054.0864-.0216.1404-.0216.1512-.0108zm1.88999995 2.2356c0 .0108-.0216.054-.05399995.108-.0216.054-.054.0972-.054.0972.63719995.0108.65879995.0108.64799995.0432l-.1188.3888h-.92879995l-.054.0432c-.1188.108-.7452.2484-.7452.162l.1188-.3888h.0864c.1512 0 .1836-.0324.3132-.2592l.108-.2052c.5616-.0108.68039995 0 .68039995.0108zm1.4148 0c0 .0108-.0108.0648-.0324.1296-.0216.054-.0324.108-.0324.1188 0 0 .054-.0216.1188-.0756.2376-.162.4428-.1944 1.0476-.1944.2376 0 .4428 0 .4536.0108.0108.0216-.3456 1.188-.3996 1.296-.0756.1404-.1512.216-.27.27l-.108.0432-.6156.0108-.6156.0108-.108.3672c-.216.702-.216.648.0972.6156.2484-.0216.2376-.0432.162.216l-.0648.216h-.3132c-.6804.0108-.76679995-.0324-.702-.3132.0324-.1404.81-2.7108.8208-2.7324.0108-.0108.5616-.0108.5616.0108zm2.8404 0c0 .0108-.0108.0432-.0216.0864-.0324.108-.0324.108.108.0324.1836-.0972.6156-.1296 1.5012-.1296h.2808v.1296c0 .1512.0108.162.1404.1836l.0972.0108-.054.1944-.054.1944h-.1944c-.4968.0108-.5724-.0432-.5832-.3348v-.1404l-.0324.0972-.0324.108h-.108c-.054 0-.108 0-.108.0108 0 0-.5292 1.7604-.6048 2.0088-.0108.0216 0 .0324.0648.0324.0972 0 .0972 0 .0648.0864-.0324.0972-.0324.0972.0756.0972.0756 0 .1188-.0108.1728-.0432.0756-.0432.0756-.0324.4212-.5184l.1404-.2052h-.2916c-.3564 0-.324.0216-.2592-.1944l.054-.1728h.7128c.0648-.2268.0864-.2916.0864-.3024s-.1512-.0108-.3456-.0108h-.3456l.054-.1944.054-.1944h.972c.5292 0 .972 0 .972.0108s-.0216.0972-.054.1944l-.054.1836-.324.0108-.324.0108c-.054.162-.0756.2376-.0864.2592l-.0108.0432h.3132c.3672 0 .3456-.0216.27.1944l-.054.1728h-.7128l-.054.0648-.054.0648h.2808l.0432.2592c.0432.2916.0432.2916.1836.2916.108 0 .108-.0216.0324.2376l-.0648.216h-.2052c-.3564 0-.4212-.054-.486-.4212l-.0324-.2376-.1296.1728c-.3564.486-.378.4968-.8316.4968-.2916 0-.2916 0-.2484-.0864.0108-.0432.0108-.0432-.0756-.0432s-.0864 0-.108.0648l-.0108.0648h-.6048l.0108-.0324c.0324-.108.0864-.0972-.5724-.0972-.5724 0-.6048 0-.594-.0324l.054-.1944c.0648-.1944.054-.1944.1188-.1944.054 0 .054 0 .0756-.0756.5076-1.6956.6696-2.2356.6912-2.3112l.0432-.1404h.3024c.1944 0 .3348.0108.3348.0216zm-3.834.9288-.1188.378h-.64799995c-.0648.216-.0864.2808-.0972.3024-.0108.0324.0108.0324.324.0324.18359995 0 .33479995.0108.33479995.0108 0 .0108-.0108.0324-.0216.0648-.0108.0216-.0324.108-.054.1944l-.0432.1404h-.66959995l-.0756.2592c-.108.3672-.0972.378.3132.324.1728-.0216.162-.0432.0864.216l-.0648.216h-.4536c-.7128 0-.7236-.0216-.5292-.6372.054-.1944.108-.3564.108-.3564s-.0756-.0108-.1836-.0108c-.0972 0-.1836 0-.1836-.0108.0756-.27.108-.3564.108-.378.0108-.0216.0324-.0324.1944-.0324h.1836l.0864-.3348h-.1728c-.1296 0-.1728 0-.1728-.0216s.0972-.3348.108-.3672c.0216-.0216 1.65239995-.0108 1.64159995.0108zm2.0952.7776c0 .0216-.0216.0864-.0324.1404-.0648.3024-.1512.3672-.4968.3888-.1188.0108-.2268.0216-.2268.0216-.0216.0324-.0216.2916 0 .3348l.0324.0432.216-.0108c.1188-.0108.216-.0108.216-.0108 0 .0216-.1188.3996-.1296.4104-.0216.0216-.6804.0108-.7668-.0216-.1296-.0432-.1296-.0324-.1188-.7128l.0108-.594h.5508v.2268h.108c.1188 0 .1296-.0108.1836-.162l.0324-.0864h.216c.1944.0108.216.0108.2052.0324zm1.0152-4.6224-.1188.5184h.162c.8316.0216 1.1772-.9396.3672-1.0044-.1296-.0108-.2484-.0216-.2592-.0216-.0324 0-.0324.0324-.1512.5076zm-4.29839995.7344c-.2052.0864-.3996.864-.2376.9828.1188.0972.2916-.0648.378-.3348.1404-.4968.0972-.7344-.1404-.648zm6.43679995.054c-.216.108-.378.8748-.216.9612.216.1188.4968-.2916.4968-.7344 0-.2052-.1188-.3024-.2808-.2268zm-4.3632 2.5704-.054.1944c-.0324.0972-.054.1836-.0648.1944 0 .0108.054-.0108.1296-.054.216-.108.2808-.1296.594-.1404l.27-.0108c.0432-.1296.054-.1836.054-.1944.0108-.0108-.918-.0108-.9288.0108zm-.1836.6264-.0432.1728.9288-.0108.054-.1728c-.7344 0-.9396 0-.9396.0108zm2.9376-.3888c-.0432.1404-.0756.2484-.0648.2484l.1296-.0432c.0648-.0216.1836-.054.2484-.0648s.1188-.0216.1296-.0216c0 0 .108-.3348.108-.3456 0 0-.108-.0108-.2376-.0108h-.2376zm-.1728.5508c0 .0108-.0432.1188-.0756.2484-.0432.1296-.0756.2484-.0756.2484 0 .0108.054-.0108.1296-.0432s.1836-.0648.2484-.0756c.1404-.0216.1512-.0324.162-.0864.0108-.0216.0324-.108.054-.1728l.0432-.1296h-.2376c-.1296 0-.2484 0-.2484.0108zm-.378 1.242.4752.0108c.0972-.324.1296-.432.1296-.4428l-.4752-.0216z" fill="#fff"/></g></svg>