<svg height="32" viewBox="0 0 30 32" width="30" xmlns="http://www.w3.org/2000/svg"><path d="m1.4794616 18.3150213c-1.12406381 2.7981283-1.30968903 5.4621939-.40562547 5.9606319.62562572.3437504 1.59843936-.443438 2.51625292-1.8734396.36437543 1.5675018 1.26156397 2.9734409 2.54375296 4.1112548-1.34406406.5225006-2.22406508 1.3784391-2.22406508 2.3443777 0 1.5915643 2.37531526 2.8771908 5.30750617 2.8771908 2.6434406 0 4.8331306-1.0450012 5.2387561-2.4200028h.6290632c.4125005 1.3750016 2.5987531 2.4200028 5.2421936 2.4200028 2.9321909 0 5.3075062-1.2856265 5.3075062-2.8771908 0-.9659386-.8765635-1.8150021-2.2240651-2.3443777 1.2787515-1.1378139 2.1793776-2.543753 2.5403155-4.1112548.9178135 1.4300016 1.8871897 2.21719 2.5162529 1.8734396.9075011-.4950005.7287508-3.1625036-.4056255-5.9606319-.886876-2.18969-2.0865649-3.8053169-3.000941-4.1696923.0137501-.1340627.0240626-.2818754.0240626-.422813 0-.8490635-.2268753-1.6328144-.6118757-2.2721902.006875-.0515625.006875-.0996876.006875-.1512502 0-.3918754-.0893751-.7562508-.2406253-1.0690637-.2303128-5.69594412-3.7571919-10.2300119-9.466886-10.2300119-5.70969418 0-9.24001079 4.53406778-9.47032355 10.2334494-.14781268.3196879-.24062528.6840633-.24062528 1.0759388 0 .0515625 0 .0996876.006875.1512501-.37812544.6325008-.6050007 1.4162517-.6050007 2.2687527 0 .1409376.00687501.2853128.01718752.422813-.91437606.3609379-2.11750246 1.9731273-3.00094099 4.1628173z" fill="#908da8"/></svg>