<svg height="28" viewBox="0 0 34 28" width="34" xmlns="http://www.w3.org/2000/svg"><g fill="#908da8"><path d="m22.5102646 8.43733635c.3910849 0 .7822041 0 1.1733233.07823759-1.0168825-4.69332734-6.101329-8.21333143-11.8898107-8.21333143-6.49241385 0-11.73333557 4.38041134-11.73333557 10.01241789 0 3.2071225 1.79912084 5.866685 4.69332733 7.9004842l-1.17332324 3.5200041 4.1458017-2.0337992c1.48620486.3129159 2.65952808.6257976 4.14576728.6257976.3911193 0 .7040009 0 1.0951201-.0782376-.2346784-.7822041-.3911192-1.6426457-.3911192-2.5031217 0-5.0844122 4.3804457-9.30841708 9.934249-9.30841708zm-6.2578385-3.12888489c.8604416 0 1.4862392.54756001 1.4862392 1.48623923 0 .86040725-.5475944 1.48620485-1.4862392 1.48620485-.8604416 0-1.7991209-.62576323-1.7991209-1.48620485 0-.93867922.8604417-1.48623923 1.7991209-1.48623923zm-8.29156903 2.89424086c-.86040725 0-1.79912084-.6257976-1.79912084-1.48623922 0-.86044163.860476-1.48620486 1.79912084-1.48620486.86044163 0 1.48623923.54752564 1.48623923 1.48620486 0 .93867921-.54759439 1.48623922-1.48623923 1.48623922z"/><path d="m33.3049209 17.6675846c0-4.6933273-4.6933273-8.52624743-10.0124179-8.52624743-5.6320065 0-10.0124866 3.83292013-10.0124866 8.52624743s4.3804457 8.526213 10.0124523 8.526213c1.1733232 0 2.3466808-.3128816 3.5200041-.6257632l3.2071224 1.7991208-.8604416-2.972444c2.3466465-1.7209177 4.1457673-4.1458017 4.1457673-6.7271266zm-13.2977779-1.4862392c-.5475944 0-1.1733577-.5475601-1.1733577-1.1733233 0-.54756.6257976-1.1733232 1.1733577-1.1733232.8604072 0 1.4862048.6257632 1.4862048 1.1733232s-.54756 1.1733233-1.4862048 1.1733233zm6.4924138 0c-.5475257 0-1.1732889-.5475601-1.1732889-1.1733233 0-.54756.6257632-1.1733232 1.1733232-1.1733232.8604417 0 1.4862049.6257632 1.4862049 1.1733232s-.6257632 1.1733233-1.4862049 1.1733233z"/></g></svg>