<svg height="32" viewBox="0 0 32 32" width="32" xmlns="http://www.w3.org/2000/svg"><path d="m10.4728075 9.91106177 1.2972541-4.9693073c.1740968-.66690159-.2254003-1.34866554-.8923019-1.5227624-.4505724-.11762342-.92915376.02539309-1.24131294.37094687l-8.21780211 9.09693756c-.46203329.5114614-.42196395 1.3006347.08949738 1.762668.15677503.1416241.3469379.2411299.55267003.2891935l3.50294564.8183651c.67117849.1568021 1.08816297.828013.93136091 1.4991914-.00243259.0104126-.00499891.0207934-.00769831.03114l-1.29695352 4.9711048c-.17400017.6669268.22559583 1.3486328.89252265 1.522633.45056999.117553.9291105-.0255152 1.2412216-.3710853l8.21745777-9.0983876c.4619821-.5115076.4218337-1.3006769-.0896738-1.7626589-.156759-.1415812-.3468892-.2410573-.5525819-.2891109l-3.5029842-.8183604c-.6711791-.1567995-1.0881661-.8280088-.9313665-1.49918788.0024466-.01047279.0050285-.02091351.0077451-.03131955z" fill="#fff" transform="translate(7.52 2.4)"/></svg>