<svg height="35" viewBox="0 0 28 35" width="28" xmlns="http://www.w3.org/2000/svg"><path d="m20.3911231 8.49948572.4219851.02674199c1.1199356.04456997 4.2650931.5184985 6.2874267 3.52698209-.1606167.1039967-3.7569602.2718768-3.7131556 6.7820524.0438046 4.3411153 4.5615268 6.9365849 4.6126207 6.9603324-.0394241.1203389-.721314 2.3874637-2.3800492 4.8536699-1.430948 2.1334149-2.9188453 4.2564324-5.2609282 4.3010023-2.3070393.0475412-3.042956-1.3890963-5.6770717-1.3890963-2.6326543 0-3.4576517 1.3489834-5.63326701 1.43664-2.26323472.0846829-3.98621542-2.3027808-5.42885716-4.4272955-2.95680814-4.3411153-5.21274324-12.2716106-2.18000605-17.627424 1.50541574-2.6593405 4.19794889-4.33665824 7.11533292-4.37973094 2.2194301-.04159875 4.3176585 1.53617724 5.6741627 1.53617724 1.3594028 0 3.9058957-1.84965387 6.5838261-1.57332004zm2.2092114-8.49799639v-.00004929c.0016396 4.83197691-3.8468622 8.7504435-8.5958588 8.7521154-.0014604 0-.0029208 0-.0043823 0v-.000186c-.0023173-4.83197691 3.8456312-8.75100062 8.5946279-8.75336944h.0057934z" fill="#908da8"/></svg>