<svg height="32" viewBox="0 0 32 32" width="32" xmlns="http://www.w3.org/2000/svg"><path d="m12.1542304 3.38790769c.7580872-.9002493 1.2444624-2.17086627 1.1366595-3.38790769-1.0827581.05295578-2.4359597.68811061-3.1940531 1.58741322-.70324113.7946533-1.29899495 2.0646474-1.13665951 3.28230757 1.19150561.10559641 2.43595971-.58251461 3.19500181-1.48276391m5.629093 12.12089352c-.0535946.1055964-.43248 1.5350896-1.5155536 3.0165953-.9204227 1.2709408-1.8408453 2.5935762-3.3024995 2.5935762-1.4616439 0-1.8950623-.8466634-3.57262539-.8466634-1.67788077 0-2.1651944.8466634-3.57293479.8466634-1.40742689.0526406-2.49049227-1.4291781-3.41028584-2.6991763-1.84084527-2.6455924-3.30249947-7.4093955-1.35384101-10.63875861.92042263-1.58678416 2.65314121-2.64526245 4.49336772-2.64526245 1.40774246 0 2.70674565.9002493 3.57262541.9002493.86683676 0 2.4908223-1.16534274 4.1683792-.95320405.7045013.05295578 2.7070551.26414881 3.9524559 2.11728246-.1087486.05295578-2.3830153 1.37622123-2.3284827 4.02243655 0 3.2287238 2.8154807 4.2872206 2.8693946 4.2872206" fill="#bebebe" transform="translate(7.04 5.44)"/></svg>