<svg height="60" viewBox="0 0 60 60" width="60" xmlns="http://www.w3.org/2000/svg" xmlns:xlink="http://www.w3.org/1999/xlink"><defs><rect id="a" height="33" rx="2.4" width="29.1"/><mask id="b" fill="#fff"><use fill="#fff" fill-rule="evenodd" xlink:href="#a"/></mask></defs><g fill="none" fill-rule="evenodd"><rect fill="#ff607c" height="44.7" rx="4.5" width="35.7" x="12.3" y="7.8"/><circle cx="42.9" cy="48.6" fill="#ff8ca0" r="1.8"/><rect fill="#dd6b80" height="34.2" rx="1.8" stroke="#ff8ca0" stroke-width="1.2" width="30.3" x="15" y="10.5"/><rect fill="#ff8ca0" height="1.5" rx=".75" width="3.3" x="15.6" y="48"/><g transform="translate(15.6 11.1)"><use fill="#dd6b80" xlink:href="#a"/><circle cx="18.6" cy="7.2" fill="#ffafbd" mask="url(#b)" r="2.4"/><path d="m-3.3 16.5160713c8.95866714-.2613542 15.485008 2.6649304 19.5790225 8.7788538 4.0940146 6.1139235 8.7676737 9.2822818 14.0209775 9.5050749l-33.6-.8126973z" fill="#b63e54" mask="url(#b)" transform="matrix(-1 0 0 1 27 0)"/><path d="m-1.26019036 19.05c7.35890514-.2180046 12.71982796 2.22291 16.08276846 7.3227436 3.3629406 5.0998336 7.2020177 7.7426701 11.5172315 7.9285095l-27.59999996-.6778987z" fill="#e1536d" mask="url(#b)"/><g fill="#ffd8df"><g mask="url(#b)"><path d="m6.375 3c.41421356 0 .75-.33578644.75-.75 0-.39764502-.30946078-.7230116-.70068729-.7484047l-.04931271-.0015953h-.225c-.41421356 0-.75-.33578644-.75-.75s.33578644-.75.75-.75h8.7c.4142136 0 .75.33578644.75.75s-.3357864.75-.75.75h-5.325c-.41421356 0-.75.33578644-.75.75 0 .39764502.30946078.7230116.70068729.7484047l.04931271.0015953h-.075c.41421356 0 .75.33578644.75.75s-.33578644.75-.75.75h-8.7c-.41421356 0-.75-.33578644-.75-.75s.33578644-.75.75-.75z" transform="translate(18.6 9.6)"/></g><g mask="url(#b)"><path d="m7.8 4.8c.33137085 0 .6.26862915.6.6s-.26862915.6-.6.6h-6.96c-.33137085 0-.6-.26862915-.6-.6s.26862915-.6.6-.6zm-3-1.8c0-.33137085.26862915-.6.6-.6h6.96c.3313708 0 .6.26862915.6.6s-.2686292.6-.6.6h-4.56c-.33137085 0-.6.26862915-.6.6 0 .29823376.21758961.54564675.50267688.59214701l.09732312.00785299h-2.4c.33137085 0 .6-.26862915.6-.6 0-.29823376-.21758961-.54564675-.50267688-.59214701l-.09732312-.00785299c-.33137085 0-.6-.26862915-.6-.6zm9.72-3c.3313708 0 .6.26862915.6.6s-.2686292.6-.6.6h-4.332l-.0853231.00785299c-.28508729.04650026-.5026769.29391325-.5026769.59214701s.21758961.54564675.5026769.59214701l.0973231.00785299h-2.4c.33137085 0 .6-.26862915.6-.6 0-.29823376-.21758961-.54564675-.50267688-.59214701l-.08532312-.00785299h-.252c-.33137085 0-.6-.26862915-.6-.6s.26862915-.6.6-.6z" transform="matrix(-1 0 0 -1 10.8 8.7)"/></g></g></g></g></svg>