<svg height="60" viewBox="0 0 60 60" width="60" xmlns="http://www.w3.org/2000/svg" xmlns:xlink="http://www.w3.org/1999/xlink"><linearGradient id="a" x1="50%" x2="50%" y1="-23.035586%" y2="79.135026%"><stop offset="0" stop-color="#fff"/><stop offset="1" stop-color="#fff" stop-opacity="0"/></linearGradient><linearGradient id="b" x1="50%" x2="50%" y1="0%" y2="100%"><stop offset="0" stop-color="#fff"/><stop offset="1" stop-color="#ffbdcc" stop-opacity="0"/></linearGradient><g fill="none" fill-rule="evenodd"><rect fill="#7c66ff" height="30.6" rx="4.2" width="41.1" x="9.6" y="19.5"/><circle cx="46.2" cy="24" fill="#614ed7" r="1.2" stroke="#8671ff" stroke-width=".5"/><g transform="translate(17.1 9.9)"><path d="m1.8 0h11.4c.9941125 0 1.8.80588745 1.8 1.8v7.8h-15v-7.8c0-.99411255.80588745-1.8 1.8-1.8z" fill="#614ed7"/><rect fill="#aa9cff" height="5.1" rx="1.2" stroke="#7c66ff" stroke-width=".6" width="13.2" x=".9" y=".9"/><path d="m3 2.62743896v.95611852c0 .83619493.67786993 1.51406487 1.51406487 1.51406487h6.05818443c.836195 0 1.5140649-.67786994 1.5140649-1.51406487v-.86913303c0-.35618602-.2887458-.64493184-.6449318-.64493184-.3807287 0-.7143095.2549315-.8142857.62229926l-.1298086.47698844c-.1596953.5868084-.69253461.99401872-1.30068482.99401872h-.34681838c-.45281978 0-.90289166-.07033871-1.33411907-.20850049-.4312274-.13816178-.88129929-.20850049-1.33411907-.20850049h-.10096105c-.49174605 0-.95275587-.23921236-1.23587399-.64127991l-.40758672-.57883047c-.20140516-.28602366-.5293593-.45619506-.87917865-.45619506-.30814526 0-.55794635.24980109-.55794635.55794635z" fill="url(#a)" opacity=".2"/></g><rect fill="#614ed7" height="1.8" rx=".6" width="6.6" x="37.8" y="17.7"/><circle cx="30" cy="34.8" fill="#614ed7" r="10.8" stroke="#aa9cff" stroke-width="1.5"/><circle cx="30" cy="34.8" fill="#3e2dab" r="5.7"/><circle cx="30" cy="34.8" fill="#2f227a" r="2.7"/><circle cx="26.363895" cy="30.859981" fill="url(#b)" opacity=".8" r="2.25" transform="matrix(.70710678 -.70710678 .70710678 .70710678 -14.099496 27.680768)"/></g></svg>