<svg height="60" viewBox="0 0 60 60" width="60" xmlns="http://www.w3.org/2000/svg" xmlns:xlink="http://www.w3.org/1999/xlink"><defs><path id="a" d="m4.8 0h11.4c2.6509668 0 4.8 2.1490332 4.8 4.8v15.6c0 5.7989899-4.7010101 10.5-10.5 10.5-5.79898987 0-10.5-4.7010101-10.5-10.5v-15.6c0-2.6509668 2.1490332-4.8 4.8-4.8z"/><mask id="b" fill="#fff"><use fill="#fff" fill-rule="evenodd" xlink:href="#a"/></mask></defs><g fill="none" fill-rule="evenodd"><g fill-rule="evenodd" transform="translate(19.5 6.3)"><use fill="#ffba4e" xlink:href="#a"/><path d="m-.9 18.6h22.8v13.2h-22.8z" fill="#ffa62e" mask="url(#b)" stroke="#979797" stroke-width=".5"/></g><path d="m45.9 24v2.55c0 8.6984848-7.0515152 15.75-15.75 15.75s-15.75-7.0515152-15.75-15.75v-2.55" stroke="#ffba4e" stroke-linecap="round" stroke-linejoin="round" stroke-width="3.6"/><path d="m30.3 44.1v6.6" stroke="#ffa62e" stroke-linecap="round" stroke-linejoin="round" stroke-width="3.6"/><g fill-rule="evenodd"><path d="m23.4683479 49.2h13.6633042c1.0290047 0 2.2672789 1.0073593 2.7657628 2.25l.1805171.45c.3987871.9941125-.0838195 1.8-1.077932 1.8h-17.4c-.9941125 0-1.4767191-.8058875-1.077932-1.8l.1805171-.45c.4984839-1.2426407 1.7367581-2.25 2.7657628-2.25z" fill="#ffa62e"/><rect fill="#ffd798" height="3" rx="1.2" width="2.4" x="11.1" y="23.4"/><rect fill="#ffd798" height="3" rx="1.2" width="2.4" x="46.8" y="23.4"/><path d="m16.2 24h27.9v2.4h-27.9z" fill="#d28113"/><rect fill="#ec9218" height="5.4" rx=".6" width="24.3" x="18" y="22.5"/><g fill="#f0971e"><circle cx="23.7" cy="10.5" r="1.2"/><circle cx="32.1" cy="11.4" r="1.2"/><circle cx="27.9" cy="12.6" r="1.2"/><circle cx="36.3" cy="13.5" r="1.2"/><circle cx="23.7" cy="13.881818" r="1.2"/><circle cx="32.1" cy="14.781" r="1.2"/><circle cx="27.9" cy="15.981818" r="1.2"/><circle cx="36.3" cy="16.881818" r="1.2"/><circle cx="23.7" cy="17.263636" r="1.2"/><circle cx="32.1" cy="18.162" r="1.2"/><circle cx="27.9" cy="19.363636" r="1.2"/><circle cx="36.3" cy="20.263636" r="1.2"/></g></g></g></svg>